<svg width="1004" height="222" viewBox="0 0 1004 222" fill="none" xmlns="http://www.w3.org/2000/svg">
<mask id="mask0_544_938" style="mask-type:luminance" maskUnits="userSpaceOnUse" x="501" y="0" width="503" height="218">
<path d="M501 0.328125H1003.3V217.996H501V0.328125Z" fill="white"/>
</mask>
<g mask="url(#mask0_544_938)">
<path d="M999.804 227.942H501.875C502.169 215.715 509.697 202.515 521.233 198.186C516.934 190.353 518.923 179.798 525.783 173.934C532.658 168.067 543.74 167.453 551.256 172.518C550.172 163.162 551.508 152.836 558.223 146.007C564.937 139.193 578.168 138.178 583.787 145.873C584.574 139.3 585.402 132.551 587.738 126.393V126.378C588.525 124.336 589.475 122.359 590.636 120.461C595.319 112.899 604.584 107.204 613.448 109.315C620.285 110.945 627.721 116.705 633.34 112.605C636.222 110.479 636.89 106.658 638.077 103.344C644.204 86.1893 671.758 81.3795 683.706 95.3662C684.149 87.4986 685.374 79.0127 691.131 73.428C696.868 67.8432 708.549 67.7478 711.821 74.9511C714.103 56.2462 716.959 36.2281 729.987 22.2108C747.864 2.98677 787.377 10.736 799.604 32.7696C801.18 35.602 802.436 38.9689 805.425 40.3966C809.071 42.1335 813.289 40.1447 817.16 38.9689C825.985 36.2815 836.155 38.2207 843.259 43.9505C850.359 49.6842 854.15 58.9985 852.989 67.8699C856.673 69.0838 863.495 84.1852 865.418 92.0145C872.801 85.8419 883.013 83.5706 892.384 87.8575C900.633 91.6404 905.958 99.2408 907.546 107.727C914.57 106.925 921.9 109.009 927.133 114.14C930.844 117.774 933.111 122.664 933.848 127.783C946.716 126.779 956.779 136.559 957.767 148.614C963.856 155.653 966.246 165.823 962.054 183.02C967.925 181.31 973.949 179.584 980.06 179.867C995.334 180.546 1009.99 216.65 999.804 227.942Z" fill="url(#paint0_linear_544_938)" fill-opacity="0.33"/>
</g>
<mask id="mask1_544_938" style="mask-type:luminance" maskUnits="userSpaceOnUse" x="300" y="86" width="296" height="129">
<path d="M300 86H596V214.27H300V86Z" fill="white"/>
</mask>
<g mask="url(#mask1_544_938)">
<path d="M593.94 214.235H300.516C300.689 207.03 305.125 199.251 311.923 196.7C309.39 192.084 310.562 185.864 314.604 182.409C318.656 178.952 325.186 178.589 329.615 181.575C328.976 176.061 329.764 169.976 333.721 165.952C337.678 161.936 345.474 161.338 348.786 165.873C349.249 161.999 349.737 158.022 351.114 154.394V154.385C351.577 153.181 352.137 152.016 352.821 150.898C355.581 146.442 361.041 143.085 366.264 144.329C370.293 145.29 374.675 148.684 377.987 146.268C379.685 145.015 380.079 142.764 380.778 140.811C384.389 130.702 400.626 127.867 407.667 136.11C407.928 131.473 408.65 126.473 412.042 123.182C415.423 119.891 422.307 119.834 424.234 124.079C425.58 113.057 427.262 101.26 434.94 93C445.474 81.6714 468.759 86.238 475.964 99.2221C476.893 100.891 477.633 102.875 479.395 103.717C481.543 104.74 484.029 103.568 486.31 102.875C491.511 101.292 497.503 102.434 501.69 105.811C505.874 109.19 508.107 114.679 507.424 119.906C509.594 120.622 513.614 129.521 514.748 134.135C519.099 130.497 525.116 129.159 530.639 131.685C535.5 133.914 538.638 138.393 539.574 143.394C543.713 142.921 548.032 144.149 551.116 147.173C553.302 149.314 554.639 152.196 555.073 155.213C562.656 154.621 568.586 160.384 569.168 167.488C572.756 171.636 574.164 177.629 571.694 187.763C575.154 186.755 578.704 185.738 582.305 185.905C591.306 186.305 599.944 207.581 593.94 214.235Z" fill="url(#paint1_linear_544_938)"/>
</g>
<mask id="mask2_544_938" style="mask-type:luminance" maskUnits="userSpaceOnUse" x="0" y="66" width="343" height="149">
<path d="M0 66H343V214.637H0V66Z" fill="white"/>
</mask>
<g mask="url(#mask2_544_938)">
<path d="M340.613 214.603H0.597656C0.798372 206.253 5.93878 197.239 13.8162 194.283C10.8811 188.934 12.2392 181.727 16.9234 177.723C21.6181 173.717 29.1853 173.297 34.3179 176.756C33.5776 170.367 34.49 163.316 39.0751 158.652C43.6603 153.999 52.6952 153.306 56.5322 158.561C57.0692 154.072 57.6349 149.464 59.2302 145.259V145.249C59.7671 143.854 60.4162 142.504 61.2086 141.208C64.4071 136.045 70.7335 132.155 76.7863 133.597C81.4549 134.71 86.5327 138.643 90.3698 135.844C92.3378 134.392 92.794 131.783 93.6047 129.52C97.7885 117.805 116.604 114.521 124.763 124.072C125.065 118.7 125.902 112.905 129.833 109.091C133.75 105.278 141.727 105.212 143.961 110.131C145.52 97.3585 147.47 83.689 156.366 74.1171C168.573 60.9898 195.555 66.2814 203.905 81.3273C204.981 83.2615 205.839 85.5606 207.88 86.5355C210.369 87.7215 213.25 86.3634 215.893 85.5606C221.919 83.7254 228.864 85.0496 233.715 88.9623C238.563 92.8776 241.152 99.2379 240.359 105.296C242.875 106.125 247.533 116.437 248.847 121.783C253.888 117.568 260.861 116.017 267.26 118.945C272.893 121.528 276.53 126.718 277.614 132.512C282.411 131.965 287.415 133.388 290.989 136.892C293.523 139.373 295.071 142.712 295.574 146.208C304.362 145.522 311.233 152.201 311.908 160.433C316.066 165.24 317.697 172.184 314.835 183.927C318.844 182.759 322.958 181.581 327.131 181.774C337.561 182.238 347.57 206.892 340.613 214.603Z" fill="url(#paint2_linear_544_938)" fill-opacity="0.82"/>
</g>
<mask id="mask3_544_938" style="mask-type:luminance" maskUnits="userSpaceOnUse" x="133" y="79" width="630" height="143">
<path d="M133 79H763V221.556H133V79Z" fill="white"/>
</mask>
<g mask="url(#mask3_544_938)">
<path d="M744.445 223.988H118.448C115.374 213.531 112.849 194.846 126.205 190.363C131.548 188.57 137.403 189.402 142.984 190.267C147.242 177.345 138.57 163.096 154.566 154.707C161.862 150.878 171.504 151.679 178.018 156.678C178.832 157.287 179.683 157.991 180.703 157.991C182.862 158.023 183.617 155.237 183.694 153.138C184.353 137.736 186.526 121.983 194.028 108.37C201.516 94.7477 215.193 83.5225 231.106 82.1457C238.164 81.5373 245.346 82.8638 251.855 85.5718C265.742 91.3033 276.583 103.489 280.394 117.61C282.681 109.715 293.59 102.03 301.7 104.463C311.041 107.267 315.538 117.29 318.863 126.191C329.837 113.447 344.076 99.4226 361.047 101.934C361.701 102.03 362.327 102.144 362.949 102.286V102.304C385.057 107.153 384.32 136.437 389.695 152.804C409.497 141.592 445.089 151.39 444.577 177.971C449.695 164.747 462.636 149.373 478.664 152.035C482.57 152.676 505.542 164.011 504.403 168.347C506.754 159.336 509.586 147.612 520.353 145.115C523.665 144.346 545.868 150.48 544.633 153.348C549.674 141.592 556.266 130.161 566.004 121.58C575.734 112.999 589.008 107.537 602.095 109.138C621.179 111.494 624.01 124.878 631.352 138.967C635.363 130.532 645.267 125.102 654.818 126.113C664.369 127.106 672.845 134.452 674.894 143.514C676.778 151.825 673.659 160.393 669.917 168.091C675.69 163.64 684.875 165.932 689.609 171.407C694.344 176.883 695.496 184.471 695.318 191.598C702.069 188.972 710.148 189.869 716.112 193.885C722.082 197.906 725.727 204.918 725.521 211.944C733.549 211.802 741.179 216.99 744.445 223.988Z" fill="url(#paint3_linear_544_938)"/>
</g>
<defs>
<linearGradient id="paint0_linear_544_938" x1="752.53" y1="11.2734" x2="752.53" y2="227.942" gradientUnits="userSpaceOnUse">
<stop offset="0.583333" stop-color="#9BDBFF"/>
<stop offset="1" stop-color="#9BDBFF" stop-opacity="0"/>
</linearGradient>
<linearGradient id="paint1_linear_544_938" x1="448.224" y1="86.5547" x2="448.224" y2="214.235" gradientUnits="userSpaceOnUse">
<stop offset="0.4375" stop-color="#9BDBFF" stop-opacity="0.863636"/>
<stop offset="1" stop-color="#9BDBFF" stop-opacity="0"/>
</linearGradient>
<linearGradient id="paint2_linear_544_938" x1="171.76" y1="66.6484" x2="171.76" y2="214.603" gradientUnits="userSpaceOnUse">
<stop offset="0.526042" stop-color="#A7DFFF" stop-opacity="0.921875"/>
<stop offset="1" stop-color="#9BDBFF" stop-opacity="0"/>
</linearGradient>
<linearGradient id="paint3_linear_544_938" x1="430.223" y1="82" x2="430.223" y2="223.988" gradientUnits="userSpaceOnUse">
<stop offset="0.65625" stop-color="#FFE7FB"/>
<stop offset="1" stop-color="#FFF3FD" stop-opacity="0"/>
</linearGradient>
</defs>
</svg>
