<svg width="142" height="314" viewBox="0 0 142 314" fill="none" xmlns="http://www.w3.org/2000/svg">
<path d="M-119.178 177.349C-122.634 171.823 -122.045 164.3 -117.768 159.312C-113.492 154.323 -105.813 152.204 -99.3592 154.23C-99.3744 149.203 -95.8658 144.324 -90.905 142.48C-85.9443 140.634 -79.8493 141.939 -76.2196 145.623C-75.1642 134.776 -61.0012 128.014 -50.0726 131.543C-39.1456 135.075 -32.4056 146.141 -31.6848 157.012C-29.7919 152.899 -22.3993 153.497 -19.3934 156.97C-16.3785 153.29 -10.9998 150.523 -6.5872 152.602C-2.17612 154.68 0.28154 159.879 -1.02831 164.362C8.85991 155.548 27.6248 158.982 33.2973 170.645C38.2232 158.843 52.1333 150.505 65.3651 152.793C78.5953 155.08 88.7016 168.929 84.8447 181.081C90.8958 177.543 103.766 176.684 107.333 184.024C110.622 190.788 100.577 201.12 82.228 202.342C81.9948 202.357 73.1878 215.319 54.1322 217.842C37.0951 220.095 20.9559 212.204 13.1847 201.497C12.2867 211.078 0.0347137 212.687 -5.32127 208.031C-13.0259 219.471 -29.2589 225.088 -42.9828 221.061C-49.6683 227.644 -60.6635 229.961 -69.6855 226.69C-78.7076 223.418 -85.222 214.751 -85.5051 205.64C-88.4973 209.444 -92.8766 212.597 -97.8843 212.942C-102.894 213.287 -108.3 210.047 -108.895 205.345C-114.765 208.431 -121.925 209.721 -128.327 207.789C-134.728 205.858 -140.594 200.329 -140.375 193.997C-139.852 178.977 -119.178 177.349 -119.178 177.349Z" fill="#EAEAEA"/>
<path d="M107.441 184.278C105.495 188.232 99.4182 191.539 93.5867 192.766C86.403 194.277 79.9764 192.955 79.9764 192.955C79.9764 192.955 70.1472 200.513 52.1894 202.969C26.7829 206.444 6.82327 180.296 6.82327 180.296C6.82327 180.296 5.68908 188.232 -0.548218 189.365C-6.78551 190.499 -11.3223 183.13 -11.3223 183.13C-22.0979 204.103 -41.3776 193.333 -41.3776 193.333C-60.091 214.872 -81.6406 192.199 -81.6406 192.199C-93.5489 208.637 -102.055 193.9 -102.055 193.9C-102.055 193.9 -110.562 196.167 -112.262 189.365C-113.964 182.564 -101.488 178.595 -101.488 178.595C-122.47 167.259 -99.3592 154.23 -99.3592 154.23C-99.3607 153.876 -99.3395 153.522 -99.3062 153.169C-98.8686 148.529 -95.516 144.194 -90.9065 142.48C-85.9442 140.634 -79.8493 141.939 -76.2195 145.623C-75.1641 134.776 -61.0011 128.014 -50.0741 131.543C-39.1456 135.075 -32.4055 146.141 -31.6847 157.012C-29.7934 152.899 -22.3992 153.497 -19.3949 156.97C-16.38 153.29 -11.0013 150.523 -6.58865 152.602C-2.17606 154.68 0.28009 159.879 -1.02975 164.362C8.85997 155.548 27.6249 158.982 33.2973 170.645C38.2233 158.843 52.1319 150.505 65.3636 152.793C78.5954 155.08 88.7001 168.929 84.8448 181.081C90.8943 177.543 103.766 176.684 107.333 184.024C107.376 184.107 107.404 184.193 107.441 184.278Z" fill="white"/>
</svg>
