<svg width="100" height="92" viewBox="0 0 100 92" fill="none" xmlns="http://www.w3.org/2000/svg">
<g opacity="0.5">
<path d="M63.9374 69.5033C72.8943 66.8518 80.1353 61.5306 84.0676 54.7103C87.9999 47.8901 88.3012 40.1294 84.9054 33.1357C81.5096 26.1419 74.6948 20.4879 65.9602 17.4175C57.2255 14.347 47.2865 14.1117 38.3296 16.7632L51.1335 43.1333L63.9374 69.5033Z" fill="#9BDBFF"/>
<mask id="path-2-inside-1_746_999" fill="white">
<path d="M60.7928 74.9643C69.7497 72.3127 76.9908 66.9915 80.9231 60.1713C84.8553 53.351 85.1567 45.5904 81.7609 38.5966C78.3651 31.6028 71.5503 25.9488 62.8156 22.8784C54.081 19.808 44.142 19.5726 35.1851 22.2242L47.989 48.5942L60.7928 74.9643Z"/>
</mask>
<path d="M60.7928 74.9643C69.7497 72.3127 76.9908 66.9915 80.9231 60.1713C84.8553 53.351 85.1567 45.5904 81.7609 38.5966C78.3651 31.6028 71.5503 25.9488 62.8156 22.8784C54.081 19.808 44.142 19.5726 35.1851 22.2242L47.989 48.5942L60.7928 74.9643Z" stroke="#77838B" stroke-width="4" mask="url(#path-2-inside-1_746_999)"/>
</g>
</svg>
