<svg width="120" height="119" viewBox="0 0 120 119" fill="none" xmlns="http://www.w3.org/2000/svg">
<g opacity="0.3">
<path d="M119.999 54.5454C119.999 84.6701 95.5783 109.091 65.4537 109.091C35.329 109.091 10.9082 84.6701 10.9082 54.5454C10.9082 24.4208 35.329 0 65.4537 0C95.5783 0 119.999 24.4208 119.999 54.5454Z" fill="#FF88AC"/>
<path d="M108.091 64.0923C108.091 93.6647 84.1178 117.638 54.5455 117.638C24.9731 117.638 1 93.6647 1 64.0923C1 34.52 24.9731 10.5469 54.5455 10.5469C84.1178 10.5469 108.091 34.52 108.091 64.0923Z" stroke="#77838B" stroke-width="2"/>
<path d="M108.091 64.0923C108.091 93.6647 84.1178 117.638 54.5455 117.638C24.9731 117.638 1 93.6647 1 64.0923C1 34.52 24.9731 10.5469 54.5455 10.5469C84.1178 10.5469 108.091 34.52 108.091 64.0923Z" stroke="black" stroke-opacity="0.2" stroke-width="2"/>
</g>
</svg>
