<svg width="107" height="107" viewBox="0 0 107 107" fill="none" xmlns="http://www.w3.org/2000/svg">
<g opacity="0.3">
<path d="M80.222 33.4253C75.1557 25.3204 67.0773 19.5599 57.7638 17.4113C48.4504 15.2626 38.6648 16.9017 30.5598 21.9679C22.4548 27.0342 16.6944 35.1126 14.5457 44.4261C12.397 53.7396 14.0361 63.5252 19.1024 71.6301L49.6622 52.5277L80.222 33.4253Z" fill="#FF88AC"/>
<mask id="path-2-inside-1_468_2123" fill="white">
<path d="M87.6712 35.1402C82.605 27.0352 74.5265 21.2748 65.213 19.1261C55.8996 16.9774 46.114 18.6165 38.009 23.6828C29.9041 28.749 24.1436 36.8275 21.9949 46.141C19.8463 55.4544 21.4853 65.24 26.5516 73.345L57.1114 54.2426L87.6712 35.1402Z"/>
</mask>
<path d="M87.6712 35.1402C82.605 27.0352 74.5265 21.2748 65.213 19.1261C55.8996 16.9774 46.114 18.6165 38.009 23.6828C29.9041 28.749 24.1436 36.8275 21.9949 46.141C19.8463 55.4544 21.4853 65.24 26.5516 73.345L57.1114 54.2426L87.6712 35.1402Z" stroke="#77838B" stroke-width="4" mask="url(#path-2-inside-1_468_2123)"/>
</g>
</svg>
