<svg width="257" height="203" viewBox="0 0 257 203" fill="none" xmlns="http://www.w3.org/2000/svg">
<rect y="0.0078125" width="257" height="202" rx="25.8571" fill="#FFDEE8"/>
<mask id="mask0_476_2963" style="mask-type:luminance" maskUnits="userSpaceOnUse" x="61" y="41" width="111" height="131">
<path d="M61.0605 41.0391H171.18V171.674H61.0605V41.0391Z" fill="white"/>
</mask>
<g mask="url(#mask0_476_2963)">
<mask id="mask1_476_2963" style="mask-type:luminance" maskUnits="userSpaceOnUse" x="58" y="12" width="129" height="167">
<path d="M136.128 12.6172L186.273 41.0682L108.338 178.428L58.1934 149.978L136.128 12.6172Z" fill="white"/>
</mask>
<g mask="url(#mask1_476_2963)">
<mask id="mask2_476_2963" style="mask-type:luminance" maskUnits="userSpaceOnUse" x="58" y="12" width="129" height="167">
<path d="M186.306 41.0917L136.161 12.6406L58.2266 150L108.371 178.451L186.306 41.0917Z" fill="white"/>
</mask>
<g mask="url(#mask2_476_2963)">
<path d="M139.126 44.0616L122.52 41.3121C121.314 41.114 120.111 41.6897 119.507 42.7536L109.509 60.3743C109.038 61.2061 108.925 62.1953 109.195 63.1109L110.961 69.0732C111.114 69.5927 111.05 70.1518 110.783 70.6234L72.5004 138.097C70.614 141.42 66.9213 143.268 63.1558 142.808C62.9173 142.78 62.6851 142.902 62.5672 143.112L61.3127 145.322C61.2132 145.498 61.2667 145.706 61.4094 145.82L61.4352 145.841L90.9732 168.171C90.9741 168.17 90.975 168.17 90.9759 168.169C91.0211 168.2 91.0726 168.223 91.1297 168.232L110.414 171.424C111.248 171.562 112.08 171.163 112.498 170.427L170.9 67.4935C171.035 67.2568 170.965 66.9749 170.774 66.8183C170.775 66.8174 170.775 66.8174 170.776 66.8174L170.768 66.8119C170.764 66.8082 170.757 66.8045 170.752 66.7999L144.01 46.5835L141.229 44.4797" fill="#D96780"/>
</g>
</g>
</g>
<mask id="mask3_476_2963" style="mask-type:luminance" maskUnits="userSpaceOnUse" x="83" y="22" width="74" height="121">
<path d="M83.4609 22.1719H156.324V142.431H83.4609V22.1719Z" fill="white"/>
</mask>
<g mask="url(#mask3_476_2963)">
<mask id="mask4_476_2963" style="mask-type:luminance" maskUnits="userSpaceOnUse" x="58" y="12" width="129" height="167">
<path d="M136.128 12.6172L186.273 41.0682L108.338 178.428L58.1934 149.978L136.128 12.6172Z" fill="white"/>
</mask>
<g mask="url(#mask4_476_2963)">
<mask id="mask5_476_2963" style="mask-type:luminance" maskUnits="userSpaceOnUse" x="58" y="12" width="129" height="167">
<path d="M186.306 41.0917L136.161 12.6406L58.2266 150L108.371 178.451L186.306 41.0917Z" fill="white"/>
</mask>
<g mask="url(#mask5_476_2963)">
<path d="M151.315 22.5697C151.536 22.182 152.785 22.4749 154.104 23.2228C155.423 23.9717 156.313 24.8928 156.093 25.2806L143.229 47.9526C143.009 48.3404 141.762 48.0484 140.443 47.3005C139.124 46.5516 138.232 45.6296 138.452 45.2418L151.315 22.5697ZM113.04 72.5332L138.113 91.4886C138.462 91.752 138.561 92.2328 138.345 92.6132L126.606 113.304C126.346 113.761 125.744 113.886 125.326 113.569L100.251 94.6139C99.9032 94.3504 99.8037 93.8696 100.02 93.4892L111.759 72.7994C112.018 72.3416 112.622 72.2163 113.04 72.5332ZM86.2183 118.78L112.014 138.282C112.182 138.409 112.23 138.641 112.125 138.825L110.276 142.085C110.15 142.307 109.859 142.368 109.656 142.215L83.8603 122.713C83.6927 122.585 83.6438 122.352 83.7479 122.169L85.5975 118.908C85.7237 118.686 86.0148 118.626 86.2183 118.78ZM90.133 111.881L115.929 131.382C116.097 131.51 116.144 131.742 116.04 131.926L114.19 135.187C114.064 135.408 113.773 135.468 113.57 135.316L87.775 115.813C87.6064 115.687 87.5576 115.454 87.6626 115.27L89.5122 112.009C89.6375 111.788 89.9295 111.727 90.133 111.881ZM97.9725 98.0625L123.769 117.564C123.937 117.692 123.984 117.924 123.879 118.108L122.03 121.368C121.904 121.59 121.614 121.651 121.41 121.498L95.6145 101.997C95.4469 101.868 95.398 101.635 95.5021 101.451L97.3526 98.1905C97.4779 97.9694 97.7699 97.9086 97.9725 98.0625ZM93.4269 105.11L91.5764 108.37C91.4723 108.555 91.5211 108.787 91.6897 108.914L117.485 128.416C117.688 128.569 117.979 128.508 118.104 128.287L119.955 125.027C120.059 124.844 120.011 124.611 119.843 124.483L94.0477 104.982C93.8441 104.828 93.5521 104.889 93.4269 105.11Z" fill="#7DA7D9"/>
</g>
</g>
</g>
<mask id="mask6_476_2963" style="mask-type:luminance" maskUnits="userSpaceOnUse" x="112" y="45" width="34" height="35">
<path d="M112.23 45.5156H145.95V79.4712H112.23V45.5156Z" fill="white"/>
</mask>
<g mask="url(#mask6_476_2963)">
<mask id="mask7_476_2963" style="mask-type:luminance" maskUnits="userSpaceOnUse" x="58" y="12" width="129" height="167">
<path d="M136.128 12.6172L186.273 41.0682L108.338 178.428L58.1934 149.978L136.128 12.6172Z" fill="white"/>
</mask>
<g mask="url(#mask7_476_2963)">
<mask id="mask8_476_2963" style="mask-type:luminance" maskUnits="userSpaceOnUse" x="58" y="12" width="129" height="167">
<path d="M186.306 41.0917L136.161 12.6406L58.2266 150L108.371 178.451L186.306 41.0917Z" fill="white"/>
</mask>
<g mask="url(#mask8_476_2963)">
<path d="M120.004 46.7199L112.694 59.6043C112.185 60.5005 112.418 61.6326 113.239 62.2525L135.351 78.9696C136.339 79.7175 137.759 79.4227 138.371 78.3451L145.681 65.4588C146.189 64.5644 145.956 63.4315 145.135 62.8106L123.022 46.0935C122.036 45.3474 120.615 45.6422 120.004 46.7199Z" fill="#9BDBFF"/>
</g>
</g>
</g>
<mask id="mask9_476_2963" style="mask-type:luminance" maskUnits="userSpaceOnUse" x="108" y="74" width="17" height="38">
<path d="M108.928 74.2891H124.962V111.782H108.928V74.2891Z" fill="white"/>
</mask>
<g mask="url(#mask9_476_2963)">
<mask id="mask10_476_2963" style="mask-type:luminance" maskUnits="userSpaceOnUse" x="58" y="12" width="129" height="167">
<path d="M136.126 12.6172L186.271 41.0682L108.336 178.428L58.1914 149.978L136.126 12.6172Z" fill="white"/>
</mask>
<g mask="url(#mask10_476_2963)">
<mask id="mask11_476_2963" style="mask-type:luminance" maskUnits="userSpaceOnUse" x="58" y="12" width="129" height="167">
<path d="M186.304 41.0917L136.159 12.6406L58.2246 150L108.369 178.451L186.304 41.0917Z" fill="white"/>
</mask>
<g mask="url(#mask11_476_2963)">
<path d="M114.148 103.769L109.066 79.8244L110.29 77.6681L117.142 106.022L114.148 103.769ZM124.753 111.623L116.832 77.4038L113.44 74.635C113.07 74.3328 112.517 74.436 112.28 74.8523L111.832 75.6436L119.283 107.699L124.753 111.623Z" fill="#9BDBFF"/>
</g>
</g>
</g>
<mask id="mask12_476_2963" style="mask-type:luminance" maskUnits="userSpaceOnUse" x="68" y="20" width="112" height="151">
<path d="M68.9727 20.5625H179.564V170.533H68.9727V20.5625Z" fill="white"/>
</mask>
<g mask="url(#mask12_476_2963)">
<mask id="mask13_476_2963" style="mask-type:luminance" maskUnits="userSpaceOnUse" x="66" y="11" width="129" height="167">
<path d="M144.276 11.2422L194.421 39.6932L116.487 177.053L66.3418 148.603L144.276 11.2422Z" fill="white"/>
</mask>
<g mask="url(#mask13_476_2963)">
<mask id="mask14_476_2963" style="mask-type:luminance" maskUnits="userSpaceOnUse" x="66" y="11" width="129" height="167">
<path d="M194.454 39.7167L144.31 11.2656L66.375 148.625L116.52 177.076L194.454 39.7167Z" fill="white"/>
</mask>
<g mask="url(#mask14_476_2963)">
<mask id="mask15_476_2963" style="mask-type:luminance" maskUnits="userSpaceOnUse" x="66" y="11" width="129" height="167">
<path d="M194.439 39.7061L144.273 11.2422L66.3066 148.657L116.473 177.121L194.439 39.7061Z" fill="white"/>
</mask>
<g mask="url(#mask15_476_2963)">
<mask id="mask16_476_2963" style="mask-type:luminance" maskUnits="userSpaceOnUse" x="66" y="11" width="129" height="167">
<path d="M194.439 39.7042L144.331 11.2734L66.3984 148.63L116.506 177.061L194.439 39.7042Z" fill="white"/>
</mask>
<g mask="url(#mask16_476_2963)">
<path d="M143.435 69.9887L142.745 70.1472L144.158 76.313L144.847 76.1555L143.435 69.9887ZM129.324 59.5628L121.459 59.1953L121.426 59.9017L129.291 60.2693L129.324 59.5628ZM132.988 53.0303L133.621 52.7153L130.303 46.0143L129.67 46.3284L132.988 53.0303ZM132.975 62.5121L139.734 67.7109C140.602 68.3787 141.622 68.6338 142.611 68.4339C143.585 68.235 144.41 67.616 144.936 66.6894C146.057 64.7136 145.489 61.9696 143.673 60.5714L136.914 55.3727C136.76 55.2539 136.603 55.1488 136.44 55.0567C135.687 54.6293 134.851 54.4857 134.037 54.6515C133.064 54.8486 132.238 55.4685 131.713 56.3942C130.592 58.3699 131.158 61.1148 132.975 62.5121ZM133.897 53.9579C135.09 53.7156 136.313 54.0196 137.344 54.8117L144.103 60.0104C146.189 61.6159 146.838 64.7679 145.55 67.0385C144.922 68.1465 143.927 68.8871 142.75 69.1257C141.767 69.3256 140.762 69.1551 139.862 68.643C139.671 68.5352 139.484 68.4109 139.303 68.2727L132.544 63.0731C130.459 61.4685 129.81 58.3165 131.098 56.0451C131.725 54.9379 132.72 54.1964 133.897 53.9579ZM92.2055 120.965C92.1889 120.995 92.1972 121.033 92.2239 121.053L100.433 127.259L102.35 123.88L94.1554 117.684C94.1527 117.682 94.1499 117.681 94.1472 117.679C94.1297 117.669 94.1122 117.671 94.1011 117.672C94.0882 117.675 94.0679 117.683 94.055 117.705L92.2055 120.965ZM118.019 140.554C118.04 140.569 118.061 140.569 118.074 140.567C118.088 140.564 118.107 140.556 118.12 140.533L119.969 137.274C119.986 137.245 119.978 137.206 119.951 137.186L111.743 130.981L109.826 134.36L118.019 140.554ZM102.918 124.309L101 127.689L109.257 133.93L111.175 130.551L102.918 124.309ZM94.5819 117.121L120.377 136.622C120.687 136.854 120.775 137.285 120.584 137.623L118.735 140.882C118.624 141.078 118.436 141.214 118.217 141.26C118.031 141.299 117.841 141.266 117.678 141.174C117.649 141.158 117.621 141.14 117.594 141.12L91.7974 121.618C91.4889 121.384 91.3995 120.953 91.5902 120.617L93.4407 117.356C93.5512 117.161 93.74 117.025 93.9593 116.979C94.1766 116.935 94.4051 116.986 94.5819 117.121ZM96.1202 114.066C96.1036 114.095 96.1119 114.133 96.1386 114.154L104.347 120.36L106.264 116.981L98.0692 110.785C98.0508 110.772 98.0287 110.771 98.0158 110.773C98.0029 110.776 97.9817 110.784 97.9697 110.806L96.1202 114.066ZM121.934 133.655C121.954 133.669 121.976 133.67 121.988 133.667C122.003 133.665 122.022 133.656 122.034 133.635L123.884 130.374C123.901 130.345 123.891 130.308 123.866 130.287L115.658 124.081L113.741 127.46L121.934 133.655ZM106.833 117.41L104.915 120.789L113.172 127.031L115.088 123.651L106.833 117.41ZM98.4957 110.221L124.292 129.722C124.601 129.956 124.69 130.385 124.498 130.724L122.649 133.984C122.538 134.178 122.349 134.316 122.132 134.36C121.946 134.399 121.755 134.367 121.593 134.275C121.564 134.259 121.535 134.24 121.509 134.22L95.7121 114.718C95.4026 114.484 95.3142 114.053 95.5049 113.717L97.3554 110.457C97.465 110.263 97.6538 110.126 97.8721 110.081C98.0913 110.036 98.3179 110.084 98.4957 110.221ZM103.96 100.248C103.943 100.278 103.951 100.316 103.979 100.335L109.981 104.874L111.898 101.494L105.91 96.9669C105.907 96.9651 105.904 96.9642 105.901 96.9623C105.884 96.9522 105.866 96.9522 105.855 96.9559C105.842 96.9587 105.822 96.966 105.81 96.9872L103.96 100.248ZM129.775 119.837C129.794 119.853 129.815 119.853 129.828 119.851C129.843 119.847 129.861 119.84 129.874 119.817L131.724 116.557C131.74 116.527 131.732 116.49 131.705 116.469L125.703 111.932L123.786 115.312L129.775 119.837ZM117.258 110.375L123.217 114.881L125.135 111.503L119.174 106.995L117.258 110.375ZM118.604 106.565L112.466 101.925L110.55 105.303L116.687 109.944L118.604 106.565ZM106.337 96.4032L132.133 115.905C132.441 116.138 132.53 116.569 132.338 116.906L130.489 120.166C130.379 120.359 130.19 120.497 129.972 120.542C129.786 120.58 129.595 120.55 129.432 120.458C129.403 120.441 129.375 120.423 129.348 120.402L103.552 100.9C103.243 100.666 103.154 100.237 103.345 99.8988L105.195 96.6381C105.305 96.4447 105.494 96.3074 105.713 96.2623C105.931 96.2172 106.159 96.2697 106.337 96.4032ZM100.035 107.166C100.018 107.196 100.027 107.234 100.053 107.254L108.262 113.46L110.179 110.082L101.984 103.886C101.965 103.872 101.942 103.871 101.93 103.873C101.917 103.877 101.896 103.884 101.884 103.907L100.035 107.166ZM125.849 126.756C125.869 126.77 125.89 126.771 125.903 126.768C125.918 126.765 125.935 126.758 125.948 126.735L127.799 123.475C127.815 123.446 127.806 123.408 127.779 123.388L119.572 117.182L117.655 120.561L125.849 126.756ZM110.746 110.51L108.83 113.889L117.086 120.132L119.003 116.752L110.746 110.51ZM102.41 103.321L128.207 122.823C128.515 123.057 128.604 123.487 128.413 123.824L126.564 127.084C126.453 127.279 126.264 127.416 126.046 127.462C125.861 127.5 125.669 127.469 125.507 127.377C125.478 127.361 125.45 127.341 125.423 127.321L99.6259 107.818C99.3173 107.585 99.228 107.155 99.4196 106.818L101.27 103.557C101.38 103.363 101.568 103.227 101.787 103.181C102.006 103.136 102.232 103.186 102.41 103.321ZM121.15 58.393C120.731 59.1317 120.925 60.074 121.602 60.5843L143.714 77.3023C144.103 77.5961 144.602 77.7085 145.08 77.61C145.558 77.5105 145.972 77.2102 146.213 76.7856L153.524 63.8993C153.646 63.6847 153.709 63.4526 153.731 63.2196L146.824 62.7129L146.876 62.0083L153.644 62.5039C153.538 62.1971 153.347 61.9153 153.072 61.708L130.959 44.9909C130.899 44.9458 130.838 44.9053 130.774 44.8684C130.418 44.6667 129.998 44.5985 129.593 44.6833C129.116 44.7828 128.702 45.083 128.461 45.5086L121.15 58.393ZM129.451 43.9915C130.129 43.8506 130.833 44.009 131.386 44.4263L153.499 61.1434C154.456 61.8674 154.731 63.2021 154.138 64.2475L146.827 77.1337C146.485 77.7361 145.9 78.1608 145.222 78.3026C144.648 78.4214 144.055 78.3256 143.551 78.0392C143.461 77.9876 143.373 77.9305 143.288 77.8669L121.175 61.1489C120.217 60.4258 119.942 59.0903 120.535 58.0448L127.846 45.1595C128.187 44.5571 128.773 44.1315 129.451 43.9915ZM108.478 92.2859C108.35 92.5106 108.409 92.798 108.615 92.9537L133.689 111.909C133.809 112 133.957 112.033 134.106 112.003C134.252 111.972 134.375 111.882 134.45 111.752L146.189 91.0618C146.317 90.8361 146.257 90.5505 146.051 90.393L120.978 71.4386C120.96 71.4238 120.939 71.4109 120.92 71.3999C120.811 71.3382 120.687 71.3188 120.562 71.3446C120.414 71.375 120.291 71.4644 120.216 71.5961L108.478 92.2859ZM121.404 70.8739L146.479 89.8293C146.966 90.1987 147.106 90.8775 146.804 91.4099L135.064 112.101C134.891 112.407 134.593 112.624 134.248 112.695C133.955 112.756 133.652 112.708 133.396 112.562C133.35 112.536 133.306 112.507 133.262 112.473L108.189 93.5183C107.701 93.149 107.56 92.4692 107.862 91.9368L119.602 71.247C119.776 70.9402 120.074 70.7229 120.42 70.651C120.764 70.5801 121.124 70.6612 121.404 70.8739ZM118.151 61.6868L145.512 82.3721L145.938 81.8074L118.577 61.1222L118.151 61.6868ZM72.1042 141.842L99.8221 162.796L99.3965 163.361L71.6151 142.36L72.0084 141.84C71.7597 141.829 71.511 141.809 71.2614 141.779C71.1684 141.767 71.0726 141.818 71.0238 141.904L69.7692 144.115C69.7554 144.139 69.7757 144.159 69.7757 144.159L98.725 166.047L99.9492 163.889C100.141 163.552 100.51 163.363 100.89 163.409C104.537 163.854 108.068 162.074 109.883 158.873L148.166 91.4007C148.384 91.0148 148.438 90.5505 148.312 90.1259L146.546 84.1627C146.25 83.1596 146.376 82.0626 146.892 81.1516L156.891 63.53C157.564 62.3427 158.922 61.6933 160.268 61.9134L177.442 64.7587L152.268 45.726L151.688 46.7493C151.234 47.547 149.42 46.799 148.419 46.2316C147.417 45.6633 145.843 44.488 146.296 43.6903L146.718 42.947L130.612 40.2795C129.556 40.1054 128.492 40.6148 127.965 41.546L117.967 59.1676C117.544 59.9119 117.441 60.8099 117.683 61.6288L119.448 67.5911C119.629 68.199 119.553 68.8641 119.24 69.4167L80.957 136.889C79.1405 140.092 75.7297 141.971 72.1042 141.842ZM118.62 169.693C119.305 169.805 119.996 169.475 120.34 168.87L178.741 65.9377C178.782 65.865 178.762 65.8014 178.747 65.7692C178.737 65.7471 178.715 65.713 178.675 65.69C178.657 65.6807 178.637 65.6734 178.612 65.6697L160.153 62.6125C159.097 62.4394 158.033 62.9488 157.505 63.8791L147.508 81.5007C147.086 82.244 146.982 83.1421 147.226 83.961L148.99 89.9233C149.17 90.5312 149.094 91.1981 148.781 91.7498L110.499 159.222C108.541 162.672 104.735 164.591 100.803 164.111C100.71 164.099 100.614 164.15 100.564 164.238L99.3109 166.448C99.3081 166.451 99.3007 166.464 99.309 166.481C99.3173 166.498 99.3311 166.5 99.3367 166.502L118.62 169.693ZM162.079 22.154C160.882 21.4742 160.045 21.3351 159.799 21.3812C159.885 21.6161 160.433 22.2645 161.631 22.9443C162.828 23.6232 163.667 23.7613 163.912 23.7153C163.826 23.4813 163.277 22.8329 162.079 22.154ZM163.551 24.4098C162.826 24.3269 161.899 23.9096 161.282 23.5596C160.665 23.2096 159.832 22.6284 159.388 22.0472L146.925 44.0146C146.955 44.2071 147.495 44.8933 148.768 45.6154C150.04 46.3376 150.906 46.4481 151.088 46.3763L163.551 24.4098ZM118.771 67.7919L117.005 61.8296C116.709 60.8274 116.835 59.7295 117.352 58.8185L127.349 41.1978C128.023 40.0096 129.381 39.3611 130.727 39.5822L147.089 42.2912L159.16 21.0183C159.612 20.2225 161.427 20.9704 162.429 21.5387C163.43 22.1061 165.003 23.2805 164.551 24.0773L152.62 45.1051L179.113 65.1355C179.115 65.1373 179.119 65.1391 179.12 65.141L179.137 65.1539L179.136 65.1557C179.239 65.2377 179.326 65.3418 179.385 65.4643C179.51 65.7259 179.499 66.0326 179.356 66.2859L120.954 169.219C120.465 170.081 119.48 170.552 118.504 170.391L99.2215 167.199C99.134 167.184 99.0502 167.154 98.9747 167.112C98.9535 167.1 98.936 167.079 98.9148 167.065L98.9093 167.071L69.3676 144.738L69.3391 144.716C69.0499 144.486 68.9725 144.087 69.1549 143.766L70.4085 141.556C70.6001 141.218 70.9694 141.03 71.3471 141.076C74.9956 141.522 78.5252 139.74 80.3417 136.54L118.624 69.0667C118.843 68.6808 118.897 68.2175 118.771 67.7919ZM130.362 41.348L130.789 40.7833L156.73 60.3945L156.304 60.9601L130.362 41.348ZM98.0001 121.587C97.7118 121.37 97.4272 121.541 97.2236 121.904C97.1988 121.949 97.1896 121.988 97.1868 122.024C97.1905 122.205 97.2808 122.408 97.465 122.548C97.7026 122.728 97.9605 122.659 98.1097 122.4C98.2783 122.103 98.235 121.765 98.0038 121.591L98.0001 121.587ZM97.3904 123.912C97.325 123.868 97.2384 123.792 97.1453 123.703C96.9418 123.512 96.7834 123.25 96.7152 122.977C96.6286 122.624 96.6636 122.19 96.9261 121.729C97.2329 121.191 97.686 121.04 98.1024 121.355C98.5169 121.67 98.6007 122.23 98.375 122.624C98.1696 122.984 97.7735 123.09 97.4079 122.813C97.2015 122.657 97.0873 122.45 97.0551 122.224L97.0459 122.215C96.9409 122.493 96.9363 122.747 96.9961 122.977C97.0477 123.178 97.1592 123.358 97.3075 123.498C97.395 123.582 97.4613 123.638 97.5212 123.68L97.3904 123.912ZM106.887 128.251C106.643 128.066 106.447 128.167 106.351 128.335C106.242 128.524 106.304 128.755 106.443 128.949C106.714 129.062 106.935 129.066 107.052 128.856C107.154 128.675 107.118 128.426 106.889 128.252L106.887 128.251ZM105.894 130.013C106.15 130.207 106.413 130.138 106.523 129.923C106.637 129.722 106.603 129.461 106.405 129.21C106.085 129.083 105.841 129.078 105.698 129.331C105.574 129.545 105.644 129.825 105.89 130.011L105.894 130.013ZM106.992 128.04C107.348 128.31 107.492 128.741 107.302 129.074C107.2 129.254 107 129.361 106.709 129.297L106.703 129.308C106.888 129.603 106.933 129.91 106.782 130.174C106.608 130.479 106.203 130.544 105.779 130.222C105.391 129.929 105.226 129.457 105.435 129.09C105.58 128.839 105.842 128.77 106.154 128.858L106.159 128.848C105.978 128.541 106 128.281 106.101 128.105C106.252 127.84 106.596 127.74 106.99 128.039L106.992 128.04ZM116.157 135.243L116.022 135.478L115.029 134.726L115.024 134.733L114.846 137.25L114.564 137.037L114.768 134.46L114.875 134.273L116.157 135.243ZM100.723 116.718C101.01 116.935 101.314 116.796 101.513 116.452C101.544 116.401 101.552 116.353 101.556 116.309C101.568 116.097 101.471 115.875 101.305 115.75C101.052 115.559 100.785 115.614 100.612 115.914C100.441 116.213 100.484 116.537 100.719 116.714L100.723 116.718ZM101.357 114.414C101.406 114.452 101.474 114.508 101.546 114.582C101.785 114.809 101.95 115.085 102.021 115.383C102.105 115.744 102.061 116.175 101.825 116.588C101.516 117.132 101.031 117.264 100.601 116.937C100.176 116.617 100.124 116.07 100.344 115.684C100.577 115.278 100.985 115.199 101.344 115.471C101.568 115.641 101.679 115.881 101.698 116.09L101.704 116.095C101.857 115.71 101.815 115.219 101.421 114.818C101.35 114.747 101.282 114.687 101.224 114.647L101.357 114.414ZM110.173 121.091L111.144 121.826L110.701 122.931C110.635 122.86 110.549 122.782 110.431 122.692C110.028 122.388 109.739 122.446 109.587 122.713C109.422 122.994 109.547 123.339 109.803 123.532C109.991 123.673 110.194 123.735 110.308 123.747L110.253 124.015C110.116 124.004 109.894 123.929 109.673 123.761C109.232 123.427 109.091 122.881 109.325 122.473C109.475 122.209 109.711 122.125 109.922 122.155C110.091 122.173 110.265 122.252 110.424 122.374C110.5 122.43 110.54 122.47 110.582 122.513L110.812 121.915L110.036 121.328L110.173 121.091ZM119 129.852L119.004 129.846L118.915 128.757C118.912 128.618 118.914 128.491 118.92 128.32L118.911 128.314C118.856 128.427 118.796 128.54 118.734 128.649L118.334 129.347L119 129.852ZM117.623 129.944L117.949 129.371L117.665 129.156L117.791 128.937L118.076 129.152L118.818 127.851L119.116 128.074L119.258 130.098L119.153 130.282L118.209 129.567L117.882 130.14L117.623 129.944ZM105.345 110.316C105.208 110.307 104.966 110.229 104.736 110.057C104.253 109.689 104.163 109.203 104.354 108.869C104.522 108.576 104.835 108.535 105.114 108.676L105.117 108.67C104.923 108.39 104.9 108.11 105.024 107.889C105.17 107.635 105.491 107.528 105.89 107.83C106.11 107.996 106.271 108.233 106.332 108.396L106.141 108.545C106.09 108.415 105.976 108.222 105.813 108.1C105.561 107.909 105.373 107.979 105.277 108.146C105.136 108.394 105.328 108.692 105.527 108.843L105.682 108.959L105.56 109.172L105.407 109.055C105.141 108.854 104.813 108.787 104.643 109.076C104.538 109.252 104.521 109.565 104.87 109.83C105.064 109.978 105.289 110.031 105.395 110.043L105.345 110.316ZM112.867 116.116L113 115.881L113.911 116.569L113.914 116.563L113.842 116.288C113.657 115.538 113.564 115.02 113.785 114.634C113.955 114.333 114.316 114.164 114.751 114.494C114.985 114.671 115.135 114.918 115.205 115.141L115.004 115.275C114.956 115.123 114.857 114.911 114.673 114.771C114.369 114.542 114.16 114.665 114.039 114.878C113.859 115.193 113.942 115.643 114.17 116.545L114.263 116.924L114.164 117.099L112.867 116.116ZM122.11 123.328L121.844 123.127L123.039 121.033L123.273 121.211L123.578 121.792L123.402 121.967L123.16 121.503L123.154 121.5L122.11 123.328ZM94.3148 141.458C93.6138 142.694 94.0053 144.247 95.1871 144.918C96.3707 145.589 97.9043 145.129 98.6062 143.893C99.3081 142.655 98.9166 141.103 97.733 140.431C96.5512 139.76 95.0176 140.22 94.3148 141.458ZM93.9049 141.225C94.7357 139.761 96.5577 139.222 97.9661 140.021C99.3753 140.821 99.8469 142.661 99.0161 144.125C98.1862 145.587 96.3643 146.128 94.954 145.329C93.5457 144.529 93.075 142.688 93.9049 141.225ZM98.8116 144.009C98.0443 145.361 96.3698 145.859 95.071 145.122C93.7741 144.386 93.343 142.693 94.1094 141.341C94.8767 139.989 96.5522 139.49 97.8491 140.226C99.1478 140.963 99.5789 142.656 98.8116 144.009ZM99.7852 146.28C99.1027 146.967 98.2488 147.442 97.324 147.654L105.328 153.705C106.178 153.339 106.935 152.825 107.585 152.177L99.7852 146.28ZM96.134 147.346L96.7207 147.279C97.8122 147.158 98.83 146.634 99.5854 145.806L99.73 145.647L108.291 152.118L108.112 152.31C107.346 153.131 106.427 153.764 105.383 154.193L105.258 154.244L96.134 147.346ZM107.94 152.149C107.185 152.957 106.277 153.572 105.293 153.974L96.7474 147.514C97.873 147.387 98.9526 146.849 99.7585 145.964L107.94 152.149ZM85.3681 135.382C84.9223 136.188 84.634 137.058 84.5133 137.97L91.51 143.261C91.452 142.307 91.662 141.343 92.1235 140.486L85.3681 135.382ZM84.0132 138.184L84.0298 138.05C84.1486 137.002 84.4728 136.004 84.9942 135.085C85.0153 135.047 85.0393 135.011 85.0614 134.974L85.2336 134.688L92.7397 140.362L92.5896 140.615C92.0489 141.57 91.8545 142.679 92.0424 143.741L92.1465 144.332L84.0132 138.184ZM91.8094 143.782L84.2637 138.076C84.3761 137.09 84.6828 136.113 85.1996 135.202C85.2327 135.145 85.2677 135.09 85.3009 135.034L92.4311 140.425C92.4146 140.449 92.3998 140.473 92.3851 140.499C91.7928 141.543 91.6196 142.704 91.8094 143.782ZM88.7375 132.265C87.9012 132.645 87.1569 133.167 86.5223 133.825L93.3412 138.98C94.1177 138.322 95.0766 137.91 96.0667 137.807L88.7375 132.265ZM85.8231 133.888L85.9954 133.697C86.7442 132.868 87.6469 132.221 88.6758 131.776L88.802 131.723L97.4769 138.28L96.729 138.254C95.5666 138.209 94.3931 138.65 93.5107 139.458L93.3661 139.59L85.8231 133.888ZM93.3522 139.284L86.1704 133.854C86.9082 133.038 87.798 132.413 88.7698 131.994L96.7382 138.018C95.5141 137.972 94.2908 138.423 93.3522 139.284ZM101.22 141.702C101.405 142.695 101.287 143.723 100.871 144.674L108.764 150.641C108.772 150.627 108.781 150.611 108.789 150.596C109.233 149.815 109.526 148.97 109.66 148.083L101.22 141.702ZM100.284 144.82L100.366 144.646C100.894 143.545 100.977 142.316 100.601 141.182L100.361 140.461L110.165 147.874L110.148 148.01C110.015 149.007 109.695 149.955 109.2 150.829C109.145 150.925 109.088 151.018 109.03 151.11L108.893 151.33L100.284 144.82ZM108.995 150.713C108.943 150.805 108.886 150.896 108.83 150.986L100.578 144.748C101.148 143.562 101.206 142.256 100.824 141.106L109.914 147.979C109.789 148.917 109.487 149.846 108.995 150.713ZM84.6156 140.474C84.9813 142.192 85.9392 143.703 87.354 144.772L98.0112 152.829C99.4269 153.9 101.143 154.411 102.893 154.293L84.6156 140.474ZM97.7275 153.205L87.0685 145.149C85.3967 143.883 84.3227 142.041 84.0482 139.957L83.9736 139.398L104.102 154.615L103.545 154.697C101.813 154.951 100.09 154.624 98.5952 153.776C98.2967 153.607 98.0057 153.416 97.7275 153.205ZM103.511 154.463C101.592 154.745 99.5596 154.296 97.8693 153.018L87.2113 144.96C85.5459 143.701 84.5382 141.87 84.2821 139.925L103.511 154.463ZM91.1186 131.636L109.616 145.621C109.28 143.846 108.289 142.236 106.842 141.142L96.1837 133.085C95.9194 132.885 95.6458 132.706 95.3649 132.546C94.0735 131.814 92.6089 131.499 91.1186 131.636ZM89.9396 131.336L90.4775 131.246C92.6144 130.884 94.7422 131.404 96.4674 132.708L107.126 140.767C108.827 142.053 109.937 144.008 110.17 146.132L110.23 146.676L89.9396 131.336ZM109.936 146.158C109.715 144.152 108.697 142.25 106.984 140.954L96.3256 132.897C94.5865 131.582 92.4846 131.145 90.5171 131.478L109.936 146.158Z" fill="#FF88AC"/>
</g>
</g>
</g>
</g>
</g>
</svg>
