<svg width="27" height="27" viewBox="0 0 27 27" fill="none" xmlns="http://www.w3.org/2000/svg">
<path d="M15.903 10.071C15.8356 10.071 15.7689 10.0843 15.7067 10.1101C15.6444 10.1358 15.5879 10.1736 15.5403 10.2213C15.4926 10.2689 15.4548 10.3254 15.429 10.3877C15.4033 10.4499 15.39 10.5166 15.39 10.584V12.8385L13.5 10.3275C13.4529 10.2511 13.3875 10.1876 13.3097 10.1428C13.2319 10.0981 13.1442 10.0734 13.0545 10.071C12.9871 10.071 12.9204 10.0843 12.8582 10.1101C12.7959 10.1358 12.7394 10.1736 12.6918 10.2213C12.6441 10.2689 12.6063 10.3254 12.5806 10.3877C12.5548 10.4499 12.5415 10.5166 12.5415 10.584V14.418C12.5415 14.4854 12.5548 14.5521 12.5806 14.6143C12.6063 14.6766 12.6441 14.7331 12.6918 14.7807C12.7394 14.8284 12.7959 14.8662 12.8582 14.892C12.9204 14.9177 12.9871 14.931 13.0545 14.931C13.1219 14.931 13.1886 14.9177 13.2508 14.892C13.3131 14.8662 13.3696 14.8284 13.4172 14.7807C13.4649 14.7331 13.5027 14.6766 13.5285 14.6143C13.5542 14.5521 13.5675 14.4854 13.5675 14.418V12.15L15.444 14.7285C15.4918 14.8004 15.5635 14.853 15.6465 14.877C15.7087 14.891 15.7733 14.891 15.8355 14.877C15.8947 14.8985 15.9578 14.9073 16.0206 14.9026C16.0835 14.8979 16.1446 14.88 16.2 14.85L16.335 14.7555C16.4298 14.6578 16.483 14.5271 16.4835 14.391V10.584C16.4841 10.5106 16.469 10.4378 16.4391 10.3707C16.4092 10.3037 16.3653 10.2438 16.3102 10.1951C16.2552 10.1465 16.1904 10.1102 16.1201 10.0888C16.0498 10.0674 15.9758 10.0613 15.903 10.071ZM9.72 13.8645H8.289V10.584C8.289 10.4479 8.23495 10.3175 8.13875 10.2213C8.04254 10.125 7.91206 10.071 7.776 10.071C7.63994 10.071 7.50946 10.125 7.41325 10.2213C7.31705 10.3175 7.263 10.4479 7.263 10.584V14.418C7.263 14.5541 7.31705 14.6845 7.41325 14.7807C7.50946 14.877 7.63994 14.931 7.776 14.931H9.72C9.85733 14.931 9.98924 14.8774 10.0876 14.7816C10.186 14.6858 10.243 14.5553 10.2465 14.418C10.2502 14.3466 10.2393 14.2752 10.2144 14.2082C10.1896 14.1412 10.1514 14.0799 10.1022 14.0281C10.0529 13.9763 9.99363 13.9351 9.92792 13.907C9.86222 13.8789 9.79147 13.8644 9.72 13.8645ZM11.2185 10.071C11.0812 10.071 10.9493 10.1246 10.8509 10.2204C10.7525 10.3162 10.6955 10.4467 10.692 10.584V14.418C10.6955 14.5553 10.7525 14.6858 10.8509 14.7816C10.9493 14.8774 11.0812 14.931 11.2185 14.931C11.3546 14.931 11.485 14.877 11.5812 14.7807C11.6775 14.6845 11.7315 14.5541 11.7315 14.418V10.584C11.7315 10.4479 11.6775 10.3175 11.5812 10.2213C11.485 10.125 11.3546 10.071 11.2185 10.071ZM21.4785 0H5.5215C4.0582 0.00356469 2.65586 0.586437 1.62115 1.62115C0.586437 2.65586 0.00356469 4.0582 0 5.5215V21.4785C0.00356469 22.9418 0.586437 24.3441 1.62115 25.3789C2.65586 26.4136 4.0582 26.9964 5.5215 27H21.4785C22.9418 26.9964 24.3441 26.4136 25.3789 25.3789C26.4136 24.3441 26.9964 22.9418 27 21.4785V5.5215C26.9964 4.0582 26.4136 2.65586 25.3789 1.62115C24.3441 0.586437 22.9418 0.00356469 21.4785 0ZM21.897 16.578C21.8439 16.6585 21.7852 16.7351 21.7215 16.8075C21.3996 17.2037 21.0377 17.5656 20.6415 17.8875C17.9415 20.412 13.4055 23.436 12.798 22.9635C12.1905 22.491 13.662 20.5875 12.0825 20.2635C11.9704 20.2776 11.8571 20.2776 11.745 20.2635C7.101 19.6155 3.645 16.362 3.645 12.4605C3.645 8.073 8.0865 4.5225 13.554 4.5225C19.0215 4.5225 23.463 8.073 23.463 12.4605C23.4162 13.9695 22.8648 15.4192 21.897 16.578ZM19.5885 10.0845H17.55C17.4826 10.0845 17.4159 10.0978 17.3537 10.1236C17.2914 10.1493 17.2349 10.1871 17.1873 10.2348C17.1396 10.2824 17.1018 10.3389 17.076 10.4012C17.0503 10.4634 17.037 10.5301 17.037 10.5975V14.4315C17.037 14.5676 17.091 14.698 17.1873 14.7942C17.2835 14.8905 17.4139 14.9445 17.55 14.9445H19.548C19.6841 14.9445 19.8145 14.8905 19.9107 14.7942C20.007 14.698 20.061 14.5676 20.061 14.4315C20.061 14.3641 20.0477 14.2974 20.0219 14.2352C19.9962 14.1729 19.9584 14.1164 19.9107 14.0688C19.8631 14.0211 19.8066 13.9833 19.7443 13.9575C19.6821 13.9318 19.6154 13.9185 19.548 13.9185H18.1575V13.1085H19.5885C19.7258 13.105 19.8563 13.048 19.9521 12.9496C20.0479 12.8512 20.1015 12.7193 20.1015 12.582C20.1015 12.4459 20.0475 12.3155 19.9512 12.2193C19.855 12.123 19.7246 12.069 19.5885 12.069H18.1575V11.2455H19.5885C19.6559 11.2455 19.7226 11.2322 19.7848 11.2065C19.8471 11.1807 19.9036 11.1429 19.9512 11.0952C19.9989 11.0476 20.0367 10.9911 20.0625 10.9288C20.0882 10.8666 20.1015 10.7999 20.1015 10.7325C20.1227 10.6549 20.1254 10.5734 20.1093 10.4946C20.0932 10.4158 20.0588 10.3418 20.0089 10.2788C19.959 10.2157 19.8949 10.1652 19.8219 10.1315C19.7488 10.0977 19.6689 10.0817 19.5885 10.0845Z" fill="white"/>
</svg>
