<svg width="27" height="27" viewBox="0 0 27 27" fill="none" xmlns="http://www.w3.org/2000/svg">
<mask id="mask0_476_2907" style="mask-type:luminance" maskUnits="userSpaceOnUse" x="0" y="0" width="27" height="27">
<path d="M0 6C0 2.68629 2.68629 0 6 0H21C24.3137 0 27 2.68629 27 6V21C27 24.3137 24.3137 27 21 27H6C2.68629 27 0 24.3137 0 21V6Z" fill="white"/>
</mask>
<g mask="url(#mask0_476_2907)">
<path fill-rule="evenodd" clip-rule="evenodd" d="M0 6C0 2.68629 2.68629 0 6 0H21C24.3137 0 27 2.68629 27 6V21C27 24.3137 24.3137 27 21 27H6C2.68629 27 0 24.3137 0 21V6ZM13.5 14.625C16.6067 14.625 19.125 12.1067 19.125 9C19.125 5.89331 16.6067 3.375 13.5 3.375C10.3933 3.375 7.875 5.89331 7.875 9C7.875 12.1067 10.3933 14.625 13.5 14.625ZM13.5 15.75C10.1205 15.75 3.375 17.4572 3.375 20.25C3.375 22.114 4.88604 23.625 6.75 23.625H20.25C22.114 23.625 23.625 22.114 23.625 20.25C23.625 17.4572 16.8795 15.75 13.5 15.75Z" fill="white"/>
</g>
</svg>
