<svg width="27" height="27" viewBox="0 0 27 27" fill="none" xmlns="http://www.w3.org/2000/svg">
<path d="M26.9865 6.13845C26.9753 5.55927 26.9288 4.9813 26.8474 4.40775C26.7505 3.89759 26.5857 3.4027 26.3574 2.93625C25.8577 1.94981 25.0566 1.14828 24.0705 0.648C23.607 0.420812 23.1154 0.256462 22.6084 0.1593C22.0305 0.0762515 21.448 0.0289117 20.8643 0.01755C20.6172 0.00810001 20.2972 0.00405003 20.1487 0.00405003L6.85395 0C6.70545 0 6.3855 0.00404999 6.13845 0.0135C5.55926 0.0246599 4.98129 0.0710958 4.40775 0.15255C3.89759 0.249534 3.4027 0.414346 2.93625 0.6426C1.94986 1.14237 1.14835 1.94341 0.648 2.9295C0.420872 3.39298 0.256525 3.88465 0.1593 4.39155C0.0758744 4.96946 0.0280842 5.55197 0.0162001 6.13575C0.00810011 6.3828 0.00270013 6.70275 0.00270013 6.85125L0 20.146C0 20.2945 0.00404999 20.6145 0.0135 20.8615C0.0246599 21.4407 0.0710958 22.0187 0.15255 22.5922C0.249549 23.1024 0.414361 23.5973 0.6426 24.0637C1.14237 25.0501 1.94341 25.8516 2.9295 26.352C3.39299 26.5791 3.88466 26.7434 4.39155 26.8407C4.96948 26.9238 5.55199 26.9711 6.13575 26.9824C6.3828 26.9919 6.70275 26.9959 6.85125 26.9959L20.1461 26.9986C20.2945 26.9986 20.6145 26.9946 20.8615 26.9851C21.4407 26.9739 22.0187 26.9275 22.5923 26.8461C23.1024 26.7491 23.5973 26.5842 24.0638 26.356C25.0506 25.8565 25.8526 25.0554 26.3533 24.0691C26.5805 23.6057 26.7449 23.114 26.8421 22.6071C26.9255 22.0292 26.9733 21.4467 26.9852 20.8629C26.9933 20.6158 26.9987 20.2959 26.9987 20.1474L27 6.85395C27 6.70545 26.996 6.3855 26.9865 6.13845ZM13.793 22.8919H13.7889C12.1819 22.8916 10.6007 22.4888 9.18945 21.7201L4.08645 23.058L5.45265 18.0724C4.39486 16.2369 3.9722 14.1036 4.2502 12.0034C4.5282 9.90314 5.49133 7.95329 6.99026 6.45615C8.48919 4.959 10.4402 3.99819 12.5407 3.72269C14.6413 3.44718 16.7741 3.87238 18.6084 4.93235C20.4427 5.99232 21.8761 7.62785 22.6863 9.58535C23.4965 11.5429 23.6382 13.713 23.0896 15.7592C22.5409 17.8055 21.3325 19.6136 19.6517 20.9032C17.9708 22.1928 15.9115 22.8918 13.793 22.8919Z" fill="white"/>
<path d="M13.7968 5.26697C12.3672 5.26656 10.9637 5.64913 9.73208 6.3749C8.50049 7.10068 7.48583 8.14315 6.79361 9.39391C6.10139 10.6447 5.7569 12.058 5.79596 13.487C5.83502 14.916 6.2562 16.3085 7.01571 17.5196L7.20606 17.822L6.39741 20.7731L9.42546 19.9793L9.71706 20.1521C10.9497 20.8821 12.356 21.2673 13.7887 21.2672H13.7927C15.9146 21.2675 17.9498 20.4249 19.4505 18.9248C20.9512 17.4246 21.7945 15.3897 21.7948 13.2678C21.7952 11.1458 20.9526 9.11064 19.4524 7.60995C17.9522 6.10926 15.9173 5.26598 13.7954 5.26562L13.7968 5.26697ZM18.5002 16.7015C18.3232 16.9937 18.0877 17.2462 17.8084 17.4429C17.5292 17.6397 17.2122 17.7766 16.8775 17.8449C16.3721 17.9316 15.8534 17.8992 15.3628 17.7504C14.8974 17.6054 14.44 17.436 13.9925 17.2428C12.3316 16.4093 10.916 15.1584 9.88446 13.6127C9.32175 12.8971 8.98017 12.0329 8.90166 11.126C8.89517 10.7516 8.96673 10.3801 9.11176 10.0349C9.2568 9.68974 9.47214 9.37857 9.74406 9.12122C9.82442 9.02955 9.92287 8.95549 10.0332 8.90368C10.1436 8.85187 10.2634 8.82344 10.3853 8.82017C10.5446 8.82017 10.7053 8.82017 10.8457 8.82827C10.9942 8.83502 11.1913 8.77158 11.3857 9.24138C11.5882 9.72198 12.0688 10.9059 12.1282 11.0261C12.1663 11.0891 12.1881 11.1606 12.1916 11.2341C12.1952 11.3077 12.1803 11.3809 12.1484 11.4473C12.0878 11.5917 12.0069 11.7267 11.9081 11.8482C11.7866 11.9886 11.6557 12.1614 11.5477 12.2694C11.4262 12.3896 11.302 12.5192 11.441 12.7595C11.8022 13.3778 12.253 13.9393 12.7789 14.4254C13.3494 14.9326 14.0041 15.3365 14.7134 15.6188C14.9537 15.7403 15.0941 15.7187 15.2345 15.558C15.3749 15.3974 15.8353 14.856 15.9959 14.6157C16.1566 14.3754 16.3159 14.4159 16.5359 14.4956C16.756 14.5752 17.9399 15.1571 18.1802 15.2786C18.4205 15.4001 18.5812 15.4581 18.6406 15.558C18.7064 15.9447 18.6576 16.3422 18.5002 16.7015Z" fill="white"/>
</svg>
