<svg width="390" height="293" viewBox="0 0 390 293" fill="none" xmlns="http://www.w3.org/2000/svg">
<g clip-path="url(#clip0_476_3170)">
<mask id="mask0_476_3170" style="mask-type:luminance" maskUnits="userSpaceOnUse" x="51" y="87" width="87" height="208">
<path d="M51.0645 87.6406H137.223V294.185H51.0645V87.6406Z" fill="white"/>
</mask>
<g mask="url(#mask0_476_3170)">
<path fill-rule="evenodd" clip-rule="evenodd" d="M137.094 175.718C137.094 154.433 121.408 136.646 100.897 133.33C110.428 130.436 117.427 121.574 117.427 111.022C117.487 98.1183 106.988 87.6875 94.1389 87.6875C81.2894 87.6875 70.851 98.1183 70.851 110.962C70.851 121.453 77.7892 130.316 87.3812 133.27C66.9295 136.526 51.1836 154.373 51.1836 175.658V225.702C51.1836 227.39 52.6318 228.777 54.2606 228.777H71.0315V271.044C71.0315 283.041 80.3226 292.93 92.0268 294.076V228.716H96.3714V294.076C108.076 292.99 117.367 283.041 117.367 271.044V228.897H134.077C135.827 228.897 137.154 227.451 137.154 225.822V175.718H137.094Z" fill="#FFC2A3"/>
</g>
<mask id="mask1_476_3170" style="mask-type:luminance" maskUnits="userSpaceOnUse" x="90" y="87" width="12" height="8">
<path d="M90.5195 87.6406H101.594V94.8516H90.5195V87.6406Z" fill="white"/>
</mask>
<g mask="url(#mask1_476_3170)">
<mask id="mask2_476_3170" style="mask-type:luminance" maskUnits="userSpaceOnUse" x="-39" y="-39" width="468" height="468">
<path d="M429 -39H-39V429H429V-39Z" fill="black" fill-opacity="0.298"/>
</mask>
<g mask="url(#mask2_476_3170)">
<mask id="mask3_476_3170" style="mask-type:luminance" maskUnits="userSpaceOnUse" x="90" y="87" width="12" height="8">
<path d="M101.596 87.6406H90.5215V94.8628H101.596V87.6406Z" fill="white"/>
</mask>
<g mask="url(#mask3_476_3170)">
<mask id="mask4_476_3170" style="mask-type:luminance" maskUnits="userSpaceOnUse" x="91" y="87" width="11" height="8">
<path d="M91.002 87.6562H101.228V94.3857H91.002V87.6562Z" fill="white"/>
</mask>
<g mask="url(#mask4_476_3170)">
<path d="M94.1426 90.6016C95.5908 90.6016 96.9186 90.7821 98.2446 91.0229" stroke="white" stroke-width="5.78697" stroke-miterlimit="10" stroke-linecap="round" stroke-linejoin="round"/>
</g>
</g>
</g>
</g>
<mask id="mask5_476_3170" style="mask-type:luminance" maskUnits="userSpaceOnUse" x="-39" y="-39" width="468" height="468">
<path d="M429 -39H-39V429H429V-39Z" fill="black" fill-opacity="0.298"/>
</mask>
<g mask="url(#mask5_476_3170)">
<mask id="mask6_476_3170" style="mask-type:luminance" maskUnits="userSpaceOnUse" x="104" y="93" width="14" height="22">
<path d="M117.963 93.4141H104.963V114.599H117.963V93.4141Z" fill="white"/>
</mask>
<g mask="url(#mask6_476_3170)">
<mask id="mask7_476_3170" style="mask-type:luminance" maskUnits="userSpaceOnUse" x="105" y="93" width="13" height="22">
<path d="M105.441 93.7188H117.478V114.114H105.441V93.7188Z" fill="white"/>
</mask>
<g mask="url(#mask7_476_3170)">
<path d="M108.617 96.625C112.296 100.302 114.529 105.367 114.529 110.975" stroke="white" stroke-width="5.78697" stroke-miterlimit="10" stroke-linecap="round" stroke-linejoin="round"/>
</g>
</g>
</g>
<mask id="mask8_476_3170" style="mask-type:luminance" maskUnits="userSpaceOnUse" x="-39" y="-39" width="468" height="468">
<path d="M429 -39H-39V429H429V-39Z" fill="black" fill-opacity="0.0667"/>
</mask>
<g mask="url(#mask8_476_3170)">
<mask id="mask9_476_3170" style="mask-type:luminance" maskUnits="userSpaceOnUse" x="95" y="256" width="21" height="37">
<path d="M115.559 256.141H95.8184V292.733H115.559V256.141Z" fill="white"/>
</mask>
<g mask="url(#mask9_476_3170)">
<path d="M109.044 279.965C107.355 282.739 105.062 284.969 102.166 286.416V262.539" stroke="black" stroke-width="11.5739" stroke-miterlimit="10" stroke-linecap="round" stroke-linejoin="round"/>
</g>
</g>
<mask id="mask10_476_3170" style="mask-type:luminance" maskUnits="userSpaceOnUse" x="-39" y="-39" width="468" height="468">
<path d="M429 -39H-39V429H429V-39Z" fill="black" fill-opacity="0.0667"/>
</mask>
<g mask="url(#mask10_476_3170)">
<mask id="mask11_476_3170" style="mask-type:luminance" maskUnits="userSpaceOnUse" x="70" y="264" width="23" height="29">
<path d="M92.446 264.82H70.7793V292.746H92.446V264.82Z" fill="white"/>
</mask>
<g mask="url(#mask11_476_3170)">
<mask id="mask12_476_3170" style="mask-type:luminance" maskUnits="userSpaceOnUse" x="70" y="264" width="23" height="29">
<path d="M70.9492 264.859H92.2115V292.266H70.9492V264.859Z" fill="white"/>
</mask>
<g mask="url(#mask12_476_3170)">
<path d="M86.2341 286.428C80.6237 283.536 76.8828 277.686 76.8828 271.055" stroke="black" stroke-width="11.5739" stroke-miterlimit="10" stroke-linecap="round" stroke-linejoin="round"/>
</g>
</g>
</g>
<mask id="mask13_476_3170" style="mask-type:luminance" maskUnits="userSpaceOnUse" x="216" y="87" width="125" height="208">
<path d="M216.184 87.6406H340.887V294.185H216.184V87.6406Z" fill="white"/>
</mask>
<g mask="url(#mask13_476_3170)">
<path fill-rule="evenodd" clip-rule="evenodd" d="M321.403 201.224V175.72C321.403 154.435 305.718 136.649 285.206 133.333C294.738 130.438 301.736 121.576 301.736 111.025C301.736 98.1808 291.298 87.75 278.448 87.75C265.597 87.75 255.16 98.1808 255.16 111.025C255.16 121.516 262.098 130.378 271.69 133.333C251.239 136.588 235.493 154.435 235.493 175.72V201.284C208.283 246.265 205.69 244.395 255.28 243.19V271.106C255.28 283.104 264.572 292.993 276.276 294.138V235.834H280.62V294.138C292.324 293.053 301.616 283.104 301.616 271.106V243.19C351.146 244.335 348.552 246.265 321.403 201.224Z" fill="#FFC2A3"/>
</g>
<mask id="mask14_476_3170" style="mask-type:luminance" maskUnits="userSpaceOnUse" x="-39" y="-39" width="468" height="468">
<path d="M429 -39H-39V429H429V-39Z" fill="black" fill-opacity="0.298"/>
</mask>
<g mask="url(#mask14_476_3170)">
<mask id="mask15_476_3170" style="mask-type:luminance" maskUnits="userSpaceOnUse" x="284" y="89" width="16" height="16">
<path d="M299.961 89.0781H284.072V104.967H299.961V89.0781Z" fill="white"/>
</mask>
<g mask="url(#mask15_476_3170)">
<path d="M287.559 92.7656C291.418 94.6953 294.495 97.7704 296.487 101.508" stroke="white" stroke-width="5.78697" stroke-miterlimit="10" stroke-linecap="round" stroke-linejoin="round"/>
</g>
</g>
<mask id="mask16_476_3170" style="mask-type:luminance" maskUnits="userSpaceOnUse" x="-39" y="-39" width="468" height="468">
<path d="M429 -39H-39V429H429V-39Z" fill="black" fill-opacity="0.0667"/>
</mask>
<g mask="url(#mask16_476_3170)">
<mask id="mask17_476_3170" style="mask-type:luminance" maskUnits="userSpaceOnUse" x="254" y="256" width="20" height="34">
<path d="M273.003 256.148H254.707V289.852H273.003V256.148Z" fill="white"/>
</mask>
<g mask="url(#mask17_476_3170)">
<mask id="mask18_476_3170" style="mask-type:luminance" maskUnits="userSpaceOnUse" x="255" y="256" width="18" height="34">
<path d="M255.033 256.625H272.521V289.693H255.033V256.625Z" fill="white"/>
</mask>
<g mask="url(#mask18_476_3170)">
<path d="M266.565 283.772C263.126 280.576 260.955 275.993 260.955 271.11V262.547" stroke="black" stroke-width="11.5739" stroke-miterlimit="10" stroke-linecap="round" stroke-linejoin="round"/>
</g>
</g>
</g>
<mask id="mask19_476_3170" style="mask-type:luminance" maskUnits="userSpaceOnUse" x="51" y="133" width="87" height="97">
<path d="M51.0645 133.367H137.223V229.182H51.0645V133.367Z" fill="white"/>
</mask>
<g mask="url(#mask19_476_3170)">
<path fill-rule="evenodd" clip-rule="evenodd" d="M71.0328 228.897H134.018C135.768 228.897 137.095 227.451 137.095 225.822V175.778C137.095 154.493 121.41 136.706 100.898 133.391C98.7255 134.055 96.493 134.416 94.0198 134.416C91.6669 134.416 89.314 134.055 87.2621 133.391C66.8706 136.646 51.0645 154.493 51.0645 175.778V225.762C51.0645 227.451 52.5127 228.837 54.1414 228.837H71.0328V228.897Z" fill="#9BDBFF"/>
</g>
<mask id="mask20_476_3170" style="mask-type:luminance" maskUnits="userSpaceOnUse" x="51" y="198" width="61" height="32">
<path d="M51.0645 198.859H111.223V229.674H51.0645V198.859Z" fill="white"/>
</mask>
<g mask="url(#mask20_476_3170)">
<mask id="mask21_476_3170" style="mask-type:luminance" maskUnits="userSpaceOnUse" x="-39" y="-39" width="468" height="469">
<path d="M429 -38.9922H-39V429.008H429V-38.9922Z" fill="black" fill-opacity="0.0667"/>
</mask>
<g mask="url(#mask21_476_3170)">
<mask id="mask22_476_3170" style="mask-type:luminance" maskUnits="userSpaceOnUse" x="51" y="198" width="61" height="32">
<path d="M111.222 198.859H51.0371V229.674H111.222V198.859Z" fill="white"/>
</mask>
<g mask="url(#mask22_476_3170)">
<mask id="mask23_476_3170" style="mask-type:luminance" maskUnits="userSpaceOnUse" x="51" y="199" width="60" height="31">
<path d="M51.0762 199.344H110.742V229.196H51.0762V199.344Z" fill="white"/>
</mask>
<g mask="url(#mask23_476_3170)">
<path d="M104.818 223.12H56.9746V205.273" stroke="black" stroke-width="11.5739" stroke-miterlimit="10" stroke-linecap="round" stroke-linejoin="round"/>
</g>
</g>
</g>
</g>
<mask id="mask24_476_3170" style="mask-type:luminance" maskUnits="userSpaceOnUse" x="-39" y="-39" width="468" height="468">
<path d="M429 -39H-39V429H429V-39Z" fill="black" fill-opacity="0.298"/>
</mask>
<g mask="url(#mask24_476_3170)">
<mask id="mask25_476_3170" style="mask-type:luminance" maskUnits="userSpaceOnUse" x="104" y="134" width="11" height="10">
<path d="M114.59 134.344H104.479V143.01H114.59V134.344Z" fill="white"/>
</mask>
<g mask="url(#mask25_476_3170)">
<mask id="mask26_476_3170" style="mask-type:luminance" maskUnits="userSpaceOnUse" x="104" y="134" width="11" height="9">
<path d="M104.809 134.828H114.515V142.532H104.809V134.828Z" fill="white"/>
</mask>
<g mask="url(#mask26_476_3170)">
<path d="M107.711 138.055C108.979 138.476 110.124 139.08 111.331 139.561" stroke="white" stroke-width="5.78697" stroke-miterlimit="10" stroke-linecap="round" stroke-linejoin="round"/>
</g>
</g>
</g>
<mask id="mask27_476_3170" style="mask-type:luminance" maskUnits="userSpaceOnUse" x="-39" y="-39" width="468" height="468">
<path d="M429 -39H-39V429H429V-39Z" fill="black" fill-opacity="0.298"/>
</mask>
<g mask="url(#mask27_476_3170)">
<mask id="mask28_476_3170" style="mask-type:luminance" maskUnits="userSpaceOnUse" x="117" y="142" width="19" height="25">
<path d="M135.296 142.047H117V166.602H135.296V142.047Z" fill="white"/>
</mask>
<g mask="url(#mask28_476_3170)">
<mask id="mask29_476_3170" style="mask-type:luminance" maskUnits="userSpaceOnUse" x="117" y="142" width="19" height="25">
<path d="M117.48 142.531H135.083V166.124H117.48V142.531Z" fill="white"/>
</mask>
<g mask="url(#mask29_476_3170)">
<path d="M120.623 145.703C125.812 150.285 129.794 156.194 132.086 162.826" stroke="white" stroke-width="5.78697" stroke-miterlimit="10" stroke-linecap="round" stroke-linejoin="round"/>
</g>
</g>
</g>
<path fill-rule="evenodd" clip-rule="evenodd" d="M255.281 243.253H301.554V243.193C302.581 243.193 303.485 243.253 304.39 243.253H321.464V243.614C349.758 243.795 344.268 239.093 321.464 201.287V175.723C321.464 154.438 305.778 136.652 285.266 133.336C283.094 134 280.861 134.361 278.509 134.361C276.156 134.361 273.803 134 271.751 133.336C251.299 136.592 235.553 154.438 235.553 175.723V201.287C216.006 233.606 209.128 241.684 225.177 243.313H252.627C253.411 243.253 254.316 243.253 255.281 243.253Z" fill="#FF88AC"/>
<mask id="mask30_476_3170" style="mask-type:luminance" maskUnits="userSpaceOnUse" x="-39" y="-39" width="468" height="468">
<path d="M429 -39H-39V429H429V-39Z" fill="black" fill-opacity="0.298"/>
</mask>
<g mask="url(#mask30_476_3170)">
<mask id="mask31_476_3170" style="mask-type:luminance" maskUnits="userSpaceOnUse" x="287" y="134" width="11" height="9">
<path d="M297.557 134.344H287.928V142.047H297.557V134.344Z" fill="white"/>
</mask>
<g mask="url(#mask31_476_3170)">
<mask id="mask32_476_3170" style="mask-type:luminance" maskUnits="userSpaceOnUse" x="288" y="134" width="10" height="9">
<path d="M288.408 134.828H297.325V142.032H288.408V134.828Z" fill="white"/>
</mask>
<g mask="url(#mask32_476_3170)">
<path d="M291.482 137.875C292.507 138.238 293.412 138.599 294.377 139.022" stroke="white" stroke-width="5.78697" stroke-miterlimit="10" stroke-linecap="round" stroke-linejoin="round"/>
</g>
</g>
</g>
<mask id="mask33_476_3170" style="mask-type:luminance" maskUnits="userSpaceOnUse" x="-39" y="-39" width="468" height="468">
<path d="M429 -39H-39V429H429V-39Z" fill="black" fill-opacity="0.298"/>
</mask>
<g mask="url(#mask33_476_3170)">
<mask id="mask34_476_3170" style="mask-type:luminance" maskUnits="userSpaceOnUse" x="300" y="141" width="20" height="25">
<path d="M319.219 141.078H300.441V165.152H319.219V141.078Z" fill="white"/>
</mask>
<g mask="url(#mask34_476_3170)">
<mask id="mask35_476_3170" style="mask-type:luminance" maskUnits="userSpaceOnUse" x="300" y="141" width="20" height="24">
<path d="M300.787 141.562H319.046V164.905H300.787V141.562Z" fill="white"/>
</mask>
<g mask="url(#mask35_476_3170)">
<path d="M303.783 144.797C309.213 149.318 313.497 155.168 315.971 161.861" stroke="white" stroke-width="5.78697" stroke-miterlimit="10" stroke-linecap="round" stroke-linejoin="round"/>
</g>
</g>
</g>
<mask id="mask36_476_3170" style="mask-type:luminance" maskUnits="userSpaceOnUse" x="-39" y="-39" width="468" height="468">
<path d="M429 -39H-39V429H429V-39Z" fill="black" fill-opacity="0.0667"/>
</mask>
<g mask="url(#mask36_476_3170)">
<mask id="mask37_476_3170" style="mask-type:luminance" maskUnits="userSpaceOnUse" x="215" y="214" width="88" height="30">
<path d="M302.374 214.734H215.707V243.623H302.374V214.734Z" fill="white"/>
</mask>
<g mask="url(#mask37_476_3170)">
<mask id="mask38_476_3170" style="mask-type:luminance" maskUnits="userSpaceOnUse" x="216" y="214" width="86" height="30">
<path d="M216.188 214.812H301.891V243.355H216.188V214.812Z" fill="white"/>
</mask>
<g mask="url(#mask38_476_3170)">
<path d="M295.764 237.461H261.075V237.28L255.162 237.34L252.325 237.4H225.359C223.61 237.22 222.583 236.979 222.041 236.799C222.522 234.145 225.962 228.115 230.245 221" stroke="black" stroke-width="11.5739" stroke-miterlimit="10" stroke-linecap="round" stroke-linejoin="round"/>
</g>
</g>
</g>
<path fill-rule="evenodd" clip-rule="evenodd" d="M162.252 178.984H196.761C199.778 178.984 202.191 181.396 202.191 184.41C202.191 187.425 199.778 189.837 196.761 189.837H162.252C159.235 189.837 156.822 187.425 156.822 184.41C156.822 181.456 159.235 178.984 162.252 178.984ZM162.252 199.726H196.761C199.778 199.726 202.191 202.137 202.191 205.152C202.191 208.167 199.778 210.578 196.761 210.578H162.252C159.235 210.578 156.822 208.167 156.822 205.152C156.822 202.257 159.235 199.726 162.252 199.726Z" fill="#AA0046"/>
<mask id="mask39_476_3170" style="mask-type:luminance" maskUnits="userSpaceOnUse" x="246" y="75" width="67" height="65">
<path d="M246.037 75.8828H312.482V139.145H246.037V75.8828Z" fill="white"/>
</mask>
<g mask="url(#mask39_476_3170)">
<path d="M309.964 105.56C309.804 92.3212 301.177 76.2104 279.768 75.8906H278.852C257.443 76.2104 248.816 92.3212 248.656 105.56C248.496 118.799 244.501 118.161 247.217 128.21C249.935 138.259 259.519 138.101 259.519 138.101C257.763 133.794 257.283 129.008 257.283 129.008C259.679 140.174 269.905 138.899 269.905 138.899C258.082 128.848 260.798 110.345 261.118 107.315C261.438 104.285 265.272 103.645 266.709 103.397C268.148 103.149 271.317 97.9918 271.317 97.9918V103.326C271.317 103.326 275.337 103.486 277.255 103.326C278.148 103.252 278.833 100.683 279.311 97.9598C279.787 100.683 280.473 103.252 281.366 103.326C283.283 103.486 287.302 103.326 287.302 103.326V97.9918C287.302 97.9918 290.473 103.149 291.91 103.397C293.349 103.645 297.184 104.285 297.502 107.315C297.821 110.345 300.537 128.848 288.715 138.899C288.715 138.899 298.94 140.174 301.337 129.008C301.337 129.008 300.857 133.794 299.1 138.101C299.1 138.101 308.687 138.259 311.403 128.21C314.118 118.161 310.124 118.799 309.964 105.56Z" fill="#BD4089"/>
</g>
<mask id="mask40_476_3170" style="mask-type:luminance" maskUnits="userSpaceOnUse" x="65" y="75" width="59" height="47">
<path d="M65.0566 75.8828H123.196V121.022H65.0566V75.8828Z" fill="white"/>
</mask>
<g mask="url(#mask40_476_3170)">
<path d="M114.251 120.922L114.373 120.185C114.891 117.625 114.941 114.106 114.522 109.626C113.19 107.164 112.353 104.604 112.007 101.971C111.885 101.603 111.712 101.405 111.466 101.356C111.417 101.307 111.195 101.405 110.824 101.627C109.592 102.586 108.853 103.079 108.607 103.152C107.99 103.423 107.546 103.547 107.251 103.547C106.388 103.767 104.588 103.301 101.877 102.144C99.7822 103.055 98.2042 103.521 97.1698 103.497C96.0112 103.547 94.4821 103.177 92.5844 102.391C90.5381 102.906 88.8134 103.252 87.4085 103.472L81.074 104.087C80.1129 104.309 79.5449 104.482 79.3982 104.604C76.5639 105.861 75.3545 111.324 75.7984 121.022L70.82 118.979V111.766C69.6614 109.921 68.9956 108.494 68.8489 107.484C68.627 106.476 68.6759 104.9 69.0689 102.71C67.1468 100.79 65.866 97.4667 65.2246 92.7422C66.5073 93.5547 68.5517 94.0945 71.3616 94.4161C69.1442 91.9052 67.4439 90.2313 66.259 89.4188C67.7148 88.3844 68.8226 87.8446 69.6125 87.7938C70.3272 87.6471 71.5591 87.9424 73.2593 88.6552C72.2738 87.8935 71.5836 86.1952 71.2149 83.5621C72.4468 83.9796 73.2838 84.226 73.6787 84.2749C73.974 84.3727 74.6154 84.3727 75.6272 84.2993C75.8228 84.2993 76.0448 84.3482 76.2912 84.4235C76.8592 84.6191 77.6472 85.0385 78.6572 85.678C77.2786 84.5702 76.7595 82.4298 77.0566 79.2551C77.8447 80.3365 78.6327 81.0023 79.4227 81.2731C79.6935 81.3465 79.9888 81.3954 80.3349 81.3954L82.9473 81.2224C83.3159 81.2224 83.662 81.322 84.0062 81.4688C84.5252 81.6662 85.2155 82.3546 86.0524 83.5621C85.3866 82.7251 85.0914 81.9126 85.1647 81.1246C85.1647 80.3854 85.6086 78.909 86.4719 76.6953C87.2355 78.0476 87.9013 78.8112 88.4937 79.0087C88.9112 79.1798 89.2818 79.2551 89.6259 79.2551L92.7086 78.9842C93.3236 78.9579 93.8408 79.0087 94.2113 79.1309C95.321 79.4751 96.5284 80.3121 97.8092 81.6907C98.3772 81.0512 98.6236 80.4362 98.5503 79.7948C98.5239 79.2287 98.1309 78.0476 97.3654 76.2514C99.3628 77.679 100.743 78.5893 101.556 78.9334L102.739 79.4262C105.278 80.0168 106.485 80.3854 106.412 80.4851C107.127 80.8293 107.892 81.8393 108.68 83.4624C108.802 80.9779 110.234 78.467 112.993 75.8828C112.673 78.7378 112.746 80.6073 113.215 81.4688L113.807 82.3791C115.41 83.7821 116.198 84.5946 116.198 84.8166C116.642 85.6535 116.864 86.8835 116.864 88.5085C119.008 88.9769 120.537 89.985 121.473 91.5855C122.261 92.8644 122.754 95.253 122.903 98.772C123.025 102.784 122.137 106.525 120.24 109.946L120.586 117.871L114.251 120.922Z" fill="#7DA7D9"/>
</g>
</g>
<defs>
<clipPath id="clip0_476_3170">
<rect width="390" height="293" fill="white"/>
</clipPath>
</defs>
</svg>
