<svg width="42" height="42" viewBox="0 0 42 42" fill="none" xmlns="http://www.w3.org/2000/svg">
<rect width="41.709" height="41.709" rx="11.2293" fill="white"/>
<path d="M27.8487 24.0628C27.977 23.004 28.0733 21.9453 28.0733 20.8544C28.0733 19.7636 27.977 18.7048 27.8487 17.646H33.2708C33.5275 18.6727 33.6879 19.7475 33.6879 20.8544C33.6879 21.9613 33.5275 23.0361 33.2708 24.0628M25.0093 32.9821C25.9718 31.2014 26.7097 29.2764 27.223 27.2712H31.9554C30.4012 29.9474 27.9355 31.9747 25.0093 32.9821ZM24.6082 24.0628H17.1006C16.9402 23.004 16.8439 21.9453 16.8439 20.8544C16.8439 19.7636 16.9402 18.6887 17.1006 17.646H24.6082C24.7526 18.6887 24.8649 19.7636 24.8649 20.8544C24.8649 21.9453 24.7526 23.004 24.6082 24.0628ZM20.8544 33.6238C19.5229 31.6987 18.4481 29.5652 17.7904 27.2712H23.9184C23.2607 29.5652 22.1859 31.6987 20.8544 33.6238ZM14.4376 14.4376H9.75341C11.2916 11.7542 13.7555 9.72371 16.6835 8.72673C15.721 10.5074 14.9991 12.4324 14.4376 14.4376ZM9.75341 27.2712H14.4376C14.9991 29.2764 15.721 31.2014 16.6835 32.9821C13.7617 31.9741 11.3012 29.9465 9.75341 27.2712ZM8.43797 24.0628C8.1813 23.0361 8.02088 21.9613 8.02088 20.8544C8.02088 19.7475 8.1813 18.6727 8.43797 17.646H13.8601C13.7318 18.7048 13.6355 19.7636 13.6355 20.8544C13.6355 21.9453 13.7318 23.004 13.8601 24.0628M20.8544 8.06901C22.1859 9.99404 23.2607 12.1437 23.9184 14.4376H17.7904C18.4481 12.1437 19.5229 9.99404 20.8544 8.06901ZM31.9554 14.4376H27.223C26.721 12.4508 25.9775 10.5329 25.0093 8.72673C27.961 9.73737 30.4154 11.7747 31.9554 14.4376ZM20.8544 4.8125C11.9832 4.8125 4.8125 12.0314 4.8125 20.8544C4.8125 25.109 6.50262 29.1893 9.51107 32.1977C11.0007 33.6874 12.7691 34.869 14.7154 35.6752C16.6617 36.4814 18.7478 36.8963 20.8544 36.8963C25.109 36.8963 29.1893 35.2062 32.1977 32.1977C35.2062 29.1893 36.8963 25.109 36.8963 20.8544C36.8963 18.7478 36.4814 16.6617 35.6752 14.7154C34.869 12.7691 33.6874 11.0007 32.1977 9.51107C30.7081 8.02144 28.9397 6.8398 26.9934 6.03362C25.0471 5.22744 22.9611 4.8125 20.8544 4.8125Z" fill="#FF88AC"/>
</svg>
