<svg width="42" height="42" viewBox="0 0 42 42" fill="none" xmlns="http://www.w3.org/2000/svg">
<rect x="0.291016" width="41.709" height="41.709" rx="11.2293" fill="white"/>
<path d="M14.4078 4.8125H27.883C33.0164 4.8125 37.1873 8.9834 37.1873 14.1168V27.592C37.1873 30.0597 36.2071 32.4262 34.4622 34.1711C32.7173 35.916 30.3507 36.8963 27.883 36.8963H14.4078C9.27441 36.8963 5.10352 32.7254 5.10352 27.592V14.1168C5.10352 11.6492 6.08379 9.28256 7.82868 7.53767C9.57358 5.79277 11.9402 4.8125 14.4078 4.8125ZM14.087 8.02088C12.5553 8.02088 11.0864 8.62933 10.0034 9.71237C8.92034 10.7954 8.3119 12.2643 8.3119 13.796V27.9128C8.3119 31.1052 10.8946 33.6879 14.087 33.6879H28.2039C29.7355 33.6879 31.2044 33.0795 32.2875 31.9964C33.3705 30.9134 33.9789 29.4445 33.9789 27.9128V13.796C33.9789 10.6036 31.3962 8.02088 28.2039 8.02088H14.087ZM29.5674 10.4272C30.0992 10.4272 30.6093 10.6384 30.9853 11.0145C31.3614 11.3905 31.5727 11.9006 31.5727 12.4324C31.5727 12.9642 31.3614 13.4743 30.9853 13.8503C30.6093 14.2264 30.0992 14.4376 29.5674 14.4376C29.0356 14.4376 28.5256 14.2264 28.1495 13.8503C27.7734 13.4743 27.5622 12.9642 27.5622 12.4324C27.5622 11.9006 27.7734 11.3905 28.1495 11.0145C28.5256 10.6384 29.0356 10.4272 29.5674 10.4272ZM21.1454 12.8335C23.2727 12.8335 25.3129 13.6785 26.8171 15.1827C28.3213 16.687 29.1664 18.7271 29.1664 20.8544C29.1664 22.9817 28.3213 25.0219 26.8171 26.5261C25.3129 28.0303 23.2727 28.8754 21.1454 28.8754C19.0181 28.8754 16.978 28.0303 15.4738 26.5261C13.9695 25.0219 13.1245 22.9817 13.1245 20.8544C13.1245 18.7271 13.9695 16.687 15.4738 15.1827C16.978 13.6785 19.0181 12.8335 21.1454 12.8335ZM21.1454 16.0418C19.869 16.0418 18.645 16.5489 17.7424 17.4514C16.8399 18.3539 16.3328 19.578 16.3328 20.8544C16.3328 22.1308 16.8399 23.3549 17.7424 24.2574C18.645 25.1599 19.869 25.667 21.1454 25.667C22.4218 25.667 23.6459 25.1599 24.5484 24.2574C25.451 23.3549 25.958 22.1308 25.958 20.8544C25.958 19.578 25.451 18.3539 24.5484 17.4514C23.6459 16.5489 22.4218 16.0418 21.1454 16.0418Z" fill="#FF88AC"/>
</svg>
