<svg width="42" height="42" viewBox="0 0 42 42" fill="none" xmlns="http://www.w3.org/2000/svg">
<rect x="0.193359" width="41.709" height="41.709" rx="11.2293" fill="white"/>
<path d="M21.0478 4.8125C29.9077 4.8125 37.0897 11.9945 37.0897 20.8544C37.0897 29.7143 29.9077 36.8963 21.0478 36.8963C12.1878 36.8963 5.00586 29.7143 5.00586 20.8544C5.00586 11.9945 12.1878 4.8125 21.0478 4.8125ZM21.0478 8.02088C17.6441 8.02088 14.3798 9.37298 11.9731 11.7797C9.56634 14.1865 8.21424 17.4507 8.21424 20.8544C8.21424 24.2581 9.56634 27.5223 11.9731 29.9291C14.3798 32.3358 17.6441 33.6879 21.0478 33.6879C24.4514 33.6879 27.7157 32.3358 30.1224 29.9291C32.5292 27.5223 33.8813 24.2581 33.8813 20.8544C33.8813 17.4507 32.5292 14.1865 30.1224 11.7797C27.7157 9.37298 24.4514 8.02088 21.0478 8.02088ZM14.1947 24.2409C16.4694 23.7179 18.903 23.7243 21.0077 24.05C23.0546 24.3676 25.0406 25.0285 26.2646 26.0295C26.582 26.2873 26.789 26.6566 26.8432 27.0619C26.8975 27.4671 26.795 27.8778 26.5566 28.2101C26.3182 28.5423 25.9619 28.7709 25.5606 28.8492C25.1592 28.9276 24.7431 28.8497 24.3973 28.6315L24.2337 28.5144C23.6626 28.046 22.344 27.5038 20.5152 27.2214C18.7425 26.9455 16.7261 26.9519 14.9133 27.3674C14.7069 27.4177 14.4926 27.4266 14.2828 27.3934C14.0729 27.3602 13.8718 27.2856 13.691 27.1741C13.5102 27.0625 13.3534 26.9161 13.2296 26.7435C13.1058 26.5708 13.0176 26.3753 12.97 26.1682C12.9224 25.9612 12.9164 25.7468 12.9523 25.5374C12.9883 25.328 13.0655 25.1278 13.1794 24.9485C13.2934 24.7692 13.4418 24.6143 13.616 24.4929C13.7903 24.3714 13.987 24.2857 14.1947 24.2409ZM13.3605 19.8598C18.5885 18.4016 24.67 19.2262 28.3805 21.5041C28.7432 21.7268 29.0026 22.0845 29.1016 22.4985C29.2005 22.9124 29.131 23.3488 28.9083 23.7115C28.6856 24.0742 28.3279 24.3335 27.9139 24.4325C27.5 24.5315 27.0636 24.462 26.7009 24.2392C23.8407 22.4827 18.696 21.703 14.2203 22.9495C14.0154 23.0128 13.7998 23.0344 13.5864 23.013C13.373 22.9916 13.166 22.9276 12.9777 22.8249C12.7895 22.7221 12.6237 22.5826 12.4903 22.4146C12.3569 22.2466 12.2586 22.0536 12.201 21.847C12.1435 21.6403 12.1281 21.4242 12.1555 21.2115C12.183 20.9988 12.2528 20.7937 12.3609 20.6084C12.469 20.4231 12.6132 20.2614 12.7849 20.1329C12.9566 20.0043 13.1523 19.9114 13.3605 19.8598ZM12.5937 15.2622C18.6254 13.5778 24.6171 14.4521 29.704 16.6482C30.0912 16.8191 30.3951 17.1361 30.5496 17.5302C30.7041 17.9242 30.6967 18.3633 30.5289 18.7519C30.361 19.1404 30.0465 19.4469 29.6537 19.6045C29.2609 19.7622 28.8217 19.7582 28.4319 19.5935C23.892 17.6316 18.6559 16.9017 13.4567 18.3519C13.2527 18.4125 13.0386 18.4319 12.8269 18.409C12.6153 18.386 12.4103 18.3212 12.224 18.2182C12.0377 18.1153 11.8737 17.9763 11.7416 17.8093C11.6096 17.6423 11.5121 17.4507 11.4548 17.2457C11.3975 17.0407 11.3816 16.8263 11.408 16.6151C11.4344 16.4038 11.5026 16.1999 11.6086 16.0153C11.7147 15.8307 11.8563 15.669 12.0255 15.5397C12.1946 15.4104 12.3877 15.3161 12.5937 15.2622Z" fill="#FF88AC"/>
</svg>
