<svg width="42" height="42" viewBox="0 0 42 42" fill="none" xmlns="http://www.w3.org/2000/svg">
<rect x="0.0976562" width="41.709" height="41.709" rx="11.2293" fill="white"/>
<path d="M18.0638 24.9768L25.557 20.8517L18.0638 16.7266V24.9768ZM34.7538 14.2104C34.9415 14.8566 35.0715 15.7229 35.1581 16.8229C35.2592 17.9229 35.3025 18.8717 35.3025 19.6967L35.3891 20.8517C35.3891 23.863 35.1581 26.0768 34.7538 27.4931C34.3929 28.7306 33.5555 29.5281 32.2561 29.8718C31.5775 30.0506 30.3359 30.1743 28.4301 30.2568C26.5532 30.3531 24.8351 30.3944 23.247 30.3944L20.9514 30.4769C14.902 30.4769 11.1337 30.2568 9.64666 29.8718C8.34726 29.5281 7.50987 28.7306 7.14893 27.4931C6.96124 26.8468 6.8313 25.9805 6.74468 24.8805C6.64361 23.7805 6.6003 22.8317 6.6003 22.0067L6.51367 20.8517C6.51367 17.8404 6.74468 15.6266 7.14893 14.2104C7.50987 12.9728 8.34726 12.1753 9.64666 11.8316C10.3252 11.6528 11.5669 11.5291 13.4727 11.4466C15.3496 11.3503 17.0676 11.3091 18.6558 11.3091L20.9514 11.2266C27.0008 11.2266 30.769 11.4466 32.2561 11.8316C33.5555 12.1753 34.3929 12.9728 34.7538 14.2104Z" fill="#FF88AC"/>
</svg>
