<svg width="1280" height="1951" viewBox="0 0 1280 1951" fill="none" xmlns="http://www.w3.org/2000/svg">
<g opacity="0.5">
<path opacity="0.4" d="M273.647 389.86C257.842 355.888 194.842 341.044 147.755 359.887C125.876 314.04 60.4406 315.848 41.0827 362.819C0.307297 347.602 -50.1518 365.334 -57.3142 398.111C-105.091 398.239 -142.965 419.644 -142.883 445.378C-142.785 474.201 -94.2616 495.654 -42.5466 489.699C-18.3167 526.656 78.7324 534.76 125.12 503.381C160.6 534.664 246.402 526.579 261.113 490.269C317.273 504.377 389.149 483.788 389.149 441.322C389.149 402.305 328.178 381.375 273.647 389.86Z" fill="#F2F5DF"/>
<path opacity="0.4" d="M386.752 428.4C365.822 406.89 320.608 397.006 278.998 403.375C262.632 368.811 197.399 353.718 148.636 372.89C125.963 326.252 58.2051 328.097 38.1606 375.859C2.58301 362.824 -40.1475 373.586 -57.1074 397.253C-49.2523 365.01 0.675373 347.731 41.0933 362.806C60.4512 315.838 125.88 314.032 147.766 359.889C194.85 341.049 257.833 355.892 273.651 389.858C321.817 382.375 374.99 397.817 386.752 428.4Z" fill="#DDE1C6"/>
<path opacity="0.4" d="M261.105 490.258C246.477 526.476 160.712 534.744 125.112 503.377C78.6707 534.805 -18.3848 526.587 -42.545 489.692C-99.847 496.332 -153.09 469.137 -141.236 436.093C-132.321 460.373 -88.3853 476.76 -42.545 471.452C-29.935 490.705 5.98114 504.585 48.332 504.585C79.7717 504.585 108.114 482.943 125.564 471.138C138.829 482.825 161.696 504.585 188.251 504.585C223.809 504.585 253.569 490.67 261.105 472.013C312.928 485.036 378.467 468.53 387.987 432.195C400.239 479.006 323.051 505.825 261.105 490.258Z" fill="#DDE1C6"/>
<path opacity="0.4" d="M341.205 471.246C304.925 495.358 255.649 485.657 238.215 451.195C265.381 471.644 304.932 479.343 341.205 471.246Z" fill="#DDE1C6"/>
<path opacity="0.4" d="M180.209 455.641C154.204 486.822 103.435 488.467 74.1719 459.301C107.658 472.868 148.377 471.465 180.209 455.641Z" fill="#DDE1C6"/>
<path opacity="0.4" d="M7.66016 426.448C33.6679 395.269 84.4434 393.624 113.7 422.787C80.2105 409.221 39.4921 410.624 7.66016 426.448Z" fill="#DDE1C6"/>
<path opacity="0.4" d="M254.615 414.2C280.623 383.018 331.398 381.373 360.655 410.539C327.169 396.972 286.45 398.376 254.615 414.2Z" fill="#DDE1C6"/>
<path opacity="0.4" d="M136.779 383.1C159.76 350.5 210.238 345.926 242.177 373.318C207.501 361.725 167.026 365.477 136.779 383.1Z" fill="#DDE1C6"/>
<path opacity="0.4" d="M-51.7832 385.897C-26.1709 354.52 24.5793 352.485 54.2062 381.428C20.5457 368.118 -20.1537 369.83 -51.7832 385.897Z" fill="#DDE1C6"/>
<g opacity="0.4">
<mask id="mask0_525_1012" style="mask-type:luminance" maskUnits="userSpaceOnUse" x="668" y="35" width="865" height="293">
<path d="M668.621 35.5078H1532.11V327.993H668.621V35.5078Z" fill="white"/>
</mask>
<g mask="url(#mask0_525_1012)">
<path d="M1231.59 102.047C1231.59 102.047 1231.48 80.6389 1220.98 65.3273C1203.22 39.4258 1143.02 27.3027 1105.75 42.8298C1083.91 51.9272 1069.37 68.8817 1069.37 68.8817C1069.37 68.8817 1014.93 28.1526 942.262 51.3578C885.918 69.3535 890.465 125.732 890.465 125.732C890.465 125.732 849.538 114.678 827.299 139.152C803.694 165.139 816.179 192.053 816.179 192.053C816.179 192.053 792.939 181 764.632 192.053C742.309 200.772 735.83 220.476 735.83 220.476C735.83 220.476 703.819 217.995 682.762 226.397C664.616 233.636 667.184 248.452 672.658 256.801C679.111 266.638 713.09 272.588 713.09 272.588C713.09 272.588 719.595 292.259 738.866 296.277C761.601 301.011 779.793 286.802 779.793 286.802C779.793 286.802 794.069 309.71 822.246 312.858C857.621 316.802 881.371 285.614 881.371 285.614C881.371 285.614 900.085 315.082 953.637 317.595C1004.17 319.962 1026.92 286.802 1026.92 286.802C1026.92 286.802 1040.56 323.118 1097.25 327.242C1146.25 330.804 1177.01 299.828 1177.01 299.828C1177.01 299.828 1185.64 311.963 1204.3 318.775C1250.79 335.754 1278.09 304.171 1278.09 304.171C1278.09 304.171 1328.62 341.281 1390.78 322.333C1423.12 312.475 1440.81 280.876 1440.81 280.876C1440.81 280.876 1457.28 289.742 1475.68 291.539C1499.95 293.91 1524.7 286.802 1530.26 267.854C1543.62 222.314 1475.17 229.956 1475.17 229.956C1475.17 229.956 1486.5 205.86 1466.59 196.791C1433.74 181.833 1401.39 203.107 1401.39 203.107C1401.39 203.107 1405.43 176.262 1375.62 166.001C1345.8 155.732 1296.78 168.368 1296.78 168.368C1296.78 168.368 1311.64 141.958 1302.85 126.919C1284.15 94.9378 1231.59 102.047 1231.59 102.047Z" fill="#F2F5DF"/>
</g>
</g>
<g opacity="0.4">
<mask id="mask1_525_1012" style="mask-type:luminance" maskUnits="userSpaceOnUse" x="668" y="215" width="864" height="115">
<path d="M668.621 215.062H1531.01V329.027H668.621V215.062Z" fill="white"/>
</mask>
<g mask="url(#mask1_525_1012)">
<path d="M1434.93 256.525C1434.93 256.525 1430.41 272.914 1416.74 281.003C1404.89 288.01 1385.09 286.542 1372.26 281.003C1358.94 275.24 1350.03 266.789 1350.03 266.789C1350.03 266.789 1331.09 279.417 1313.64 279.425C1303.37 279.425 1293.67 274.496 1288.37 269.156C1279.94 260.653 1279.28 250.994 1279.28 250.994C1279.28 250.994 1253.22 275.684 1220.66 279.425C1218.2 279.706 1200.61 281.532 1185.28 273.894C1169.43 265.992 1161.29 242.954 1161.29 242.954C1161.29 242.954 1138.58 265.492 1088.42 263.174C1051.19 261.462 1000.32 239.469 1045.7 220.046C1059.05 214.332 1009.33 215.535 1009.33 215.535C1009.33 215.535 968.98 218.594 981.324 222.124C1003.94 228.582 987.684 252.975 965.954 260.474C923.98 274.96 862.418 263.174 880.579 243.869C886.501 237.578 858.814 246.264 858.814 246.264C858.814 246.264 844.991 251.271 852.366 252.068C871.861 254.186 867.355 279.844 845.678 287.319C840.996 288.929 818.897 294.863 802.215 286.526C788.074 279.458 778.965 266.789 778.965 266.789C778.965 266.789 774.793 273.817 766.84 277.843C758.069 282.276 743.272 281.332 736.517 275.472C729.371 269.27 728.434 258.103 728.434 258.103C728.434 258.103 720.012 261.149 711.257 262.841C697.788 265.443 685.168 261.686 682.105 260.116C676.699 257.338 669.647 252.177 668.621 243.962C668.621 252.381 670.663 254.772 672.84 258.103C679.293 267.944 713.267 273.894 713.267 273.894C713.267 273.894 719.783 293.565 739.043 297.579C761.788 302.317 779.98 288.108 779.98 288.108C779.98 288.108 794.257 311.016 822.428 314.164C857.809 318.108 881.559 286.92 881.559 286.92C881.559 286.92 900.272 316.388 953.824 318.902C1004.36 321.264 1027.11 288.108 1027.11 288.108C1027.11 288.108 1040.75 324.428 1097.44 328.548C1146.43 332.115 1177.2 301.138 1177.2 301.138C1177.2 301.138 1185.82 313.269 1204.48 320.085C1250.98 337.064 1278.27 305.477 1278.27 305.477C1278.27 305.477 1328.81 342.587 1390.96 323.639C1423.3 313.781 1441 282.182 1441 282.182C1441 282.182 1457.45 291.048 1475.86 292.841C1500.14 295.212 1523.91 289.104 1529.46 270.153C1529.64 269.555 1530.72 266.143 1530.88 265.569C1496.72 307.897 1434.93 256.525 1434.93 256.525Z" fill="#DDE1C6"/>
</g>
</g>
<g opacity="0.4">
<mask id="mask2_525_1012" style="mask-type:luminance" maskUnits="userSpaceOnUse" x="671" y="35" width="862" height="227">
<path d="M671.012 35.5078H1532.11V261.769H671.012V35.5078Z" fill="white"/>
</mask>
<g mask="url(#mask2_525_1012)">
<path d="M698.262 227.492C720.934 229.216 743.595 241.36 743.595 241.36C743.595 241.36 751.215 216.203 768.861 206.621C790.21 195.035 832.538 204.254 832.538 204.254C832.538 204.254 818.762 174.973 827.486 163.192C838.6 148.193 865.892 157.669 865.892 157.669C865.892 157.669 868.694 148.624 880.043 143.46C910.553 129.559 939.533 156.876 939.533 156.876C939.533 156.876 923.382 129.515 930.611 115.626C940.105 97.4112 955.283 89.3914 979.647 86.0282C1055.42 75.5846 1097.74 127.859 1099.86 125.204C1101.45 123.215 1081.49 102.812 1087.24 90.5546C1103.92 55.0269 1169.64 78.9479 1189.32 95.2924C1193.64 98.8712 1208.36 111.088 1206.51 126.082C1204.6 141.573 1188.43 153.911 1184.96 156.392C1189.18 153.525 1212.36 139.222 1238.85 151.353C1267.62 164.526 1257.04 191.615 1257.04 191.615C1257.04 191.615 1283.54 182.615 1305.56 178.983C1317.37 177.039 1352.91 171.187 1368.23 183.721C1382.8 195.657 1380.36 220.831 1380.36 220.831C1380.36 220.831 1442 194.775 1460.2 217.675C1466.86 226.052 1462.23 244.516 1462.23 244.516C1462.23 244.516 1492.07 234.353 1512.32 242.726C1522.37 246.883 1527.92 251.869 1531.73 261.434C1537.51 222.62 1475.36 229.517 1475.36 229.517C1475.36 229.517 1486.69 205.426 1466.77 196.361C1433.92 181.399 1401.57 202.668 1401.57 202.668C1401.57 202.668 1405.62 175.827 1375.8 165.563C1345.99 155.298 1296.97 167.93 1296.97 167.93C1296.97 167.93 1311.83 141.528 1303.03 126.481C1284.33 94.5034 1231.77 101.608 1231.77 101.608C1231.77 101.608 1231.66 80.2086 1221.16 64.893C1203.41 38.9915 1143.21 26.8643 1105.94 42.3914C1084.1 51.4888 1069.55 68.4515 1069.55 68.4515C1069.55 68.4515 1015.12 27.7183 942.449 50.9235C886.105 68.9191 890.652 125.297 890.652 125.297C890.652 125.297 849.72 114.244 827.486 138.722C803.876 164.701 816.366 191.615 816.366 191.615C816.366 191.615 793.116 180.561 764.819 191.615C742.491 200.342 736.017 220.046 736.017 220.046C736.017 220.046 704.001 217.565 682.949 225.963C677.934 227.968 673.902 231.535 671.684 234.398C678.652 228.667 688.866 226.776 698.262 227.492Z" fill="#DDE1C6"/>
</g>
</g>
<path opacity="0.4" d="M1084.78 187.18C1084.05 187.746 1082.69 188.628 1081.24 189.588C1079.77 190.576 1077.77 191.691 1075.44 192.988C1073.1 194.273 1070.39 195.603 1067.4 196.961C1060.93 199.91 1053.46 202.602 1045.82 204.761C1041.33 206.006 1037.14 206.994 1033.01 207.795C1028.44 208.678 1023.89 209.336 1019.47 209.768C1015.33 210.199 1010.85 210.43 1005.83 210.471C1000.8 210.471 996.471 210.28 992.424 209.869C991.674 209.82 990.981 209.735 990.294 209.654L988.877 209.495C988.09 209.406 987.314 209.324 986.314 209.153L982.07 208.515C981.492 208.417 980.903 208.32 980.283 208.198C976.783 207.547 973.262 206.677 969.783 205.628C966.913 204.765 964.07 203.773 961.096 202.598C958.715 201.65 956.419 200.674 954.502 199.808L936.393 191.089L944.064 200.625L945.242 202.077C945.872 202.797 946.814 203.887 948.122 205.119C949.971 206.905 951.752 208.413 953.715 209.869C956.346 211.821 959.262 213.631 962.372 215.258C966.101 217.185 970.143 218.857 974.393 220.227C975.158 220.467 975.945 220.695 976.736 220.923L981.325 222.123C982.299 222.379 983.465 222.611 984.643 222.842L985.965 223.103C987.023 223.314 988.09 223.521 989.054 223.66C994.377 224.55 999.887 225.075 1005.4 225.221C1006.63 225.262 1007.88 225.282 1009.15 225.282C1013.38 225.282 1017.82 225.055 1022.43 224.607C1028.24 223.997 1033.78 223.074 1038.89 221.85C1044.15 220.61 1049.17 219.089 1053.8 217.34C1062.46 214.095 1070.36 209.971 1076.61 205.416C1083.32 200.589 1086.99 196.188 1088.5 194.09C1089.08 193.354 1089.6 192.606 1089.98 191.939C1090.38 191.288 1090.71 190.731 1090.93 190.271L1096.82 178.453L1084.78 187.18Z" fill="#DDE1C6"/>
<path opacity="0.4" d="M1229.36 228.289C1229.36 228.289 1229.75 228.505 1230.47 228.911C1231.15 229.318 1232.22 229.879 1233.53 230.591C1234.86 231.29 1236.44 232.136 1238.29 233.023C1240.12 233.926 1242.23 234.869 1244.5 235.845C1246.79 236.793 1249.27 237.761 1251.93 238.643C1253.28 239.054 1254.6 239.554 1256.04 239.908C1256.75 240.103 1257.46 240.302 1258.16 240.514C1258.89 240.685 1259.62 240.86 1260.36 241.034C1263.29 241.758 1266.37 242.259 1269.5 242.718C1271.06 242.942 1272.67 243.003 1274.25 243.218C1275.93 243.287 1277.62 243.365 1279.31 243.438C1280.29 243.527 1280.91 243.45 1281.69 243.446L1283.94 243.414C1284.67 243.43 1285.46 243.361 1286.26 243.3C1287.05 243.251 1287.85 243.198 1288.64 243.145C1291.79 242.856 1294.9 242.454 1297.89 241.888C1303.9 240.778 1309.48 239.156 1314.24 237.513C1319.02 235.87 1322.99 234.214 1325.78 232.994C1328.58 231.787 1330.2 231.002 1330.2 231.002C1330.2 231.002 1329.47 232.376 1327.66 234.556C1326.75 235.646 1325.56 236.919 1324.06 238.31C1322.56 239.692 1320.74 241.181 1318.59 242.69C1316.43 244.182 1313.94 245.699 1311.11 247.11C1308.28 248.505 1305.12 249.819 1301.66 250.896C1299.91 251.401 1298.17 252.003 1296.29 252.348C1294.42 252.714 1292.56 253.223 1290.6 253.398C1289.62 253.52 1288.64 253.637 1287.65 253.755C1283.79 254.699 1277.8 257.814 1286.42 267.005L1279.78 263.845C1278.76 263.853 1277.7 272.479 1276.87 272.402C1274.95 272.276 1278.41 260.352 1276.5 260.234C1274.53 259.974 1255.24 269.242 1253.32 268.888C1268.88 260.356 1260.36 251.767 1257.02 250.482C1256.18 250.164 1254.26 249.188 1253.44 248.879C1252.64 248.534 1251.86 248.168 1251.1 247.81C1249.55 247.114 1248.13 246.333 1246.77 245.565C1245.39 244.796 1244.16 243.958 1242.94 243.174C1241.79 242.328 1240.67 241.543 1239.67 240.717C1237.68 239.07 1236 237.488 1234.66 235.992C1233.3 234.515 1232.27 233.153 1231.49 232.01C1230.69 230.871 1230.2 229.92 1229.84 229.285C1229.51 228.647 1229.36 228.289 1229.36 228.289Z" fill="#DDE1C6"/>
<path opacity="0.4" d="M821.059 242.371C821.059 242.371 822.507 242.676 825.038 243.209C827.548 243.729 831.1 244.462 835.319 245.027C839.527 245.592 844.397 246.023 849.465 245.836C850.095 245.799 850.73 245.767 851.371 245.734C851.986 245.669 852.6 245.608 853.22 245.543C853.923 245.47 854.632 245.397 855.345 245.324L856.413 245.214L857.309 245.039C858.517 244.779 859.689 244.645 860.944 244.319C862.189 243.969 863.47 243.717 864.694 243.307C865.897 242.884 867.158 242.538 868.335 242.062C869.486 241.542 870.715 241.131 871.84 240.586C872.944 240.008 874.1 239.512 875.184 238.927C876.236 238.313 877.324 237.755 878.34 237.133C880.371 235.885 882.293 234.604 884.069 233.323C885.845 232.029 887.47 230.74 888.975 229.528C890.434 228.288 891.819 227.157 892.986 226.104C894.137 225.043 895.204 224.132 896.033 223.351C896.882 222.57 897.543 221.956 898.001 221.541C898.47 221.118 898.715 220.898 898.715 220.898C898.715 220.898 898.626 221.183 898.454 221.724C898.267 222.257 898.022 223.054 897.579 224.026C897.163 225.01 896.626 226.197 895.882 227.515C895.158 228.853 894.251 230.329 893.152 231.911C892.559 232.68 891.934 233.481 891.293 234.315C890.626 235.132 889.85 235.942 889.095 236.796C887.491 238.459 885.663 240.151 883.559 241.773C881.449 243.38 879.074 244.925 876.454 246.3C875.152 246.987 873.746 247.593 872.35 248.211C870.934 248.805 869.418 249.268 867.949 249.789C866.444 250.265 864.855 250.578 863.324 250.964C861.788 251.347 860.038 251.485 858.423 251.733L857.189 251.888L856.105 251.94C855.376 251.969 854.668 251.989 853.96 252.018L852.897 252.054L852.366 252.071L851.866 252.087L851.585 252.083C850.819 252.05 850.059 252.022 849.314 251.989C843.314 251.652 838.001 250.342 833.777 248.866C829.559 247.361 826.376 245.694 824.267 244.449C822.132 243.193 821.059 242.371 821.059 242.371Z" fill="#DDE1C6"/>
<g opacity="0.5">
<path d="M-140.089 84.5317C-149.202 74.611 -147.648 61.1044 -136.372 52.1488C-125.096 43.1906 -104.847 39.3871 -87.8283 43.0248C-87.8683 33.9986 -78.6164 25.2388 -65.5351 21.9274C-52.4539 18.6132 -36.3818 20.9568 -26.8105 27.5715C-24.0273 8.09717 13.3197 -4.04471 42.1376 2.29267C70.9515 8.63276 88.7246 28.5013 90.6253 48.0191C95.6166 40.635 115.111 41.7089 123.037 47.943C130.987 41.3364 145.17 36.3693 156.806 40.1021C168.438 43.8322 174.919 53.1656 171.465 61.2158C197.539 45.3901 247.021 51.5562 261.979 72.4959C274.969 51.306 311.649 36.3367 346.54 40.4447C381.428 44.55 408.077 69.4155 397.907 91.2334C413.863 84.8797 447.8 83.3382 457.208 96.5159C465.881 108.66 439.391 127.21 391.007 129.404C390.392 129.432 367.168 152.704 316.92 157.233C271.994 161.282 229.436 147.112 208.944 127.887C206.576 145.089 174.268 147.979 160.144 139.619C139.828 160.159 97.0222 170.243 60.8331 163.013C43.2038 174.832 14.2102 178.991 -9.58044 173.119C-33.3711 167.244 -50.5492 151.684 -51.2959 135.326C-59.1862 142.155 -70.7341 147.816 -83.9391 148.436C-97.1481 149.055 -111.403 143.237 -112.973 134.796C-128.454 140.336 -147.333 142.653 -164.215 139.184C-181.094 135.717 -196.563 125.791 -195.984 114.421C-194.607 87.4543 -140.089 84.5317 -140.089 84.5317Z" fill="#DDE1C6"/>
<path d="M457.492 96.9726C452.361 104.071 436.337 110.009 420.959 112.211C402.016 114.924 385.07 112.551 385.07 112.551C385.07 112.551 359.151 126.12 311.797 130.53C244.802 136.77 192.169 89.8224 192.169 89.8224C192.169 89.8224 189.178 104.071 172.731 106.105C156.284 108.141 144.32 94.9118 144.32 94.9118C115.906 132.566 65.0663 113.231 65.0663 113.231C15.7201 151.902 -41.1051 111.194 -41.1051 111.194C-72.5065 140.706 -94.9355 114.247 -94.9355 114.247C-94.9355 114.247 -117.368 118.317 -121.853 106.105C-126.341 93.895 -93.4421 86.7692 -93.4421 86.7692C-148.77 66.4168 -87.8279 43.0248 -87.8279 43.0248C-87.8319 42.3886 -87.7759 41.7524 -87.6881 41.1189C-86.5341 32.7887 -77.6935 25.005 -65.5386 21.9274C-52.4534 18.6132 -36.3813 20.9568 -26.81 27.5715C-24.0268 8.09717 13.3202 -4.04471 42.1341 2.29267C70.952 8.63276 88.7251 28.5013 90.6258 48.0191C95.6131 40.635 115.111 41.7089 123.033 47.943C130.984 41.3364 145.167 36.3693 156.803 40.1021C168.438 43.8322 174.915 53.1656 171.461 61.2158C197.54 45.3901 247.022 51.5562 261.98 72.4959C274.969 51.306 311.645 36.3367 346.537 40.4447C381.428 44.55 408.074 69.4155 397.907 91.2334C413.86 84.8797 447.801 83.3382 457.208 96.5159C457.32 96.6654 457.396 96.8204 457.492 96.9726Z" fill="#F2F5DF"/>
</g>
</g>
<g opacity="0.5">
<path opacity="0.4" d="M935.647 1063.71C919.842 1029.74 856.842 1014.9 809.755 1033.74C787.876 987.891 722.441 989.7 703.083 1036.67C662.307 1021.45 611.848 1039.19 604.686 1071.96C556.909 1072.09 519.035 1093.5 519.117 1119.23C519.215 1148.05 567.738 1169.51 619.453 1163.55C643.683 1200.51 740.732 1208.61 787.12 1177.23C822.6 1208.52 908.402 1200.43 923.113 1164.12C979.273 1178.23 1051.15 1157.64 1051.15 1115.17C1051.15 1076.16 990.178 1055.23 935.647 1063.71Z" fill="#F2F5DF"/>
<path opacity="0.4" d="M604.274 1071.97C601.405 1076.15 599.349 1080.71 598.267 1085.62C564.473 1085.7 535.473 1095.89 520.506 1110.66C527.703 1088.98 562.116 1072.19 604.274 1071.97Z" fill="#DDE1C6"/>
<path opacity="0.4" d="M1048.75 1102.25C1027.82 1080.74 982.608 1070.86 940.998 1077.23C924.632 1042.66 859.399 1027.57 810.636 1046.74C787.963 1000.1 720.205 1001.95 700.161 1049.71C664.583 1036.68 621.853 1047.44 604.893 1071.1C612.748 1038.86 662.675 1021.58 703.093 1036.66C722.451 989.689 787.88 987.884 809.766 1033.74C856.85 1014.9 919.833 1029.74 935.651 1063.71C983.817 1056.23 1036.99 1071.67 1048.75 1102.25Z" fill="#DDE1C6"/>
<path opacity="0.4" d="M604.892 1071.1C604.804 1071.39 604.74 1071.66 604.677 1071.96H604.275C604.468 1071.66 604.677 1071.39 604.892 1071.1Z" fill="#F2F5DF"/>
<path opacity="0.4" d="M923.105 1164.11C908.477 1200.33 822.712 1208.6 787.112 1177.23C740.671 1208.66 643.615 1200.44 619.455 1163.54C562.153 1170.18 508.91 1142.99 520.764 1109.94C529.679 1134.22 573.615 1150.61 619.455 1145.3C632.065 1164.56 667.981 1178.44 710.332 1178.44C741.772 1178.44 770.114 1156.79 787.564 1144.99C800.829 1156.68 823.696 1178.44 850.251 1178.44C885.809 1178.44 915.569 1164.52 923.105 1145.86C974.928 1158.89 1040.47 1142.38 1049.99 1106.05C1062.24 1152.86 985.051 1179.68 923.105 1164.11Z" fill="#DDE1C6"/>
<path opacity="0.4" d="M1003.21 1145.1C966.925 1169.21 917.649 1159.51 900.215 1125.05C927.381 1145.5 966.932 1153.19 1003.21 1145.1Z" fill="#DDE1C6"/>
<path opacity="0.4" d="M655.978 1132.92C629.977 1164.1 579.201 1165.74 549.941 1136.58C583.431 1150.14 624.15 1148.75 655.978 1132.92Z" fill="#DDE1C6"/>
<path opacity="0.4" d="M842.209 1129.49C816.204 1160.67 765.435 1162.32 736.172 1133.15C769.658 1146.72 810.377 1145.32 842.209 1129.49Z" fill="#DDE1C6"/>
<path opacity="0.4" d="M669.66 1100.3C695.668 1069.12 746.443 1067.48 775.7 1096.64C742.211 1083.07 701.492 1084.48 669.66 1100.3Z" fill="#DDE1C6"/>
<path opacity="0.4" d="M916.615 1088.05C942.623 1056.87 993.398 1055.22 1022.66 1084.39C989.169 1070.82 948.45 1072.23 916.615 1088.05Z" fill="#DDE1C6"/>
<path opacity="0.4" d="M798.779 1056.95C821.76 1024.35 872.238 1019.78 904.177 1047.17C869.501 1035.58 829.026 1039.33 798.779 1056.95Z" fill="#DDE1C6"/>
<path opacity="0.4" d="M610.217 1059.75C635.829 1028.37 686.579 1026.34 716.206 1055.28C682.546 1041.97 641.846 1043.68 610.217 1059.75Z" fill="#DDE1C6"/>
<g opacity="0.5">
<path d="M1119.49 770.824C1114.36 777.923 1098.34 783.861 1082.96 786.063C1064.02 788.776 1047.07 786.403 1047.07 786.403C1047.07 786.403 1021.15 799.972 973.797 804.382C906.802 810.621 854.169 763.674 854.169 763.674C854.169 763.674 851.178 777.923 834.731 779.956C818.284 781.993 806.32 768.763 806.32 768.763C777.906 806.418 727.066 787.082 727.066 787.082C677.72 825.754 620.895 785.046 620.895 785.046C589.493 814.558 567.065 788.099 567.065 788.099C567.065 788.099 544.632 792.169 540.147 779.956C535.659 767.747 568.558 760.621 568.558 760.621C513.23 740.268 574.172 716.876 574.172 716.876C574.168 716.24 574.224 715.604 574.312 714.97C575.466 706.64 584.307 698.857 596.461 695.779C609.547 692.465 625.619 694.808 635.19 701.423C637.973 681.949 675.32 669.807 704.134 676.144C732.952 682.484 750.725 702.353 752.626 721.871C757.613 714.487 777.111 715.56 785.033 721.795C792.984 715.188 807.167 710.221 818.803 713.954C830.438 717.684 836.915 727.017 833.461 735.067C859.54 719.242 909.022 725.408 923.98 746.347C936.969 725.158 973.645 710.188 1008.54 714.296C1043.43 718.402 1070.07 743.267 1059.91 765.085C1075.86 758.731 1109.8 757.19 1119.21 770.367C1119.32 770.517 1119.4 770.672 1119.49 770.824Z" fill="#F2F5DF"/>
</g>
</g>
<g opacity="0.5">
<path opacity="0.4" d="M249.647 1817.21C233.842 1783.24 170.842 1768.4 123.755 1787.24C101.876 1741.39 36.4406 1743.2 17.0827 1790.17C-23.6927 1774.95 -74.1518 1792.69 -81.3142 1825.46C-129.091 1825.59 -166.965 1847 -166.883 1872.73C-166.785 1901.55 -118.262 1923.01 -66.5466 1917.05C-42.3167 1954.01 54.7324 1962.11 101.12 1930.73C136.6 1962.02 222.402 1953.93 237.113 1917.62C293.273 1931.73 365.149 1911.14 365.149 1868.67C365.149 1829.66 304.178 1808.73 249.647 1817.21Z" fill="#F2F5DF"/>
<path opacity="0.4" d="M249.647 1817.21C233.842 1783.24 170.842 1768.4 123.755 1787.24C101.876 1741.39 36.4406 1743.2 17.0827 1790.17C-23.6927 1774.95 -74.1518 1792.69 -81.3142 1825.46C-129.091 1825.59 -166.965 1847 -166.883 1872.73C-166.785 1901.55 -118.262 1923.01 -66.5466 1917.05C-42.3167 1954.01 54.7324 1962.11 101.12 1930.73C136.6 1962.02 222.402 1953.93 237.113 1917.62C293.273 1931.73 365.149 1911.14 365.149 1868.67C365.149 1829.66 304.178 1808.73 249.647 1817.21Z" fill="#F2F5DF"/>
<path opacity="0.4" d="M362.752 1855.75C341.822 1834.24 296.608 1824.36 254.998 1830.73C238.632 1796.16 173.399 1781.07 124.636 1800.24C101.963 1753.6 34.2051 1755.45 14.1606 1803.21C-21.417 1790.18 -64.1475 1800.94 -81.1074 1824.6C-73.2523 1792.36 -23.3246 1775.08 17.0933 1790.16C36.4512 1743.19 101.88 1741.38 123.766 1787.24C170.85 1768.4 233.833 1783.24 249.651 1817.21C297.817 1809.73 350.99 1825.17 362.752 1855.75Z" fill="#DDE1C6"/>
<path opacity="0.4" d="M237.105 1917.61C222.477 1953.83 136.712 1962.1 101.112 1930.73C54.6707 1962.16 -42.3848 1953.94 -66.545 1917.04C-123.847 1923.68 -177.09 1896.49 -165.236 1863.44C-156.321 1887.72 -112.385 1904.11 -66.545 1898.8C-53.935 1918.06 -18.0189 1931.94 24.332 1931.94C55.7717 1931.94 84.1142 1910.29 101.564 1898.49C114.829 1910.18 137.696 1931.94 164.251 1931.94C199.809 1931.94 229.569 1918.02 237.105 1899.36C288.928 1912.39 354.467 1895.88 363.987 1859.55C376.239 1906.36 299.051 1933.18 237.105 1917.61Z" fill="#DDE1C6"/>
<path opacity="0.4" d="M317.205 1898.6C280.925 1922.71 231.649 1913.01 214.215 1878.55C241.381 1899 280.932 1906.69 317.205 1898.6Z" fill="#DDE1C6"/>
<path opacity="0.4" d="M156.209 1882.99C130.204 1914.17 79.435 1915.82 50.1719 1886.65C83.6584 1900.22 124.377 1898.82 156.209 1882.99Z" fill="#DDE1C6"/>
<path opacity="0.4" d="M-16.3398 1853.8C9.66795 1822.62 60.4434 1820.98 89.7002 1850.14C56.2105 1836.57 15.4921 1837.98 -16.3398 1853.8Z" fill="#DDE1C6"/>
<path opacity="0.4" d="M230.615 1841.55C256.623 1810.37 307.398 1808.72 336.655 1837.89C303.169 1824.32 262.45 1825.73 230.615 1841.55Z" fill="#DDE1C6"/>
<path opacity="0.4" d="M112.779 1810.45C135.76 1777.85 186.238 1773.28 218.177 1800.67C183.501 1789.08 143.026 1792.83 112.779 1810.45Z" fill="#DDE1C6"/>
<path opacity="0.4" d="M-75.7832 1813.25C-50.1709 1781.87 0.5793 1779.84 30.2062 1808.78C-3.45427 1795.47 -44.1537 1797.18 -75.7832 1813.25Z" fill="#DDE1C6"/>
<g opacity="0.4">
<mask id="mask3_525_1012" style="mask-type:luminance" maskUnits="userSpaceOnUse" x="644" y="1462" width="865" height="294">
<path d="M644.621 1462.85H1508.11V1755.34H644.621V1462.85Z" fill="white"/>
</mask>
<g mask="url(#mask3_525_1012)">
<path d="M1207.59 1529.39C1207.59 1529.39 1207.48 1507.98 1196.98 1492.67C1179.22 1466.77 1119.02 1454.65 1081.75 1470.17C1059.91 1479.27 1045.37 1496.23 1045.37 1496.23C1045.37 1496.23 990.929 1455.5 918.262 1478.7C861.918 1496.7 866.465 1553.08 866.465 1553.08C866.465 1553.08 825.538 1542.02 803.299 1566.5C779.694 1592.48 792.179 1619.4 792.179 1619.4C792.179 1619.4 768.939 1608.34 740.632 1619.4C718.309 1628.12 711.83 1647.82 711.83 1647.82C711.83 1647.82 679.819 1645.34 658.762 1653.74C640.616 1660.98 643.184 1675.8 648.658 1684.14C655.111 1693.98 689.09 1699.93 689.09 1699.93C689.09 1699.93 695.595 1719.6 714.866 1723.62C737.601 1728.35 755.793 1714.15 755.793 1714.15C755.793 1714.15 770.069 1737.05 798.246 1740.2C833.621 1744.15 857.371 1712.96 857.371 1712.96C857.371 1712.96 876.085 1742.43 929.637 1744.94C980.174 1747.31 1002.92 1714.15 1002.92 1714.15C1002.92 1714.15 1016.56 1750.46 1073.25 1754.59C1122.25 1758.15 1153.01 1727.17 1153.01 1727.17C1153.01 1727.17 1161.64 1739.31 1180.3 1746.12C1226.79 1763.1 1254.09 1731.51 1254.09 1731.51C1254.09 1731.51 1304.62 1768.62 1366.78 1749.68C1399.12 1739.82 1416.81 1708.22 1416.81 1708.22C1416.81 1708.22 1433.28 1717.09 1451.68 1718.88C1475.95 1721.25 1500.7 1714.15 1506.26 1695.2C1519.62 1649.66 1451.17 1657.3 1451.17 1657.3C1451.17 1657.3 1462.5 1633.2 1442.59 1624.13C1409.74 1609.18 1377.39 1630.45 1377.39 1630.45C1377.39 1630.45 1381.43 1603.61 1351.62 1593.34C1321.8 1583.08 1272.78 1595.71 1272.78 1595.71C1272.78 1595.71 1287.64 1569.3 1278.85 1554.26C1260.15 1522.28 1207.59 1529.39 1207.59 1529.39Z" fill="#F2F5DF"/>
</g>
</g>
<g opacity="0.4">
<path d="M674.262 1654.84C696.934 1656.56 719.595 1668.7 719.595 1668.7C719.595 1668.7 727.215 1643.55 744.861 1633.96C766.21 1622.38 808.538 1631.6 808.538 1631.6C808.538 1631.6 794.762 1602.32 803.486 1590.54C814.6 1575.54 841.892 1585.01 841.892 1585.01C841.892 1585.01 844.694 1575.97 856.043 1570.8C886.553 1556.9 915.533 1584.22 915.533 1584.22C915.533 1584.22 899.382 1556.86 906.611 1542.97C916.105 1524.75 931.283 1516.74 955.647 1513.37C1031.42 1502.93 1073.74 1555.2 1075.86 1552.55C1077.45 1550.56 1057.49 1530.16 1063.24 1517.9C1079.92 1482.37 1145.64 1506.29 1165.32 1522.64C1169.64 1526.21 1184.36 1538.43 1182.51 1553.43C1180.6 1568.92 1164.43 1581.26 1160.96 1583.74C1165.18 1580.87 1188.36 1566.57 1214.85 1578.7C1243.62 1591.87 1233.04 1618.96 1233.04 1618.96C1233.04 1618.96 1259.54 1609.96 1281.56 1606.33C1293.37 1604.38 1328.91 1598.53 1344.23 1611.06C1358.8 1623 1356.36 1648.17 1356.36 1648.17C1356.36 1648.17 1418 1622.12 1436.2 1645.02C1442.86 1653.4 1438.23 1671.86 1438.23 1671.86C1438.23 1671.86 1468.07 1661.7 1488.32 1670.07C1498.37 1674.23 1503.92 1679.21 1507.73 1688.78C1513.51 1649.96 1451.36 1656.86 1451.36 1656.86C1451.36 1656.86 1462.69 1632.77 1442.77 1623.7C1409.92 1608.74 1377.57 1630.01 1377.57 1630.01C1377.57 1630.01 1381.62 1603.17 1351.8 1592.91C1321.99 1582.64 1272.97 1595.27 1272.97 1595.27C1272.97 1595.27 1287.83 1568.87 1279.03 1553.82C1260.33 1521.85 1207.77 1528.95 1207.77 1528.95C1207.77 1528.95 1207.66 1507.55 1197.16 1492.24C1179.41 1466.34 1119.21 1454.21 1081.94 1469.74C1060.1 1478.83 1045.55 1495.8 1045.55 1495.8C1045.55 1495.8 991.116 1455.06 918.449 1478.27C862.105 1496.26 866.652 1552.64 866.652 1552.64C866.652 1552.64 825.72 1541.59 803.486 1566.07C779.876 1592.04 792.366 1618.96 792.366 1618.96C792.366 1618.96 769.116 1607.9 740.819 1618.96C718.491 1627.69 712.017 1647.39 712.017 1647.39C712.017 1647.39 680.001 1644.91 658.949 1653.31C653.934 1655.31 649.902 1658.88 647.684 1661.74C654.652 1656.01 664.866 1654.12 674.262 1654.84Z" fill="#DDE1C6"/>
</g>
<path opacity="0.4" d="M1060.78 1614.52C1060.05 1615.09 1058.69 1615.97 1057.24 1616.93C1055.77 1617.92 1053.77 1619.03 1051.44 1620.33C1049.1 1621.62 1046.39 1622.95 1043.4 1624.3C1036.93 1627.25 1029.46 1629.95 1021.82 1632.11C1017.33 1633.35 1013.14 1634.34 1009.01 1635.14C1004.44 1636.02 999.893 1636.68 995.471 1637.11C991.33 1637.54 986.851 1637.77 981.83 1637.81C976.799 1637.81 972.471 1637.62 968.424 1637.21C967.674 1637.16 966.981 1637.08 966.294 1637L964.877 1636.84C964.09 1636.75 963.314 1636.67 962.314 1636.5L958.07 1635.86C957.492 1635.76 956.903 1635.66 956.283 1635.54C952.783 1634.89 949.262 1634.02 945.783 1632.97C942.913 1632.11 940.07 1631.12 937.096 1629.94C934.715 1628.99 932.419 1628.02 930.502 1627.15L912.393 1618.43L920.064 1627.97L921.242 1629.42C921.872 1630.14 922.814 1631.23 924.122 1632.46C925.971 1634.25 927.752 1635.76 929.715 1637.21C932.346 1639.17 935.262 1640.97 938.372 1642.6C942.101 1644.53 946.143 1646.2 950.393 1647.57C951.158 1647.81 951.945 1648.04 952.736 1648.27L957.325 1649.47C958.299 1649.72 959.465 1649.95 960.643 1650.19L961.965 1650.45C963.023 1650.66 964.09 1650.87 965.054 1651C970.377 1651.89 975.887 1652.42 981.398 1652.57C982.632 1652.61 983.877 1652.63 985.153 1652.63C989.377 1652.63 993.82 1652.4 998.434 1651.95C1004.24 1651.34 1009.78 1650.42 1014.89 1649.19C1020.15 1647.95 1025.17 1646.43 1029.8 1644.68C1038.46 1641.44 1046.36 1637.31 1052.61 1632.76C1059.32 1627.93 1062.99 1623.53 1064.5 1621.43C1065.08 1620.7 1065.6 1619.95 1065.98 1619.28C1066.38 1618.63 1066.71 1618.07 1066.93 1617.62L1072.82 1605.8L1060.78 1614.52Z" fill="#DDE1C6"/>
<path opacity="0.4" d="M1205.36 1655.63C1205.36 1655.63 1205.75 1655.85 1206.47 1656.26C1207.15 1656.66 1208.22 1657.22 1209.53 1657.93C1210.86 1658.63 1212.44 1659.48 1214.29 1660.37C1216.12 1661.27 1218.23 1662.21 1220.5 1663.19C1222.79 1664.14 1225.27 1665.1 1227.93 1665.99C1229.28 1666.4 1230.6 1666.9 1232.04 1667.25C1232.75 1667.45 1233.46 1667.65 1234.16 1667.86C1234.89 1668.03 1235.62 1668.2 1236.36 1668.38C1239.29 1669.1 1242.37 1669.6 1245.5 1670.06C1247.06 1670.29 1248.67 1670.35 1250.25 1670.56C1251.93 1670.63 1253.62 1670.71 1255.31 1670.78C1256.29 1670.87 1256.91 1670.79 1257.69 1670.79L1259.94 1670.76C1260.67 1670.77 1261.46 1670.7 1262.26 1670.64C1263.05 1670.59 1263.85 1670.54 1264.64 1670.49C1267.79 1670.2 1270.9 1669.8 1273.89 1669.23C1279.9 1668.12 1285.48 1666.5 1290.24 1664.86C1295.02 1663.21 1298.99 1661.56 1301.78 1660.34C1304.58 1659.13 1306.2 1658.35 1306.2 1658.35C1306.2 1658.35 1305.47 1659.72 1303.66 1661.9C1302.75 1662.99 1301.56 1664.26 1300.06 1665.65C1298.56 1667.04 1296.74 1668.52 1294.59 1670.03C1292.43 1671.53 1289.94 1673.04 1287.11 1674.45C1284.28 1675.85 1281.12 1677.16 1277.66 1678.24C1275.91 1678.74 1274.17 1679.35 1272.29 1679.69C1270.42 1680.06 1268.56 1680.57 1266.6 1680.74C1265.62 1680.86 1264.64 1680.98 1263.65 1681.1C1259.79 1682.04 1253.8 1685.16 1262.42 1694.35L1255.78 1691.19C1254.76 1691.2 1253.7 1699.82 1252.87 1699.75C1250.95 1699.62 1254.41 1687.7 1252.5 1687.58C1250.53 1687.32 1231.24 1696.59 1229.32 1696.23C1244.88 1687.7 1236.36 1679.11 1233.02 1677.83C1232.18 1677.51 1230.26 1676.53 1229.44 1676.22C1228.64 1675.88 1227.86 1675.51 1227.1 1675.15C1225.55 1674.46 1224.13 1673.68 1222.77 1672.91C1221.39 1672.14 1220.16 1671.3 1218.94 1670.52C1217.79 1669.67 1216.67 1668.89 1215.67 1668.06C1213.68 1666.41 1212 1664.83 1210.66 1663.34C1209.3 1661.86 1208.27 1660.5 1207.49 1659.35C1206.69 1658.22 1206.2 1657.26 1205.84 1656.63C1205.51 1655.99 1205.36 1655.63 1205.36 1655.63Z" fill="#DDE1C6"/>
<path opacity="0.4" d="M797.059 1669.71C797.059 1669.71 798.507 1670.02 801.038 1670.55C803.548 1671.07 807.1 1671.81 811.319 1672.37C815.527 1672.94 820.397 1673.37 825.465 1673.18C826.095 1673.14 826.73 1673.11 827.371 1673.08C827.986 1673.01 828.6 1672.95 829.22 1672.89C829.923 1672.81 830.632 1672.74 831.345 1672.67L832.413 1672.56L833.309 1672.38C834.517 1672.12 835.689 1671.99 836.944 1671.66C838.189 1671.31 839.47 1671.06 840.694 1670.65C841.897 1670.23 843.158 1669.88 844.335 1669.41C845.486 1668.89 846.715 1668.47 847.84 1667.93C848.944 1667.35 850.1 1666.86 851.184 1666.27C852.236 1665.66 853.324 1665.1 854.34 1664.48C856.371 1663.23 858.293 1661.95 860.069 1660.67C861.845 1659.37 863.47 1658.08 864.975 1656.87C866.434 1655.63 867.819 1654.5 868.986 1653.45C870.137 1652.39 871.204 1651.48 872.033 1650.69C872.882 1649.91 873.543 1649.3 874.001 1648.88C874.47 1648.46 874.715 1648.24 874.715 1648.24C874.715 1648.24 874.626 1648.53 874.454 1649.07C874.267 1649.6 874.022 1650.4 873.579 1651.37C873.163 1652.35 872.626 1653.54 871.882 1654.86C871.158 1656.2 870.251 1657.67 869.152 1659.26C868.559 1660.02 867.934 1660.82 867.293 1661.66C866.626 1662.48 865.85 1663.29 865.095 1664.14C863.491 1665.8 861.663 1667.49 859.559 1669.12C857.449 1670.72 855.074 1672.27 852.454 1673.64C851.152 1674.33 849.746 1674.94 848.35 1675.55C846.934 1676.15 845.418 1676.61 843.949 1677.13C842.444 1677.61 840.855 1677.92 839.324 1678.31C837.788 1678.69 836.038 1678.83 834.423 1679.08L833.189 1679.23L832.105 1679.28C831.376 1679.31 830.668 1679.33 829.96 1679.36L828.897 1679.4L828.366 1679.41L827.866 1679.43L827.585 1679.43C826.819 1679.39 826.059 1679.37 825.314 1679.33C819.314 1679 814.001 1677.69 809.777 1676.21C805.559 1674.7 802.376 1673.04 800.267 1671.79C798.132 1670.54 797.059 1669.71 797.059 1669.71Z" fill="#DDE1C6"/>
<path d="M433.492 1524.32C428.361 1531.42 412.337 1537.36 396.959 1539.56C378.016 1542.28 361.07 1539.9 361.07 1539.9C361.07 1539.9 335.151 1553.47 287.797 1557.88C220.802 1564.12 168.169 1517.17 168.169 1517.17C168.169 1517.17 165.178 1531.42 148.731 1533.46C132.284 1535.49 120.32 1522.26 120.32 1522.26C91.9058 1559.92 41.0663 1540.58 41.0663 1540.58C-8.27992 1579.25 -65.1051 1538.55 -65.1051 1538.55C-96.5065 1568.06 -118.935 1541.6 -118.935 1541.6C-118.935 1541.6 -141.368 1545.67 -145.853 1533.46C-150.341 1521.25 -117.442 1514.12 -117.442 1514.12C-172.77 1493.77 -111.828 1470.38 -111.828 1470.38C-111.832 1469.74 -111.776 1469.1 -111.688 1468.47C-110.534 1460.14 -101.693 1452.36 -89.5386 1449.28C-76.4534 1445.96 -60.3813 1448.31 -50.81 1454.92C-48.0268 1435.45 -10.6798 1423.31 18.1341 1429.64C46.952 1435.98 64.7251 1455.85 66.6258 1475.37C71.6131 1467.99 91.1112 1469.06 99.0334 1475.29C106.984 1468.69 121.167 1463.72 132.803 1467.45C144.438 1471.18 150.915 1480.52 147.461 1488.57C173.54 1472.74 223.022 1478.91 237.98 1499.85C250.969 1478.66 287.645 1463.69 322.537 1467.8C357.428 1471.9 384.074 1496.77 373.907 1518.58C389.86 1512.23 423.801 1510.69 433.208 1523.87C433.32 1524.02 433.396 1524.17 433.492 1524.32Z" fill="#F2F5DF"/>
</g>
</svg>
