<svg width="332" height="274" viewBox="0 0 332 274" fill="none" xmlns="http://www.w3.org/2000/svg">
<path opacity="0.5" fill-rule="evenodd" clip-rule="evenodd" d="M0 220.441H332L291.579 218.391L68.5428 219.202L0 220.441Z" fill="#5D2CD1"/>
<path fill-rule="evenodd" clip-rule="evenodd" d="M67.8358 219.589H42.2185L42.1484 215.188L67.9044 215.189L67.8358 219.589Z" fill="#F9C734"/>
<path fill-rule="evenodd" clip-rule="evenodd" d="M67.9062 215.17L42.1496 215.168L42.0781 210.719L67.9756 210.721L67.9062 215.17Z" fill="#F9C734"/>
<path fill-rule="evenodd" clip-rule="evenodd" d="M67.9754 210.689L42.0773 210.687L42.0059 206.188L68.0462 206.191L67.9754 210.689Z" fill="#F9C734"/>
<path fill-rule="evenodd" clip-rule="evenodd" d="M66.6619 206.17L40.6209 206.167L40.541 201.617L66.7256 201.622L66.6619 206.17Z" fill="#F9C734"/>
<path fill-rule="evenodd" clip-rule="evenodd" d="M68.1175 201.588L41.9322 201.583L41.8594 196.984L68.1896 196.989L68.1175 201.588Z" fill="#F9C734"/>
<path fill-rule="evenodd" clip-rule="evenodd" d="M68.1903 196.962L41.8594 196.957L41.7852 192.305L68.2632 192.311L68.1903 196.962Z" fill="#F9C734"/>
<path fill-rule="evenodd" clip-rule="evenodd" d="M68.2639 192.288L41.7852 192.282L41.7109 187.578L68.3374 187.586L68.2639 192.288Z" fill="#F9C734"/>
<path fill-rule="evenodd" clip-rule="evenodd" d="M68.3383 187.554L41.7104 187.547L41.6348 182.789L68.4125 182.798L68.3383 187.554Z" fill="#F9C734"/>
<path fill-rule="evenodd" clip-rule="evenodd" d="M70.978 182.773L44.2003 182.764L44.1387 177.953L71.0677 177.963L70.978 182.773Z" fill="#F9C734"/>
<path fill-rule="evenodd" clip-rule="evenodd" d="M71.067 177.938L44.1365 177.929L44.0742 173.062L71.158 173.073L71.067 177.938Z" fill="#F9C734"/>
<path fill-rule="evenodd" clip-rule="evenodd" d="M68.5667 173.043L41.4808 173.032L41.4023 168.109L68.6437 168.121L68.5667 173.043Z" fill="#F9C734"/>
<path fill-rule="evenodd" clip-rule="evenodd" d="M68.6434 168.093L41.4014 168.081L41.3223 163.102L68.7212 163.115L68.6434 168.093Z" fill="#F9C734"/>
<path fill-rule="evenodd" clip-rule="evenodd" d="M65.8063 163.083L38.4052 163.069L38.3086 158.031L65.8686 158.046L65.8063 163.083Z" fill="#F9C734"/>
<path fill-rule="evenodd" clip-rule="evenodd" d="M65.8704 158.01L38.309 157.995L38.2109 152.898L65.9327 152.914L65.8704 158.01Z" fill="#F9C734"/>
<path fill-rule="evenodd" clip-rule="evenodd" d="M65.932 152.892L38.2088 152.876L38.1094 147.719L65.995 147.736L65.932 152.892Z" fill="#F9C734"/>
<path fill-rule="evenodd" clip-rule="evenodd" d="M66.416 140.066L39.8308 147.712L38.0156 142.761L64.7577 135.07L66.416 140.066Z" fill="#F9C734"/>
<path opacity="0.4" fill-rule="evenodd" clip-rule="evenodd" d="M43.1289 206.164L43.2872 219.591H44.075V206.191L43.1289 206.164Z" fill="#D64C90"/>
<path fill-rule="evenodd" clip-rule="evenodd" d="M58.9668 201.594V206.17L62.3801 206.125L61.9396 201.594H58.9668Z" fill="url(#paint0_linear_827_1140)"/>
<path opacity="0.4" fill-rule="evenodd" clip-rule="evenodd" d="M41.418 201.594V206.17L42.6057 206.227L42.4495 201.594H41.418Z" fill="#D64C90"/>
<path opacity="0.4" fill-rule="evenodd" clip-rule="evenodd" d="M43.2313 201.592L43.1641 182.773L44.0373 182.803V201.621L43.2313 201.592Z" fill="#D64C90"/>
<path opacity="0.4" fill-rule="evenodd" clip-rule="evenodd" d="M45.7129 173.039V182.801L46.2535 182.772V173.039H45.7129Z" fill="#D64C90"/>
<path opacity="0.4" fill-rule="evenodd" clip-rule="evenodd" d="M41.9473 163.106L42.116 173.036H43.1294L43.0089 163.078L41.9473 163.106Z" fill="#D64C90"/>
<path opacity="0.4" fill-rule="evenodd" clip-rule="evenodd" d="M40.1406 147.82V163.076L40.9957 163.107L40.8003 147.82H40.1406Z" fill="#D64C90"/>
<path opacity="0.4" d="M41.01 141.918L42.7461 146.891L43.4003 146.702L41.6642 141.729L41.01 141.918Z" fill="#D64C90"/>
<path d="M71.0671 177.859H44.1367V177.998H71.0671V177.859Z" fill="#E52742"/>
<path d="M71.0671 172.992H44.1367V173.131H71.0671V172.992Z" fill="#E52742"/>
<path d="M68.491 168.039H41.5605V168.178H68.491V168.039Z" fill="#E52742"/>
<path d="M66.7253 163.008H39.7949V163.147H66.7253V163.008Z" fill="#E52742"/>
<path d="M65.8693 157.945H38.3086V158.084H65.8693V157.945Z" fill="#E52742"/>
<path d="M65.8693 152.836H38.3086V152.975H65.8693V152.836Z" fill="#E52742"/>
<path d="M65.9962 147.625H38.4355V147.764H65.9962V147.625Z" fill="#E52742"/>
<path d="M68.491 182.734H41.5605V182.873H68.491V182.734Z" fill="#E52742"/>
<path d="M68.491 187.508H41.5605V187.647H68.491V187.508Z" fill="#E52742"/>
<path d="M68.491 192.289H41.5605V192.428H68.491V192.289Z" fill="#E52742"/>
<path d="M68.1902 196.914H41.2598V197.053H68.1902V196.914Z" fill="#E52742"/>
<path d="M66.9292 206.047H42.0059V206.186H66.9292V206.047Z" fill="#E52742"/>
<path d="M67.9747 210.672H42.0059V210.811H67.9747V210.672Z" fill="#E52742"/>
<path d="M67.9747 215.102H42.0059V215.24H67.9747V215.102Z" fill="#E52742"/>
<path d="M68.491 201.547H41.5605V201.686H68.491V201.547Z" fill="#E52742"/>
<path fill-rule="evenodd" clip-rule="evenodd" d="M66.9648 173.25C66.9648 173.25 67.1686 176.92 67.8829 177.181C68.598 177.443 68.6435 173.25 68.6435 173.25H66.9648Z" fill="white"/>
<path fill-rule="evenodd" clip-rule="evenodd" d="M64.5957 206.227C64.5957 206.227 64.6587 207.938 65.3737 208.199C66.0881 208.461 66.2743 206.227 66.2743 206.227H64.5957Z" fill="white"/>
<path fill-rule="evenodd" clip-rule="evenodd" d="M36.0691 220.382L9.2921 220.374L9.23047 215.562L36.1595 215.573L36.0691 220.382Z" fill="#F9C734"/>
<path fill-rule="evenodd" clip-rule="evenodd" d="M36.1607 215.548L9.2303 215.538L9.16797 210.672L36.2517 210.683L36.1607 215.548Z" fill="#F9C734"/>
<path fill-rule="evenodd" clip-rule="evenodd" d="M38.5894 210.653L11.5042 210.641L11.4258 205.719L38.6671 205.731L38.5894 210.653Z" fill="#F9C734"/>
<path fill-rule="evenodd" clip-rule="evenodd" d="M38.6681 205.703L11.4261 205.691L11.3477 200.711L38.7466 200.724L38.6681 205.703Z" fill="#F9C734"/>
<path fill-rule="evenodd" clip-rule="evenodd" d="M37.8128 200.691L10.4118 200.678L10.3145 195.641L37.8751 195.655L37.8128 200.691Z" fill="#F9C734"/>
<path fill-rule="evenodd" clip-rule="evenodd" d="M37.8743 195.619L10.3136 195.605L10.2148 190.508L37.9373 190.524L37.8743 195.619Z" fill="#F9C734"/>
<path fill-rule="evenodd" clip-rule="evenodd" d="M37.9371 190.494L10.214 190.477L10.1152 185.32L38.0009 185.337L37.9371 190.494Z" fill="#F9C734"/>
<path fill-rule="evenodd" clip-rule="evenodd" d="M40.1134 184.461L12.4141 181.537L12.9911 176.344L40.8529 179.287L40.1134 184.461Z" fill="#F9C734"/>
<path opacity="0.4" fill-rule="evenodd" clip-rule="evenodd" d="M10.8066 210.648V220.41L11.3473 220.381V210.648H10.8066Z" fill="#D64C90"/>
<path opacity="0.4" fill-rule="evenodd" clip-rule="evenodd" d="M11.9707 200.715L12.1395 210.646H13.1528L13.0324 200.688L11.9707 200.715Z" fill="#D64C90"/>
<path opacity="0.4" fill-rule="evenodd" clip-rule="evenodd" d="M12.1465 185.43V200.686L13.0016 200.716L12.8062 185.43H12.1465Z" fill="#D64C90"/>
<path opacity="0.4" d="M16.1025 176.684L15.4434 181.867L16.1258 181.939L16.785 176.756L16.1025 176.684Z" fill="#D64C90"/>
<path d="M36.1609 215.469H9.23047V215.608H36.1609V215.469Z" fill="#E52742"/>
<path d="M36.1609 210.602H9.23047V210.741H36.1609V210.602Z" fill="#E52742"/>
<path d="M38.5151 205.648H11.584V205.787H38.5151V205.648Z" fill="#E52742"/>
<path d="M36.9304 200.633H10V200.772H36.9304V200.633Z" fill="#E52742"/>
<path d="M37.8751 195.547H10.3145V195.686H37.8751V195.547Z" fill="#E52742"/>
<path d="M37.8751 190.438H10.3145V190.577H37.8751V190.438Z" fill="#E52742"/>
<path d="M37.6564 185.234H10.0957V185.373H37.6564V185.234Z" fill="#E52742"/>
<path fill-rule="evenodd" clip-rule="evenodd" d="M190.408 89.3578C186.556 87.3926 183.129 89.3578 183.129 89.3578L184.417 98.405C184.417 98.405 188.898 93.8817 195.964 95.4173C195.964 95.4173 192.561 91.7047 190.408 89.3578Z" fill="url(#paint1_radial_827_1140)"/>
<path opacity="0.5" fill-rule="evenodd" clip-rule="evenodd" d="M192.202 125.508C192.202 125.508 191.326 127.439 190.572 128.572C190.572 128.572 192.193 133.846 194.081 135.055C194.081 135.055 195.808 132.307 196.286 130.892C196.286 130.892 193.402 127.527 192.202 125.508Z" fill="#A41184"/>
<path fill-rule="evenodd" clip-rule="evenodd" d="M194.269 116.383C194.269 116.383 194.98 118.173 194.98 118.445C194.98 118.718 192.939 126.632 192.939 126.632L194.98 129.381C194.98 129.381 197.854 121.336 198.021 121.268C198.188 121.199 198.73 121.101 198.73 121.101C198.73 121.101 195.104 117.432 194.269 116.383Z" fill="#FF43D9"/>
<path fill-rule="evenodd" clip-rule="evenodd" d="M193.111 100.047L200.062 105.04L200.435 109.802C200.435 109.802 200.376 108.084 199.75 107.455C199.122 106.827 194.868 105.653 194.701 105.755C194.534 105.857 194.205 107.994 194.205 107.994C194.205 107.994 193.398 101.507 193.111 100.047Z" fill="#FF43D9"/>
<path fill-rule="evenodd" clip-rule="evenodd" d="M142.611 216.555L98.3145 109.446L223.554 67.8438L244.033 177.444L142.611 216.555Z" fill="url(#paint2_linear_827_1140)"/>
<path opacity="0.83" fill-rule="evenodd" clip-rule="evenodd" d="M166.812 104.922C166.812 104.922 179.418 101.219 189.397 104.514C189.397 104.514 192.169 111.423 191.782 113.617C191.782 113.617 187.755 116.174 181.398 114.417L165.598 106.061L166.812 104.922ZM182.279 111.35C182.986 111.362 183.74 111.098 184.481 110.689C180.348 109.192 175.261 107.635 171.423 107.378C174.999 109.175 179.756 111.307 182.279 111.35Z" fill="url(#paint3_linear_827_1140)"/>
<path fill-rule="evenodd" clip-rule="evenodd" d="M142.611 216.549L110.069 207.085L62.4668 104.188L98.3143 109.439L142.611 216.549Z" fill="#8D003A"/>
<path fill-rule="evenodd" clip-rule="evenodd" d="M226.34 67.0625L156.84 73.9442L59.5156 104.19L98.3142 109.441L226.34 67.0625Z" fill="#9BDBFF"/>
<path fill-rule="evenodd" clip-rule="evenodd" d="M105.932 95.9216H114.944L169.218 78.1797H159.369L105.932 95.9216Z" fill="#0A43B9"/>
<path fill-rule="evenodd" clip-rule="evenodd" d="M159.369 78.1797V81.3997L114.944 95.9216H105.932L159.369 78.1797Z" fill="#001BA7"/>
<path fill-rule="evenodd" clip-rule="evenodd" d="M59.5156 104.194L97.0536 108.027L223.554 67.8438L96.3883 109.446L59.5156 104.194Z" fill="#22C6E0"/>
<path opacity="0.83" fill-rule="evenodd" clip-rule="evenodd" d="M142.611 216.549L197.927 189.903L244.033 177.438L142.611 216.549Z" fill="url(#paint4_linear_827_1140)"/>
<path fill-rule="evenodd" clip-rule="evenodd" d="M69.5098 119.414L102.538 125.69L226.196 81.9766L227.566 89.3126L161.042 107.578L107.795 132.365L71.0918 122.833L69.5098 119.414Z" fill="white"/>
<path fill-rule="evenodd" clip-rule="evenodd" d="M226.34 67.0625L227.825 81.4024L102.539 125.692L96.3887 109.441L226.34 67.0625Z" fill="#7DA7D9"/>
<path fill-rule="evenodd" clip-rule="evenodd" d="M102.538 125.69L66.8675 118.912L59.5156 104.188L96.3883 109.439L102.538 125.69Z" fill="#17528E"/>
<path fill-rule="evenodd" clip-rule="evenodd" d="M104.715 124.92L226.195 81.9766L226.479 83.4949L105.931 127.861L104.715 124.92Z" fill="#E6E6E6"/>
<path opacity="0.83" fill-rule="evenodd" clip-rule="evenodd" d="M127.18 162.358L139.242 192.85L151.784 193.449L235.45 160.601L226.736 138.703L127.18 162.358Z" fill="url(#paint5_linear_827_1140)"/>
<path fill-rule="evenodd" clip-rule="evenodd" d="M127.18 162.356L139.242 191.451H151.784L235.45 160.6L230.577 136.718L209.313 135.102L127.18 162.356Z" fill="#9BDBFF"/>
<path opacity="0.5" fill-rule="evenodd" clip-rule="evenodd" d="M209.312 135.102C209.312 135.102 220.189 138.702 218.923 143.367C218.923 143.367 224.692 144.008 230.576 136.719L209.312 135.102Z" fill="url(#paint6_linear_827_1140)"/>
<path fill-rule="evenodd" clip-rule="evenodd" d="M209.312 135.102C209.312 135.102 218.981 135.956 224.615 142.302C224.615 142.302 229.316 140.793 230.576 136.718L209.312 135.102Z" fill="url(#paint7_linear_827_1140)"/>
<path fill-rule="evenodd" clip-rule="evenodd" d="M139.242 191.447L150.594 189.516L151.784 191.447H139.242Z" fill="#6681FF"/>
<path d="M151.579 165.628C151.651 165.818 151.74 166.016 151.811 166.206C152.184 166.008 152.55 165.827 152.919 165.659C153.33 165.488 153.747 165.33 154.167 165.183C154.772 164.973 155.37 164.777 155.98 164.578C156.597 164.471 157.184 164.656 157.748 164.891C158.569 165.291 159.07 165.992 159.511 166.753C159.716 167.153 159.898 167.561 160.054 167.977C160.269 168.548 160.434 169.136 160.521 169.739C160.562 170.034 160.573 170.326 160.602 170.626C160.675 172.566 160.3 174.472 159.847 176.354C159.591 177.346 159.309 178.344 158.843 179.26C158.526 179.869 158.07 180.365 157.451 180.58C157.03 180.726 156.549 180.746 155.979 180.608C155.518 180.459 155.077 180.25 154.635 180.081L156.398 179.304C156.612 179.391 156.843 179.485 157.063 179.584C157.604 178.494 157.914 177.309 158.178 176.114L156.432 176.789C154.676 174.871 152.89 172.465 151.578 170.015C151.206 169.324 150.83 168.621 150.478 167.908L148.75 168.295C149.214 167.931 149.688 167.591 150.174 167.247C150.024 166.923 149.886 166.594 149.761 166.261L151.579 165.628ZM153.392 169.369C154.679 171.788 156.455 174.169 158.201 176.065C158.554 174.474 158.811 172.851 158.768 171.211C158.744 170.923 158.732 170.631 158.695 170.347C158.613 169.758 158.457 169.193 158.251 168.645C158.094 168.229 157.896 167.813 157.69 167.414C157.293 166.691 156.8 166.015 155.984 165.666C155.527 165.49 155.032 165.365 154.535 165.418L154.523 165.422C153.663 165.816 152.803 166.317 152.085 166.823C152.49 167.678 152.945 168.516 153.392 169.369Z" fill="url(#paint8_linear_827_1140)"/>
<path d="M163.766 164.867C163.923 164.839 164.313 164.648 164.362 164.78C164.371 164.803 164.365 164.86 164.332 164.925C164.374 164.924 164.423 164.907 164.485 164.885C164.733 164.799 165.151 164.572 165.649 164.372C165.772 164.329 165.879 164.277 165.99 164.239C166.498 164.062 166.984 163.946 167.672 163.842C168.534 163.716 169.332 164.164 170.099 164.718C170.85 165.264 171.471 166.138 171.816 167.054L171.838 167.114C172.102 167.963 172.488 168.879 172.367 169.634C172.27 170.381 171.824 170.793 171.255 170.991L171.217 171.004C170.364 171.302 169.508 171.627 168.643 171.929C167.543 172.312 166.433 172.672 165.288 172.937C164.351 173.155 163.222 173.279 162.395 172.679C162.182 172.484 162.039 172.252 161.941 171.99C161.771 171.538 161.736 171.038 161.745 170.577C161.785 168.787 161.904 166.983 162.416 165.257C162.87 165.126 163.324 164.993 163.766 164.867ZM163.703 168.939C163.697 169.669 163.533 170.425 163.802 171.139L163.838 171.234L163.847 171.258C164.08 171.878 164.833 172.058 165.461 172.055C166.421 172.042 167.358 171.744 168.297 171.564C168.672 171.447 169.096 171.42 169.479 171.286C169.653 171.226 169.804 171.146 169.955 171.027C170.529 170.584 170.645 170.073 170.371 169.159C170.312 168.964 170.235 168.721 170.141 168.472C169.806 167.58 169.273 166.46 168.669 165.822C167.899 165 167.675 164.85 166.815 164.719C166.343 164.655 165.864 164.755 165.394 164.918C164.998 165.056 164.596 165.25 164.218 165.396C163.91 166.552 163.758 167.75 163.703 168.939Z" fill="url(#paint9_linear_827_1140)"/>
<path d="M172.873 164.061C173.047 163.556 173.258 163.039 173.583 162.602C173.99 162.083 174.56 161.777 175.177 161.562C175.647 161.397 176.164 161.285 176.647 161.156C177.289 161.228 177.837 161.644 178.317 162.029C179.353 162.811 180.002 163.944 180.577 165.063C181.329 166.47 181.865 167.967 182.531 169.403C181.904 169.634 181.273 169.854 180.648 170.085C180.215 169.119 179.856 168.127 179.423 167.162C178.851 165.974 178.282 164.759 177.432 163.724C176.926 163.16 176.334 162.626 175.642 162.275C175.546 162.241 175.471 162.227 175.409 162.248C175.236 162.309 175.165 162.603 174.994 163.08C174.766 163.738 174.541 164.96 174.79 165.883L174.16 166.102C174.779 167.192 175.304 168.328 175.829 169.464C175.202 169.696 174.585 169.911 173.955 170.131C173.626 169.371 173.294 168.599 172.917 167.855C172.106 166.293 171.2 164.699 169.854 163.498C170.482 163.239 171.124 162.974 171.754 162.715C172.162 163.137 172.528 163.588 172.873 164.061Z" fill="url(#paint10_linear_827_1140)"/>
<path d="M185.407 158.938C185.062 159.435 184.706 159.935 184.36 160.433C184.683 160.36 184.992 160.253 185.301 160.145C185.635 160.028 185.781 160.343 185.928 160.586C186.55 161.756 187.024 163.017 187.564 164.229C187.056 164.405 186.55 164.582 186.06 164.767C185.726 164.883 185.625 164.838 185.505 164.556C185.428 164.798 185.356 165.052 185.279 165.294C185.127 165.67 185.027 166.149 184.608 166.336C184.073 166.549 183.337 166.86 182.942 166.998L182.842 167.032C182.504 167.136 182.013 166.984 181.862 166.62C181.703 166.272 181.566 165.944 181.437 165.598C181.364 165.407 181.293 165.217 181.234 165.022C180.975 164.184 180.988 163.251 181.421 162.467C182.038 161.431 182.744 160.446 183.416 159.445C184.08 159.279 184.741 159.102 185.407 158.938ZM182.959 162.953C182.715 163.791 183.025 164.653 183.324 165.45L183.365 165.557C183.521 165.045 183.934 164.282 183.975 163.649C184.087 162.83 183.928 162.145 183.736 161.377C183.456 161.784 183.071 162.47 182.959 162.953Z" fill="url(#paint11_linear_827_1140)"/>
<path d="M185.98 152.461C186.336 153.482 186.716 154.532 187.079 155.496C187.177 155.758 187.24 155.965 187.298 156.119C187.383 156.345 187.448 156.444 187.535 156.414C187.597 156.392 187.673 156.299 187.797 156.108C188.6 155.976 189.408 155.856 190.216 155.736C189.616 156.483 188.792 157.416 187.996 157.976C188.175 158.452 188.342 158.933 188.521 159.409C188.772 160.075 189.039 160.749 189.302 161.411C189.626 162.16 189.853 162.914 190.214 163.651C190.701 164.275 191.606 164.081 192.288 163.924L192.696 163.781C193.228 163.596 193.763 163.383 194.215 163.063L196.124 162.748L196.129 162.761C196.187 162.915 195.652 163.128 195.232 163.275L194.911 163.387L194.281 163.607L192.982 164.059C192.043 164.387 191.107 164.686 190.13 164.878C189.464 165.003 188.548 164.945 188.242 164.245L188.081 163.816C187.541 162.376 187.048 160.919 186.512 159.491C186.395 159.182 186.282 159.141 186.146 159.188C185.998 159.24 185.819 159.395 185.588 159.49C184.751 159.567 183.917 159.655 183.084 159.744C184.12 159.301 185.043 158.67 185.941 158.008C185.315 156.381 184.702 154.751 184.041 153.139L185.98 152.461Z" fill="url(#paint12_linear_827_1140)"/>
<path d="M195.149 152.757C195.194 152.727 195.24 152.699 195.277 152.686C195.511 152.604 195.553 152.899 195.667 153.128C195.127 153.329 194.583 153.519 194.032 153.725C193.987 153.754 193.955 153.779 193.929 153.788C193.731 153.857 193.643 153.659 193.571 153.469L193.518 153.325L195.149 152.757ZM195.774 156.092L196.314 157.64L196.399 157.866C196.663 158.568 196.907 159.29 197.171 159.993C197.56 161.027 197.999 162.046 198.589 162.984C198.983 163.587 199.354 164.239 199.891 164.737C199.381 164.942 198.858 165.151 198.343 165.344L198.319 165.353C198.245 165.379 198.175 165.416 198.1 165.443C198.026 165.469 197.943 165.471 197.907 165.376C197.064 164.323 196.409 163.138 195.852 161.919C195.154 160.21 194.543 158.472 193.832 156.768L195.774 156.092Z" fill="url(#paint13_linear_827_1140)"/>
<path d="M200.41 152.093C200.567 152.065 200.957 151.875 201.007 152.006C201.016 152.03 201.009 152.086 200.978 152.152C201.019 152.151 201.068 152.133 201.129 152.112C201.377 152.025 201.795 151.799 202.293 151.598C202.417 151.556 202.524 151.505 202.635 151.465C203.142 151.289 203.63 151.172 204.317 151.068C205.178 150.943 205.976 151.391 206.744 151.945C207.494 152.491 208.116 153.364 208.46 154.28L208.483 154.34C208.747 155.19 209.133 156.106 209.011 156.861C208.914 157.609 208.469 158.019 207.899 158.218L207.862 158.231C207.009 158.529 206.153 158.854 205.286 159.155C204.187 159.539 203.078 159.898 201.933 160.163C200.994 160.383 199.867 160.505 199.04 159.906C198.827 159.711 198.683 159.479 198.585 159.217C198.415 158.765 198.381 158.265 198.39 157.804C198.43 156.014 198.549 154.21 199.06 152.483C199.515 152.352 199.968 152.22 200.41 152.093ZM200.347 156.165C200.341 156.895 200.179 157.651 200.447 158.365L200.484 158.46L200.493 158.484C200.725 159.104 201.478 159.284 202.106 159.28C203.067 159.269 204.003 158.97 204.942 158.79C205.317 158.673 205.741 158.646 206.124 158.512C206.298 158.452 206.45 158.372 206.6 158.253C207.175 157.81 207.29 157.299 207.017 156.386C206.957 156.19 206.881 155.948 206.787 155.698C206.451 154.806 205.918 153.686 205.315 153.048C204.544 152.226 204.32 152.076 203.46 151.945C202.988 151.881 202.51 151.981 202.039 152.144C201.644 152.282 201.241 152.476 200.863 152.622C200.555 153.779 200.404 154.976 200.347 156.165Z" fill="url(#paint14_linear_827_1140)"/>
<path d="M209.517 151.287C209.69 150.782 209.901 150.265 210.227 149.828C210.633 149.309 211.203 149.003 211.821 148.788C212.29 148.624 212.807 148.511 213.29 148.383C213.933 148.455 214.48 148.87 214.961 149.255C215.996 150.038 216.646 151.171 217.221 152.289C217.973 153.696 218.508 155.193 219.174 156.629C218.547 156.861 217.917 157.08 217.291 157.312C216.859 156.346 216.499 155.354 216.067 154.388C215.495 153.201 214.926 151.985 214.075 150.95C213.569 150.385 212.977 149.852 212.286 149.501C212.188 149.467 212.113 149.453 212.052 149.475C211.879 149.535 211.807 149.829 211.637 150.306C211.409 150.964 211.184 152.187 211.433 153.108L210.802 153.329C211.422 154.419 211.947 155.554 212.472 156.691C211.845 156.922 211.227 157.137 210.597 157.357C210.269 156.596 209.937 155.825 209.56 155.081C208.749 153.52 207.842 151.925 206.496 150.725C207.125 150.465 207.766 150.201 208.397 149.941C208.806 150.364 209.172 150.815 209.517 151.287Z" fill="url(#paint15_linear_827_1140)"/>
<path fill-rule="evenodd" clip-rule="evenodd" d="M91.9668 108.813L97.0013 111.06L102.539 107.438L91.9668 108.813Z" fill="#22C6E0"/>
<path fill-rule="evenodd" clip-rule="evenodd" d="M189.357 120.263C187.357 115.269 181.531 112.781 176.343 114.706C172.178 116.252 169.693 120.174 169.91 124.246C167.234 121.087 162.658 119.785 158.492 121.33C153.305 123.255 150.72 128.865 152.719 133.859C153.354 135.444 154.374 136.775 155.636 137.794C162.697 143.856 177.787 143.923 177.787 143.923C177.787 143.923 190.256 133.191 190.03 123.637C190.018 122.514 189.801 121.374 189.357 120.263Z" fill="url(#paint16_linear_827_1140)"/>
<path d="M143.114 174.63C143.123 173.414 144.169 172.486 145.366 172.068C146.131 171.8 147.081 171.63 147.095 172.71C147.102 173.215 146.692 173.792 146.416 174.204C145.806 175.109 144.975 175.82 144.909 176.94C144.866 177.676 145.126 178.384 145.399 179.066C145.543 179.425 146.035 179.956 145.751 179.248C144.742 176.728 146.816 176.134 147.487 174.039C147.741 173.249 147.678 172.42 147.241 171.692C145.932 169.507 142.624 172.028 142.609 173.808C142.607 174.034 143.112 174.837 143.114 174.63Z" fill="#8D003A"/>
<path d="M141.968 173.871C141.112 172.905 139.771 173.117 139.36 174.346C139.067 175.223 139.36 176.258 139.713 177.083C140.185 178.181 140.944 179.162 142.096 179.746C142.88 180.143 145.908 181.302 146.701 180.478C146.909 180.261 146.277 179.455 146.259 179.473C145.438 180.326 142.35 179.126 141.519 178.634C140.318 177.923 139.322 176.451 139.913 175.135C140.354 174.152 141.46 173.92 142.225 174.784C142.354 174.928 142.13 174.055 141.968 173.871Z" fill="#8D003A"/>
<path d="M223.41 146.107C222.311 144.726 217.926 144.187 218.236 146.655C218.629 149.77 223.376 149.023 224.197 151.732C224.265 151.955 224.826 152.81 224.63 152.163C224.125 150.497 223.417 149.342 221.561 148.726C220.508 148.377 217.609 147.325 219.592 146.214C220.745 145.569 222.785 145.919 223.549 146.881C223.851 147.26 223.531 146.26 223.41 146.107Z" fill="#8D003A"/>
<path d="M224.426 146.598C224.548 144.777 227.488 145.273 227.508 146.894C227.514 147.47 227.018 148.038 226.819 148.604C226.545 149.379 226.401 150.212 226.032 150.958C225.755 151.518 224.847 152.781 224.019 152.601C223.909 152.578 224.108 153.535 224.38 153.594C225.744 153.891 226.61 151.747 226.882 150.918C227.108 150.23 227.237 149.46 227.602 148.816C227.915 148.265 228.083 148.322 228.092 147.801C228.107 146.97 227.27 145.644 226.658 145.06C225.597 144.049 224.022 144.258 223.922 145.776C223.907 146.001 224.412 146.815 224.426 146.598Z" fill="#8D003A"/>
<path fill-rule="evenodd" clip-rule="evenodd" d="M156.664 106.169L158.119 108.94L166.362 106.118L165.598 103.398L156.664 106.169Z" fill="url(#paint17_radial_827_1140)"/>
<path opacity="0.83" fill-rule="evenodd" clip-rule="evenodd" d="M155.348 109.444C155.348 109.444 145.179 117.916 142.928 128.268C142.928 128.268 147.882 134.651 150.131 135.609C150.131 135.609 154.659 133.706 156.412 127.313L157.057 109.086L155.348 109.444ZM153.086 126.261C152.721 126.865 152.072 127.347 151.298 127.733C152.107 123.368 153.369 118.162 155.177 114.773C154.943 118.843 154.391 124.107 153.086 126.261Z" fill="url(#paint18_linear_827_1140)"/>
<path fill-rule="evenodd" clip-rule="evenodd" d="M150.894 129.334C150.894 129.334 155.902 127.65 157.405 125.078L158.119 108.943L156.663 106.172C156.663 106.172 156.663 117.753 154.162 121.058C152.443 123.33 145.123 123.671 145.123 123.671L150.894 129.334Z" fill="white"/>
<path fill-rule="evenodd" clip-rule="evenodd" d="M156.664 106.172C156.664 106.172 145.418 113.672 142.928 122.836C142.928 122.836 148.407 128.487 150.894 129.334C150.894 129.334 152.905 113.506 158.119 108.943L156.664 106.172Z" fill="url(#paint19_radial_827_1140)"/>
<path fill-rule="evenodd" clip-rule="evenodd" d="M190.805 108.036C190.805 108.036 187.098 111.529 183.902 111.749L167.35 105.871L165.141 103.548C165.141 103.548 176.815 108.194 181.151 107.437C184.131 106.917 187.41 100.961 187.41 100.961L190.805 108.036Z" fill="white"/>
<path fill-rule="evenodd" clip-rule="evenodd" d="M165.141 103.546C165.141 103.546 177.173 99.3566 187.41 100.959C187.41 100.959 190.948 105.624 190.805 108.033C190.805 108.033 173.053 103.61 166.361 106.119L165.141 103.546Z" fill="url(#paint20_radial_827_1140)"/>
<path fill-rule="evenodd" clip-rule="evenodd" d="M104.715 124.92L107.795 132.365L71.0918 122.833L69.5098 119.414L102.538 125.69L104.715 124.92Z" fill="#7C005C"/>
<path d="M125.556 89.9618C133.114 89.9618 139.24 84.3949 139.24 77.5278C139.24 70.6606 133.114 65.0938 125.556 65.0938C117.999 65.0938 111.873 70.6606 111.873 77.5278C111.873 84.3949 117.999 89.9618 125.556 89.9618Z" fill="url(#paint21_linear_827_1140)"/>
<path d="M131.552 88.7186C138.228 86.0051 141.139 78.7234 138.054 72.4545C134.968 66.1855 127.054 63.3031 120.378 66.0166C113.701 68.73 110.79 76.0117 113.876 82.2807C116.962 88.5497 124.875 91.432 131.552 88.7186Z" fill="#F9C734"/>
<path fill-rule="evenodd" clip-rule="evenodd" d="M135.49 73.4909C137.819 78.2217 135.622 83.718 130.58 85.7671C130.413 85.8345 130.248 85.8982 130.079 85.9529C125.152 87.6705 119.488 85.4858 117.237 80.9097C114.983 76.331 116.966 71.0383 121.659 68.8454C121.817 68.7671 121.978 68.6978 122.145 68.6303C127.187 66.5812 133.16 68.7576 135.49 73.4909Z" fill="url(#paint22_linear_827_1140)"/>
<path fill-rule="evenodd" clip-rule="evenodd" d="M134.5 73.8948C136.751 78.4677 134.768 83.7597 130.079 85.9546C125.152 87.6721 119.488 85.4875 117.237 80.9114C114.983 76.3327 116.966 71.04 121.659 68.8471C126.584 67.1346 132.248 69.3193 134.5 73.8948Z" fill="url(#paint23_linear_827_1140)"/>
<path d="M131.793 76.5733C131.904 76.7986 131.982 77.0073 132.026 77.1976C132.134 77.596 132.139 77.9752 132.04 78.3354C131.94 78.6956 131.784 79.0291 131.571 79.3371C131.358 79.6444 131.113 79.9232 130.833 80.172C130.554 80.4208 130.29 80.6384 130.043 80.8249C129.796 81.0114 129.586 81.1647 129.412 81.2844C129.239 81.404 129.152 81.4886 129.151 81.5383C129.166 81.544 129.173 81.5446 129.171 81.5395C129.168 81.5345 129.183 81.565 129.215 81.6318C129.248 81.6986 129.306 81.8291 129.389 82.0225C129.472 82.216 129.606 82.5151 129.793 82.9186L127.596 83.7376L127.038 82.4896C126.381 82.6589 125.729 82.8218 125.084 82.9796C124.439 83.1375 123.776 83.2501 123.094 83.3188C122.882 82.9383 122.655 82.566 122.413 82.2039C122.172 81.8418 121.946 81.4695 121.733 81.089C122.14 81.0222 122.557 80.9509 122.984 80.8752C123.411 80.8001 123.843 80.7193 124.279 80.6346C124.715 80.55 125.142 80.4494 125.563 80.3343C125.983 80.2184 126.381 80.0842 126.758 79.9314C126.862 79.8888 127.033 79.8137 127.269 79.7055C127.504 79.598 127.747 79.4777 127.996 79.3453C128.245 79.2136 128.475 79.08 128.685 78.9457C128.895 78.8114 129.029 78.7013 129.087 78.6161C129.247 78.3793 129.249 78.1019 129.093 77.7843C129.047 77.6921 128.984 77.5953 128.902 77.4929C128.82 77.3911 128.718 77.316 128.594 77.2676C128.537 77.2542 128.351 77.2899 128.035 77.3752C127.719 77.4604 127.335 77.5673 126.883 77.6959C126.431 77.8244 125.943 77.967 125.418 78.1254C124.893 78.2839 124.389 78.4271 123.906 78.5556C123.423 78.6848 122.993 78.786 122.614 78.8598C122.236 78.9336 121.974 78.9508 121.83 78.9113C121.617 78.863 121.395 78.7752 121.163 78.6479C120.931 78.5206 120.706 78.3698 120.488 78.1942C120.27 78.0192 120.071 77.8321 119.892 77.6348C119.713 77.4369 119.578 77.246 119.487 77.0621C119.281 76.6421 119.24 76.2163 119.367 75.7836C119.493 75.3515 119.705 74.9455 120.002 74.5669C120.299 74.1882 120.644 73.8484 121.036 73.5474C121.428 73.247 121.789 73.0109 122.119 72.8398L121.295 71.1655L123.676 70.4922L124.332 71.9399C124.463 71.8744 124.594 71.8152 124.725 71.7617C124.856 71.7089 124.984 71.6561 125.11 71.6052C125.58 71.4136 126.054 71.2526 126.528 71.1203C127.004 70.9886 127.505 70.8836 128.031 70.8046C128.134 71.168 128.233 71.5339 128.326 71.9017C128.419 72.2696 128.517 72.6348 128.621 72.9982C128.124 73.1637 127.633 73.3323 127.147 73.5054C126.661 73.6785 126.182 73.8605 125.711 74.052C125.596 74.0991 125.406 74.1793 125.142 74.2926C124.877 74.4065 124.6 74.5312 124.309 74.668C124.018 74.8049 123.749 74.9391 123.5 75.0709C123.251 75.2032 123.084 75.3108 122.999 75.3941C122.804 75.6092 122.777 75.86 122.918 76.1463C123.018 76.3512 123.182 76.5059 123.409 76.6102C123.487 76.6401 123.685 76.609 124.004 76.5167C124.322 76.4238 124.704 76.3061 125.148 76.1622C125.592 76.0184 126.069 75.865 126.579 75.7002C127.089 75.5367 127.577 75.3865 128.045 75.2522C128.512 75.1173 128.928 75.0193 129.293 74.9569C129.658 74.8946 129.918 74.8933 130.073 74.9531C130.451 75.1071 130.788 75.3292 131.089 75.6188C131.386 75.9064 131.622 76.2252 131.793 76.5733Z" fill="url(#paint24_linear_827_1140)"/>
<path d="M132.681 76.2093C132.792 76.4346 132.87 76.6427 132.913 76.8336C133.021 77.232 133.026 77.6112 132.927 77.9708C132.828 78.331 132.672 78.6644 132.459 78.9724C132.247 79.2798 132.001 79.5585 131.721 79.8073C131.442 80.0562 131.179 80.2738 130.931 80.4603C130.684 80.6467 130.474 80.8001 130.3 80.9197C130.127 81.0394 130.039 81.124 130.038 81.173C130.054 81.1794 130.061 81.1794 130.058 81.1743C130.056 81.1692 130.071 81.2004 130.104 81.2665C130.136 81.3327 130.194 81.4632 130.277 81.6566C130.36 81.8507 130.494 82.1492 130.681 82.5526L128.484 83.3716L127.926 82.1237C127.269 82.293 126.617 82.4559 125.972 82.6137C125.327 82.7716 124.664 82.8842 123.982 82.9523C123.769 82.5717 123.543 82.2001 123.301 81.8374C123.06 81.4746 122.834 81.103 122.621 80.7224C123.028 80.6556 123.444 80.5844 123.872 80.5086C124.299 80.4335 124.731 80.3533 125.167 80.2687C125.603 80.1841 126.03 80.0835 126.451 79.9677C126.871 79.8519 127.269 79.7176 127.646 79.5649C127.751 79.5223 127.921 79.4465 128.157 79.339C128.392 79.2314 128.635 79.1112 128.884 78.9788C129.133 78.8471 129.363 78.7134 129.573 78.5792C129.783 78.4449 129.917 78.3348 129.975 78.2495C130.135 78.0128 130.136 77.7353 129.98 77.4178C129.935 77.3255 129.872 77.2288 129.79 77.1263C129.708 77.0245 129.606 76.9494 129.482 76.9017C129.424 76.8877 129.238 76.924 128.922 77.0086C128.606 77.0945 128.222 77.2008 127.77 77.3293C127.318 77.4579 126.83 77.6011 126.305 77.7589C125.78 77.9173 125.276 78.0605 124.793 78.1891C124.311 78.3182 123.88 78.4194 123.501 78.4932C123.123 78.5671 122.862 78.5842 122.717 78.5448C122.504 78.4958 122.282 78.408 122.05 78.2807C121.818 78.1541 121.593 78.0026 121.375 77.827C121.156 77.652 120.958 77.4655 120.779 77.2676C120.6 77.0703 120.465 76.8788 120.374 76.6949C120.168 76.2749 120.127 75.8491 120.254 75.4164C120.38 74.9843 120.591 74.5783 120.889 74.1997C121.186 73.8204 121.531 73.4812 121.923 73.1802C122.315 72.8798 122.675 72.6437 123.006 72.4726L122.182 70.7983L124.563 70.125L125.22 71.5727C125.351 71.5072 125.482 71.448 125.612 71.3946C125.743 71.3411 125.872 71.2889 125.997 71.238C126.468 71.0465 126.941 70.8848 127.416 70.7531C127.892 70.6214 128.393 70.5157 128.919 70.4375C129.023 70.8008 129.121 71.1667 129.214 71.5339C129.307 71.9017 129.405 72.267 129.509 72.631C129.012 72.7958 128.521 72.9651 128.035 73.1382C127.548 73.3113 127.07 73.4933 126.599 73.6848C126.484 73.7319 126.294 73.8121 126.03 73.9254C125.766 74.0393 125.488 74.164 125.197 74.3008C124.907 74.4377 124.636 74.5719 124.388 74.7037C124.139 74.8354 123.972 74.9436 123.888 75.0263C123.692 75.2414 123.665 75.4921 123.806 75.7785C123.907 75.9834 124.07 76.138 124.297 76.2424C124.375 76.2723 124.573 76.2411 124.892 76.1482C125.211 76.0553 125.592 75.9376 126.036 75.7938C126.48 75.6499 126.957 75.4966 127.466 75.3324C127.975 75.1682 128.464 75.0187 128.932 74.8838C129.399 74.7495 129.816 74.6509 130.181 74.5885C130.545 74.5261 130.805 74.5249 130.961 74.5847C131.338 74.7387 131.676 74.9608 131.976 75.2503C132.275 75.5424 132.511 75.8612 132.681 76.2093Z" fill="url(#paint25_linear_827_1140)"/>
<path opacity="0.5" fill-rule="evenodd" clip-rule="evenodd" d="M114.591 70.6719L117.796 72.1279C117.796 72.1279 115.949 74.7784 116.382 78.1091L112.656 77.6611C112.656 77.6611 112.249 74.2731 114.591 70.6719Z" fill="white"/>
<path opacity="0.5" fill-rule="evenodd" clip-rule="evenodd" d="M135.094 82.0209L137.789 83.3079L138.38 82.0998L135.67 80.9375L135.094 82.0209Z" fill="white"/>
<path opacity="0.5" fill-rule="evenodd" clip-rule="evenodd" d="M136.113 79.7L138.877 80.3798C138.877 80.3798 139.354 78.889 139.279 77.6179L136.418 77.3359C136.418 77.3359 136.367 78.9177 136.113 79.7Z" fill="white"/>
<path d="M85.8005 74.1913C94.7427 74.1913 101.992 67.6041 101.992 59.4785C101.992 51.3528 94.7427 44.7656 85.8005 44.7656C76.8584 44.7656 69.6094 51.3528 69.6094 59.4785C69.6094 67.6041 76.8584 74.1913 85.8005 74.1913Z" fill="url(#paint26_linear_827_1140)"/>
<path d="M99.3944 67.4837C104.331 61.0251 102.38 52.0314 95.036 47.3957C87.6918 42.76 77.7359 44.2378 72.7988 50.6963C67.8617 57.1549 69.813 66.1486 77.1572 70.7843C84.5013 75.42 94.4573 73.9423 99.3944 67.4837Z" fill="#F9C734"/>
<path fill-rule="evenodd" clip-rule="evenodd" d="M93.1473 49.8683C98.6889 53.3664 100.163 60.1552 96.4339 65.0329C96.3106 65.1939 96.186 65.3505 96.0515 65.4994C92.2159 69.9769 85.0083 70.9111 79.6475 67.5269C74.2831 64.1407 72.7312 57.6772 76.0101 52.8484C76.1172 52.6817 76.2342 52.5213 76.3574 52.3603C80.0859 47.4825 87.6016 46.3683 93.1473 49.8683Z" fill="url(#paint27_linear_827_1140)"/>
<path fill-rule="evenodd" clip-rule="evenodd" d="M92.4148 50.828C97.7722 54.2096 99.3248 60.6732 96.0515 65.5013C92.2159 69.9788 85.0083 70.913 79.6475 67.5288C74.2831 64.1427 72.7312 57.6791 76.0101 52.8503C79.8464 48.3773 87.0539 47.4437 92.4148 50.828Z" fill="url(#paint28_linear_827_1140)"/>
<path d="M91.4741 55.0417C91.7381 55.2085 91.9566 55.3765 92.1296 55.5457C92.5077 55.8894 92.7668 56.2712 92.909 56.6906C93.0512 57.1106 93.117 57.5357 93.1086 57.9652C93.1002 58.3954 93.0379 58.8135 92.9223 59.2214C92.8068 59.6293 92.6863 59.9959 92.561 60.3217C92.4363 60.6481 92.3264 60.9199 92.2304 61.1375C92.1345 61.3551 92.1037 61.4894 92.1366 61.5397C92.1562 61.5371 92.1639 61.534 92.1576 61.5301C92.1513 61.5263 92.187 61.5492 92.2654 61.5982C92.3439 61.6479 92.4895 61.7471 92.7038 61.898C92.9181 62.0481 93.255 62.276 93.7151 62.5814L92.0406 64.6318L90.6358 63.6772C90.0833 64.2143 89.5335 64.7413 88.9866 65.2586C88.4396 65.7766 87.8437 66.2596 87.198 66.7076C86.7267 66.4404 86.2463 66.1903 85.7581 65.9567C85.2693 65.7232 84.7896 65.4731 84.3176 65.2052C84.6846 64.9118 85.0592 64.6076 85.4416 64.2933C85.824 63.9795 86.207 63.6582 86.5915 63.3304C86.9753 63.0027 87.3416 62.6635 87.6896 62.3122C88.0377 61.9616 88.3507 61.604 88.6294 61.2393C88.7065 61.1381 88.8283 60.9676 88.9943 60.727C89.1603 60.4871 89.3248 60.2307 89.4887 59.9583C89.6526 59.6866 89.7954 59.4238 89.9173 59.1705C90.0398 58.9178 90.1022 58.732 90.1036 58.613C90.1057 58.2847 89.9215 58.0028 89.5489 57.7679C89.4411 57.6998 89.3115 57.6368 89.1596 57.5789C89.0076 57.521 88.8535 57.5019 88.6952 57.5229C88.628 57.5407 88.4641 57.6807 88.2008 57.9423C87.9382 58.2045 87.621 58.5258 87.2498 58.907C86.8786 59.2882 86.4802 59.7044 86.0544 60.1569C85.6286 60.6087 85.2147 61.0338 84.812 61.4328C84.4094 61.8318 84.041 62.1735 83.7076 62.4586C83.3743 62.7437 83.1215 62.9066 82.9478 62.9467C82.6999 63.0154 82.4156 63.0498 82.0948 63.0504C81.7741 63.0511 81.4442 63.0231 81.1053 62.9658C80.7663 62.9098 80.4393 62.8309 80.1249 62.7297C79.8104 62.6291 79.5457 62.5101 79.3293 62.374C78.8377 62.0634 78.5099 61.6542 78.3475 61.1458C78.1843 60.638 78.1262 60.1091 78.1724 59.5606C78.2179 59.012 78.3391 58.4762 78.5338 57.9537C78.7284 57.4313 78.9357 56.9916 79.1549 56.6346L77.1934 55.3962L79.1528 53.391L80.7916 54.4932C80.8805 54.3544 80.9729 54.2214 81.0696 54.0948C81.1662 53.9682 81.2615 53.8441 81.3539 53.7232C81.7027 53.2675 82.0724 52.8412 82.4653 52.4434C82.8582 52.0463 83.2952 51.6613 83.7749 51.2891C84.1243 51.5996 84.4703 51.9152 84.812 52.236C85.1531 52.5567 85.499 52.8723 85.8485 53.1829C85.4563 53.6258 85.0725 54.0706 84.6958 54.5161C84.3197 54.9615 83.957 55.4121 83.6089 55.8677C83.5235 55.9791 83.3855 56.1662 83.1943 56.4277C83.0031 56.6899 82.8056 56.9712 82.6033 57.2709C82.4009 57.5707 82.2174 57.857 82.0542 58.1288C81.891 58.4011 81.7944 58.6028 81.7643 58.7339C81.7111 59.0604 81.8518 59.3296 82.1873 59.5415C82.4275 59.6929 82.6978 59.7591 82.9975 59.7381C83.097 59.7254 83.2756 59.5835 83.5361 59.313C83.7966 59.0419 84.104 58.7104 84.457 58.3184C84.8099 57.9264 85.1902 57.5051 85.5957 57.0558C86.0019 56.6066 86.3954 56.184 86.7785 55.7876C87.1616 55.3911 87.5173 55.0602 87.8444 54.7942C88.1721 54.5282 88.4347 54.3831 88.6322 54.357C89.1175 54.3035 89.6099 54.3404 90.1085 54.4671C90.6127 54.5918 91.0665 54.784 91.4741 55.0417Z" fill="url(#paint29_linear_827_1140)"/>
<path d="M92.1328 54.1849C92.3968 54.3516 92.6153 54.5196 92.7883 54.6889C93.1665 55.0325 93.4256 55.4144 93.5678 55.8331C93.7092 56.2531 93.7758 56.6782 93.7674 57.1077C93.7589 57.5379 93.6966 57.9567 93.5811 58.3639C93.4655 58.7718 93.3458 59.1384 93.2197 59.4642C93.0951 59.7907 92.9851 60.0624 92.8892 60.28C92.7939 60.4977 92.7624 60.6319 92.7953 60.6822C92.8149 60.6803 92.8219 60.6765 92.8163 60.6727C92.81 60.6689 92.8457 60.6918 92.9242 60.7408C93.0026 60.7904 93.1483 60.8897 93.3626 61.0399C93.5769 61.19 93.9144 61.4179 94.3738 61.7233L92.6994 63.7737L91.2946 62.8191C90.742 63.3556 90.1923 63.8832 89.6453 64.4005C89.0984 64.9185 88.5024 65.4015 87.8567 65.8495C87.3854 65.5823 86.9057 65.3315 86.4169 65.098C85.9281 64.8651 85.4484 64.6143 84.9764 64.3464C85.3433 64.0531 85.718 63.7489 86.1004 63.4345C86.4827 63.1208 86.8658 62.7994 87.2496 62.4717C87.634 62.1433 87.9996 61.8048 88.3484 61.4535C88.6964 61.1029 89.0095 60.7452 89.2882 60.3812C89.3652 60.28 89.4871 60.1089 89.653 59.8683C89.819 59.6284 89.9836 59.3719 90.1475 59.0996C90.3113 58.8278 90.4542 58.5657 90.576 58.3124C90.6986 58.0597 90.7609 57.8739 90.7623 57.7549C90.7644 57.4259 90.5802 57.1446 90.2077 56.9092C90.0998 56.8411 89.9703 56.7781 89.8183 56.7202C89.667 56.6623 89.5123 56.6432 89.3547 56.6642C89.2875 56.682 89.1229 56.822 88.8603 57.0836C88.5977 57.3457 88.2804 57.6671 87.9093 58.0483C87.5381 58.4295 87.1396 58.8457 86.7138 59.2975C86.288 59.7493 85.8742 60.1744 85.4715 60.5734C85.0688 60.9724 84.7004 61.3141 84.3671 61.5992C84.0337 61.8843 83.7802 62.0472 83.6073 62.0873C83.3594 62.156 83.075 62.1904 82.7543 62.1911C82.4335 62.1911 82.1037 62.1637 81.7647 62.1071C81.4258 62.0504 81.0988 61.9721 80.785 61.871C80.4706 61.7704 80.2052 61.6514 79.9895 61.5152C79.4978 61.2047 79.1701 60.7955 79.0076 60.287C78.8445 59.7792 78.7863 59.2504 78.8326 58.7012C78.8781 58.1527 78.9992 57.6168 79.1939 57.0944C79.3886 56.5726 79.5959 56.1322 79.8151 55.7758L77.8535 54.5374L79.813 52.5322L81.4517 53.6344C81.5406 53.4957 81.6331 53.3627 81.7297 53.2361C81.8264 53.1094 81.9216 52.9853 82.0141 52.8644C82.3628 52.4088 82.7333 51.9824 83.1254 51.5847C83.519 51.187 83.9553 50.8026 84.435 50.4297C84.7845 50.7402 85.1304 51.0559 85.4715 51.3772C85.8132 51.698 86.1592 52.0136 86.5086 52.3242C86.1165 52.7677 85.7327 53.2119 85.3559 53.6573C84.9799 54.1034 84.6178 54.5534 84.2691 55.009C84.1836 55.1204 84.0457 55.3075 83.8545 55.569C83.6633 55.8312 83.4658 56.1118 83.2634 56.4116C83.0603 56.7113 82.8775 56.9976 82.7144 57.27C82.5512 57.5424 82.4538 57.7441 82.4244 57.8752C82.3712 58.2017 82.512 58.4708 82.8474 58.6828C83.0876 58.8342 83.358 58.9004 83.6577 58.8794C83.7571 58.8667 83.9357 58.7248 84.1962 58.4537C84.4567 58.1832 84.7642 57.8517 85.1171 57.459C85.4701 57.067 85.8504 56.6464 86.2558 56.1965C86.662 55.7472 87.0563 55.324 87.4387 54.9282C87.821 54.5324 88.1775 54.2008 88.5045 53.9348C88.8323 53.6688 89.0949 53.5237 89.2924 53.4976C89.7784 53.4442 90.27 53.4811 90.7693 53.6077C91.2722 53.7356 91.7252 53.9278 92.1328 54.1849Z" fill="url(#paint30_linear_827_1140)"/>
<path opacity="0.5" fill-rule="evenodd" clip-rule="evenodd" d="M70.0742 58.6264L74.3006 58.3203C74.3006 58.3203 74.2137 62.0316 76.8931 65.1651L72.818 66.7821C72.818 66.7821 70.1253 63.5761 70.0742 58.6264Z" fill="white"/>
<path opacity="0.5" fill-rule="evenodd" clip-rule="evenodd" d="M98.4855 58.731L102.082 58.5362L101.868 56.9844L98.3398 57.3128L98.4855 58.731Z" fill="white"/>
<path opacity="0.5" fill-rule="evenodd" clip-rule="evenodd" d="M97.9522 55.8053L101.21 54.9577C101.21 54.9577 100.689 53.1829 99.7576 51.9375L96.6699 53.2414C96.6699 53.2414 97.6826 54.8724 97.9522 55.8053Z" fill="white"/>
<path fill-rule="evenodd" clip-rule="evenodd" d="M95.3193 198.042V218.785L47.6555 210.69L45.2632 197.755L59.8955 199.203L45.1484 197.148L44.4922 193.586L95.3193 198.042Z" fill="#2584CD"/>
<path fill-rule="evenodd" clip-rule="evenodd" d="M95.3184 198.039L131.671 199.565L129.36 219.431L95.3184 218.785V198.039Z" fill="url(#paint31_linear_827_1140)"/>
<path fill-rule="evenodd" clip-rule="evenodd" d="M131.673 198.645V198.039H95.3195L95.2109 198.342L131.673 198.645Z" fill="url(#paint32_linear_827_1140)"/>
<path fill-rule="evenodd" clip-rule="evenodd" d="M131.672 198.648L126.538 199.353L104.346 198.422L131.672 198.648Z" fill="#2584CD"/>
<path fill-rule="evenodd" clip-rule="evenodd" d="M81.8145 205.505L95.3192 204.188L130.982 205.505L95.3178 204.375L81.8145 205.505Z" fill="#2584CD"/>
<path fill-rule="evenodd" clip-rule="evenodd" d="M80.8887 206.885L95.3193 206.234L130.821 206.885L95.2107 206.56L80.8887 206.885Z" fill="#2584CD"/>
<path fill-rule="evenodd" clip-rule="evenodd" d="M95.2101 212.031L94.084 212.428L95.2101 212.96H112.916L95.2101 212.031Z" fill="#2584CD"/>
<path fill-rule="evenodd" clip-rule="evenodd" d="M44.4922 193.586H75.6406C75.6406 193.586 92.4844 198.514 131.672 198.041L95.21 198.344C95.21 198.344 64.3565 200.795 44.4922 193.586Z" fill="#3DFFCE"/>
<path fill-rule="evenodd" clip-rule="evenodd" d="M78.5207 215.98L78.964 198.884L60.4766 197.273L61.6909 213.108L78.5207 215.98Z" fill="#AE09A1"/>
<path fill-rule="evenodd" clip-rule="evenodd" d="M63.1671 213.331L61.7734 197.391L77.3539 198.748L77.6025 215.778L63.1671 213.331Z" fill="#63C7FF"/>
<path fill-rule="evenodd" clip-rule="evenodd" d="M78.9628 198.89L104.345 197.526L89.6761 196.047L60.4746 197.28C60.4746 197.28 74.8758 198.919 78.9628 198.89Z" fill="#FF5ECC"/>
<path fill-rule="evenodd" clip-rule="evenodd" d="M61.7734 197.387L90.3601 196.164L103.027 197.387L77.3875 198.885C77.3875 198.885 67.4887 198.162 61.7734 197.387Z" fill="#B8FFFF"/>
<path fill-rule="evenodd" clip-rule="evenodd" d="M78.9628 198.891V207.734L78.5195 215.987L78.9628 198.891Z" fill="#2584CD"/>
<path fill-rule="evenodd" clip-rule="evenodd" d="M104.345 197.523L95.5623 198.178L78.9629 198.888L104.345 197.523Z" fill="#2584CD"/>
<path fill-rule="evenodd" clip-rule="evenodd" d="M247.27 181.539V218.707L197.392 219.003L194.889 195.827L210.137 193.519L194.768 194.738L194.082 188.356L247.27 181.539Z" fill="#2584CD"/>
<path fill-rule="evenodd" clip-rule="evenodd" d="M247.27 181.539L285.312 184.273L282.945 219.092L247.27 218.71V181.539Z" fill="url(#paint33_linear_827_1140)"/>
<path fill-rule="evenodd" clip-rule="evenodd" d="M285.313 182.625V181.539H247.27L247.156 182.082L285.313 182.625Z" fill="url(#paint34_linear_827_1140)"/>
<path fill-rule="evenodd" clip-rule="evenodd" d="M285.313 182.626L279.94 183.888L256.717 182.219L285.313 182.626Z" fill="#2584CD"/>
<path fill-rule="evenodd" clip-rule="evenodd" d="M214.128 218.91L212.934 185.173L231.643 183.547L232.43 218.91H214.128Z" fill="#AE09A1"/>
<path fill-rule="evenodd" clip-rule="evenodd" d="M216.059 218.892L214.9 184.995L229.23 183.75L230.094 218.892H216.059Z" fill="#63C7FF"/>
<path fill-rule="evenodd" clip-rule="evenodd" d="M233.139 194.907L247.27 192.547L284.59 194.907L247.269 192.675L233.139 194.907Z" fill="#2584CD"/>
<path fill-rule="evenodd" clip-rule="evenodd" d="M232.17 197.376L247.271 196.211L284.422 197.376L247.239 196.485L232.17 197.376Z" fill="#2584CD"/>
<path fill-rule="evenodd" clip-rule="evenodd" d="M247.156 206.602L245.979 207.314L247.156 208.266H265.685L247.156 206.602Z" fill="#2584CD"/>
<path fill-rule="evenodd" clip-rule="evenodd" d="M231.643 183.547L232.689 207.32L232.429 218.91L231.643 183.547Z" fill="#2584CD"/>
<defs>
<linearGradient id="paint0_linear_827_1140" x1="58.9669" y1="203.882" x2="62.3799" y2="203.882" gradientUnits="userSpaceOnUse">
<stop/>
<stop offset="1" stop-color="#FFB31B"/>
</linearGradient>
<radialGradient id="paint1_radial_827_1140" cx="0" cy="0" r="1" gradientUnits="userSpaceOnUse" gradientTransform="translate(189.536 93.445) scale(5.37265 6.55052)">
<stop offset="0.0056" stop-color="white"/>
<stop offset="1" stop-color="#E6E6E6"/>
</radialGradient>
<linearGradient id="paint2_linear_827_1140" x1="179.843" y1="203.096" x2="166.196" y2="89.3878" gradientUnits="userSpaceOnUse">
<stop stop-color="#AA0046"/>
<stop offset="0.9944" stop-color="#AA0046"/>
</linearGradient>
<linearGradient id="paint3_linear_827_1140" x1="191.856" y1="113.511" x2="170.638" y2="98.7941" gradientUnits="userSpaceOnUse">
<stop offset="0.0108" stop-color="#D6C7DD"/>
<stop offset="1" stop-color="#9765A1"/>
</linearGradient>
<linearGradient id="paint4_linear_827_1140" x1="142.611" y1="196.993" x2="244.033" y2="196.993" gradientUnits="userSpaceOnUse">
<stop offset="0.0108" stop-color="white"/>
<stop offset="1" stop-color="#9765A1"/>
</linearGradient>
<linearGradient id="paint5_linear_827_1140" x1="181.315" y1="193.449" x2="181.315" y2="138.704" gradientUnits="userSpaceOnUse">
<stop stop-color="#9765A1"/>
<stop offset="0.9892" stop-color="white"/>
</linearGradient>
<linearGradient id="paint6_linear_827_1140" x1="219.944" y1="143.381" x2="219.944" y2="135.101" gradientUnits="userSpaceOnUse">
<stop offset="0.0108" stop-color="white"/>
<stop offset="1" stop-color="#9765A1"/>
</linearGradient>
<linearGradient id="paint7_linear_827_1140" x1="219.944" y1="142.302" x2="219.944" y2="135.101" gradientUnits="userSpaceOnUse">
<stop stop-color="#ABE1FF"/>
<stop offset="0.9946" stop-color="white"/>
</linearGradient>
<linearGradient id="paint8_linear_827_1140" x1="148.751" y1="172.624" x2="160.612" y2="172.624" gradientUnits="userSpaceOnUse">
<stop stop-color="#AA0046"/>
<stop offset="0.9944" stop-color="#AA0046"/>
</linearGradient>
<linearGradient id="paint9_linear_827_1140" x1="161.744" y1="168.469" x2="172.39" y2="168.469" gradientUnits="userSpaceOnUse">
<stop stop-color="#AA0046"/>
<stop offset="0.9944" stop-color="#AA0046"/>
</linearGradient>
<linearGradient id="paint10_linear_827_1140" x1="169.852" y1="165.643" x2="182.53" y2="165.643" gradientUnits="userSpaceOnUse">
<stop stop-color="#AA0046"/>
<stop offset="0.9944" stop-color="#AA0046"/>
</linearGradient>
<linearGradient id="paint11_linear_827_1140" x1="181.062" y1="163" x2="187.563" y2="163" gradientUnits="userSpaceOnUse">
<stop stop-color="#AA0046"/>
<stop offset="0.9944" stop-color="#AA0046"/>
</linearGradient>
<linearGradient id="paint12_linear_827_1140" x1="183.083" y1="158.695" x2="196.133" y2="158.695" gradientUnits="userSpaceOnUse">
<stop stop-color="#AA0046"/>
<stop offset="0.9944" stop-color="#AA0046"/>
</linearGradient>
<linearGradient id="paint13_linear_827_1140" x1="193.517" y1="159.065" x2="199.891" y2="159.065" gradientUnits="userSpaceOnUse">
<stop stop-color="#AA0046"/>
<stop offset="0.9944" stop-color="#AA0046"/>
</linearGradient>
<linearGradient id="paint14_linear_827_1140" x1="198.389" y1="155.696" x2="209.035" y2="155.696" gradientUnits="userSpaceOnUse">
<stop stop-color="#AA0046"/>
<stop offset="0.9944" stop-color="#AA0046"/>
</linearGradient>
<linearGradient id="paint15_linear_827_1140" x1="206.495" y1="152.87" x2="219.173" y2="152.87" gradientUnits="userSpaceOnUse">
<stop stop-color="#AA0046"/>
<stop offset="0.9944" stop-color="#AA0046"/>
</linearGradient>
<linearGradient id="paint16_linear_827_1140" x1="171.039" y1="143.924" x2="171.04" y2="114.055" gradientUnits="userSpaceOnUse">
<stop stop-color="#00E5FF"/>
<stop offset="0.9944" stop-color="#00FFC3"/>
</linearGradient>
<radialGradient id="paint17_radial_827_1140" cx="0" cy="0" r="1" gradientUnits="userSpaceOnUse" gradientTransform="translate(163.034 104.935) scale(3.83294 3.48297)">
<stop offset="0.0056" stop-color="white"/>
<stop offset="1" stop-color="#E6E6E6"/>
</radialGradient>
<linearGradient id="paint18_linear_827_1140" x1="149.992" y1="135.61" x2="149.992" y2="109.087" gradientUnits="userSpaceOnUse">
<stop offset="0.0108" stop-color="#D6C7DD"/>
<stop offset="1" stop-color="#9765A1"/>
</linearGradient>
<radialGradient id="paint19_radial_827_1140" cx="0" cy="0" r="1" gradientUnits="userSpaceOnUse" gradientTransform="translate(152.905 112.592) scale(13.288 12.0748)">
<stop offset="0.0056" stop-color="white"/>
<stop offset="1" stop-color="#E6E6E6"/>
</radialGradient>
<radialGradient id="paint20_radial_827_1140" cx="0" cy="0" r="1" gradientUnits="userSpaceOnUse" gradientTransform="translate(172.646 103.975) rotate(115.728) scale(12.1901 12.9744)">
<stop offset="0.0056" stop-color="white"/>
<stop offset="1" stop-color="#E6E6E6"/>
</radialGradient>
<linearGradient id="paint21_linear_827_1140" x1="131.143" y1="88.8774" x2="121.641" y2="65.4979" gradientUnits="userSpaceOnUse">
<stop stop-color="#F93B5C"/>
<stop offset="1" stop-color="#FB244D"/>
</linearGradient>
<linearGradient id="paint22_linear_827_1140" x1="117.235" y1="80.9084" x2="134.869" y2="72.2292" gradientUnits="userSpaceOnUse">
<stop stop-color="#F93B5C"/>
<stop offset="1" stop-color="#FB244D"/>
</linearGradient>
<linearGradient id="paint23_linear_827_1140" x1="130.077" y1="85.955" x2="122.916" y2="68.3361" gradientUnits="userSpaceOnUse">
<stop offset="0.0454" stop-color="#FB7B5E"/>
<stop offset="1" stop-color="#FD9A00"/>
</linearGradient>
<linearGradient id="paint24_linear_827_1140" x1="128.833" y1="83.3069" x2="123.529" y2="70.2543" gradientUnits="userSpaceOnUse">
<stop stop-color="#F93B5C"/>
<stop offset="1" stop-color="#FB244D"/>
</linearGradient>
<linearGradient id="paint25_linear_827_1140" x1="129.722" y1="82.9422" x2="124.417" y2="69.8902" gradientUnits="userSpaceOnUse">
<stop stop-color="#FDA400"/>
<stop offset="1" stop-color="#FFEF00"/>
</linearGradient>
<linearGradient id="paint26_linear_827_1140" x1="99.0983" y1="67.8721" x2="74.2126" y2="48.8488" gradientUnits="userSpaceOnUse">
<stop stop-color="#F93B5C"/>
<stop offset="1" stop-color="#FB244D"/>
</linearGradient>
<linearGradient id="paint27_linear_827_1140" x1="79.6459" y1="67.526" x2="91.4627" y2="48.8051" gradientUnits="userSpaceOnUse">
<stop stop-color="#F93B5C"/>
<stop offset="1" stop-color="#FB244D"/>
</linearGradient>
<linearGradient id="paint28_linear_827_1140" x1="96.051" y1="65.5024" x2="77.2972" y2="51.1665" gradientUnits="userSpaceOnUse">
<stop offset="0.0454" stop-color="#FB7B5E"/>
<stop offset="1" stop-color="#FD9A00"/>
</linearGradient>
<linearGradient id="paint29_linear_827_1140" x1="93.0068" y1="63.5068" x2="79.1136" y2="52.8864" gradientUnits="userSpaceOnUse">
<stop stop-color="#F93B5C"/>
<stop offset="1" stop-color="#FB244D"/>
</linearGradient>
<linearGradient id="paint30_linear_827_1140" x1="93.6658" y1="62.6504" x2="79.7726" y2="52.0301" gradientUnits="userSpaceOnUse">
<stop stop-color="#FDA400"/>
<stop offset="1" stop-color="#FFEF00"/>
</linearGradient>
<linearGradient id="paint31_linear_827_1140" x1="113.495" y1="219.431" x2="113.495" y2="198.039" gradientUnits="userSpaceOnUse">
<stop stop-color="#00E5FF"/>
<stop offset="0.9944" stop-color="#00FFC3"/>
</linearGradient>
<linearGradient id="paint32_linear_827_1140" x1="95.2107" y1="198.342" x2="131.673" y2="198.342" gradientUnits="userSpaceOnUse">
<stop stop-color="#00E5FF"/>
<stop offset="0.9944" stop-color="#00FFC3"/>
</linearGradient>
<linearGradient id="paint33_linear_827_1140" x1="266.291" y1="219.093" x2="266.291" y2="181.539" gradientUnits="userSpaceOnUse">
<stop stop-color="#00E5FF"/>
<stop offset="0.9944" stop-color="#00FFC3"/>
</linearGradient>
<linearGradient id="paint34_linear_827_1140" x1="247.156" y1="182.082" x2="285.312" y2="182.082" gradientUnits="userSpaceOnUse">
<stop stop-color="#00E5FF"/>
<stop offset="0.9944" stop-color="#00FFC3"/>
</linearGradient>
</defs>
</svg>
