<svg width="1040" height="323" viewBox="0 0 1040 323" fill="none" xmlns="http://www.w3.org/2000/svg">
<g clip-path="url(#clip0_715_933)">
<mask id="mask0_715_933" style="mask-type:luminance" maskUnits="userSpaceOnUse" x="521" y="105" width="503" height="218">
<path d="M521 105.332H1023.3V323H521V105.332Z" fill="white"/>
</mask>
<g mask="url(#mask0_715_933)">
<path d="M1019.8 332.946H521.875C522.169 320.719 529.697 307.519 541.233 303.19C536.934 295.357 538.923 284.802 545.783 278.938C552.658 273.071 563.74 272.457 571.256 277.522C570.172 268.166 571.508 257.84 578.223 251.011C584.937 244.197 598.168 243.181 603.787 250.877C604.574 244.304 605.402 237.555 607.738 231.397V231.382C608.525 229.34 609.475 227.362 610.636 225.465C615.319 217.903 624.584 212.208 633.448 214.319C640.285 215.949 647.721 221.709 653.34 217.609C656.222 215.483 656.89 211.662 658.077 208.348C664.204 191.193 691.758 186.383 703.706 200.37C704.149 192.503 705.374 184.017 711.131 178.432C716.868 172.847 728.549 172.752 731.821 179.955C734.103 161.25 736.959 141.232 749.987 127.215C767.864 107.991 807.377 115.74 819.604 137.773C821.18 140.606 822.436 143.973 825.425 145.401C829.071 147.137 833.289 145.149 837.16 143.973C845.985 141.285 856.155 143.225 863.259 148.954C870.359 154.688 874.15 164.002 872.989 172.874C876.673 174.088 883.494 189.189 885.418 197.018C892.801 190.846 903.013 188.575 912.384 192.861C920.633 196.644 925.958 204.245 927.546 212.731C934.57 211.929 941.9 214.013 947.133 219.144C950.844 222.778 953.111 227.668 953.848 232.787C966.716 231.783 976.779 241.563 977.767 253.618C983.856 260.657 986.246 270.827 982.054 288.024C987.925 286.313 993.949 284.588 1000.06 284.87C1015.33 285.55 1029.99 321.654 1019.8 332.946Z" fill="url(#paint0_linear_715_933)" fill-opacity="0.33"/>
</g>
<g clip-path="url(#clip1_715_933)">
<mask id="mask1_715_933" style="mask-type:luminance" maskUnits="userSpaceOnUse" x="353" y="56" width="87" height="208">
<path d="M353.064 56.6445H439.223V263.189H353.064V56.6445Z" fill="white"/>
</mask>
<g mask="url(#mask1_715_933)">
<path fill-rule="evenodd" clip-rule="evenodd" d="M439.094 144.726C439.094 123.441 423.408 105.654 402.897 102.338C412.428 99.4437 419.427 90.5815 419.427 80.0302C419.487 67.1262 408.988 56.6953 396.139 56.6953C383.289 56.6953 372.851 67.1262 372.851 79.9701C372.851 90.4611 379.789 99.3234 389.381 102.278C368.93 105.534 353.184 123.381 353.184 144.665V194.709C353.184 196.398 354.632 197.784 356.261 197.784H373.032V240.051C373.032 252.049 382.323 261.938 394.027 263.083V197.724H398.371V263.083C410.076 261.998 419.367 252.049 419.367 240.051V197.905H436.077C437.827 197.905 439.154 196.458 439.154 194.83V144.726H439.094Z" fill="#FFC2A3"/>
</g>
<mask id="mask2_715_933" style="mask-type:luminance" maskUnits="userSpaceOnUse" x="392" y="56" width="12" height="8">
<path d="M392.52 56.6445H403.594V63.8555H392.52V56.6445Z" fill="white"/>
</mask>
<g mask="url(#mask2_715_933)">
<mask id="mask3_715_933" style="mask-type:luminance" maskUnits="userSpaceOnUse" x="263" y="-70" width="468" height="469">
<path d="M731 -69.9961H263V398.004H731V-69.9961Z" fill="black" fill-opacity="0.298"/>
</mask>
<g mask="url(#mask3_715_933)">
<mask id="mask4_715_933" style="mask-type:luminance" maskUnits="userSpaceOnUse" x="392" y="56" width="12" height="8">
<path d="M403.596 56.6406H392.521V63.8628H403.596V56.6406Z" fill="white"/>
</mask>
<g mask="url(#mask4_715_933)">
<mask id="mask5_715_933" style="mask-type:luminance" maskUnits="userSpaceOnUse" x="393" y="56" width="11" height="8">
<path d="M393.002 56.6523H403.228V63.3818H393.002V56.6523Z" fill="white"/>
</mask>
<g mask="url(#mask5_715_933)">
<path d="M396.143 59.5977C397.591 59.5977 398.919 59.7782 400.245 60.019" stroke="white" stroke-width="5.78697" stroke-miterlimit="10" stroke-linecap="round" stroke-linejoin="round"/>
</g>
</g>
</g>
</g>
<mask id="mask6_715_933" style="mask-type:luminance" maskUnits="userSpaceOnUse" x="263" y="-70" width="468" height="468">
<path d="M731 -70H263V398H731V-70Z" fill="black" fill-opacity="0.298"/>
</mask>
<g mask="url(#mask6_715_933)">
<mask id="mask7_715_933" style="mask-type:luminance" maskUnits="userSpaceOnUse" x="406" y="62" width="14" height="22">
<path d="M419.963 62.4141H406.963V83.5992H419.963V62.4141Z" fill="white"/>
</mask>
<g mask="url(#mask7_715_933)">
<mask id="mask8_715_933" style="mask-type:luminance" maskUnits="userSpaceOnUse" x="407" y="62" width="13" height="22">
<path d="M407.441 62.7148H419.478V83.1101H407.441V62.7148Z" fill="white"/>
</mask>
<g mask="url(#mask8_715_933)">
<path d="M410.617 65.6211C414.296 69.298 416.529 74.363 416.529 79.9715" stroke="white" stroke-width="5.78697" stroke-miterlimit="10" stroke-linecap="round" stroke-linejoin="round"/>
</g>
</g>
</g>
<mask id="mask9_715_933" style="mask-type:luminance" maskUnits="userSpaceOnUse" x="263" y="-70" width="468" height="468">
<path d="M731 -70H263V398H731V-70Z" fill="black" fill-opacity="0.0667"/>
</mask>
<g mask="url(#mask9_715_933)">
<mask id="mask10_715_933" style="mask-type:luminance" maskUnits="userSpaceOnUse" x="397" y="225" width="21" height="37">
<path d="M417.559 225.145H397.818V261.737H417.559V225.145Z" fill="white"/>
</mask>
<g mask="url(#mask10_715_933)">
<path d="M411.044 248.968C409.355 251.743 407.062 253.973 404.166 255.42V231.543" stroke="black" stroke-width="11.5739" stroke-miterlimit="10" stroke-linecap="round" stroke-linejoin="round"/>
</g>
</g>
<mask id="mask11_715_933" style="mask-type:luminance" maskUnits="userSpaceOnUse" x="263" y="-70" width="468" height="468">
<path d="M731 -70H263V398H731V-70Z" fill="black" fill-opacity="0.0667"/>
</mask>
<g mask="url(#mask11_715_933)">
<mask id="mask12_715_933" style="mask-type:luminance" maskUnits="userSpaceOnUse" x="372" y="233" width="23" height="29">
<path d="M394.446 233.82H372.779V261.746H394.446V233.82Z" fill="white"/>
</mask>
<g mask="url(#mask12_715_933)">
<mask id="mask13_715_933" style="mask-type:luminance" maskUnits="userSpaceOnUse" x="372" y="233" width="23" height="29">
<path d="M372.949 233.859H394.212V261.266H372.949V233.859Z" fill="white"/>
</mask>
<g mask="url(#mask13_715_933)">
<path d="M388.234 255.428C382.624 252.536 378.883 246.686 378.883 240.055" stroke="black" stroke-width="11.5739" stroke-miterlimit="10" stroke-linecap="round" stroke-linejoin="round"/>
</g>
</g>
</g>
<mask id="mask14_715_933" style="mask-type:luminance" maskUnits="userSpaceOnUse" x="518" y="56" width="125" height="208">
<path d="M518.184 56.6445H642.887V263.189H518.184V56.6445Z" fill="white"/>
</mask>
<g mask="url(#mask14_715_933)">
<path fill-rule="evenodd" clip-rule="evenodd" d="M623.403 170.231V144.728C623.403 123.443 607.718 105.656 587.206 102.341C596.738 99.446 603.736 90.5838 603.736 80.0326C603.736 67.1887 593.298 56.7578 580.448 56.7578C567.597 56.7578 557.16 67.1887 557.16 80.0326C557.16 90.5236 564.098 99.3859 573.69 102.341C553.239 105.596 537.493 123.443 537.493 144.728V170.292C510.283 215.272 507.69 213.403 557.28 212.197V240.114C557.28 252.111 566.572 262.001 578.276 263.146V204.842H582.62V263.146C594.324 262.061 603.616 252.111 603.616 240.114V212.197C653.146 213.343 650.552 215.272 623.403 170.231Z" fill="#FFC2A3"/>
</g>
<mask id="mask15_715_933" style="mask-type:luminance" maskUnits="userSpaceOnUse" x="263" y="-70" width="468" height="468">
<path d="M731 -70H263V398H731V-70Z" fill="black" fill-opacity="0.298"/>
</mask>
<g mask="url(#mask15_715_933)">
<mask id="mask16_715_933" style="mask-type:luminance" maskUnits="userSpaceOnUse" x="586" y="58" width="16" height="16">
<path d="M601.961 58.0742H586.072V73.9631H601.961V58.0742Z" fill="white"/>
</mask>
<g mask="url(#mask16_715_933)">
<path d="M589.559 61.7578C593.418 63.6875 596.495 66.7626 598.487 70.4997" stroke="white" stroke-width="5.78697" stroke-miterlimit="10" stroke-linecap="round" stroke-linejoin="round"/>
</g>
</g>
<mask id="mask17_715_933" style="mask-type:luminance" maskUnits="userSpaceOnUse" x="263" y="-70" width="468" height="468">
<path d="M731 -70H263V398H731V-70Z" fill="black" fill-opacity="0.0667"/>
</mask>
<g mask="url(#mask17_715_933)">
<mask id="mask18_715_933" style="mask-type:luminance" maskUnits="userSpaceOnUse" x="556" y="225" width="20" height="34">
<path d="M575.004 225.145H556.707V258.848H575.004V225.145Z" fill="white"/>
</mask>
<g mask="url(#mask18_715_933)">
<mask id="mask19_715_933" style="mask-type:luminance" maskUnits="userSpaceOnUse" x="557" y="225" width="18" height="34">
<path d="M557.033 225.625H574.521V258.693H557.033V225.625Z" fill="white"/>
</mask>
<g mask="url(#mask19_715_933)">
<path d="M568.566 252.768C565.126 249.572 562.955 244.989 562.955 240.106V231.543" stroke="black" stroke-width="11.5739" stroke-miterlimit="10" stroke-linecap="round" stroke-linejoin="round"/>
</g>
</g>
</g>
<mask id="mask20_715_933" style="mask-type:luminance" maskUnits="userSpaceOnUse" x="353" y="102" width="87" height="97">
<path d="M353.064 102.367H439.223V198.182H353.064V102.367Z" fill="white"/>
</mask>
<g mask="url(#mask20_715_933)">
<path fill-rule="evenodd" clip-rule="evenodd" d="M373.033 197.901H436.018C437.768 197.901 439.095 196.455 439.095 194.826V144.782C439.095 123.497 423.41 105.71 402.898 102.395C400.725 103.058 398.493 103.42 396.02 103.42C393.667 103.42 391.314 103.058 389.262 102.395C368.871 105.65 353.064 123.497 353.064 144.782V194.766C353.064 196.455 354.513 197.841 356.141 197.841H373.033V197.901Z" fill="#9BDBFF"/>
</g>
<mask id="mask21_715_933" style="mask-type:luminance" maskUnits="userSpaceOnUse" x="353" y="167" width="61" height="32">
<path d="M353.064 167.855H413.223V198.67H353.064V167.855Z" fill="white"/>
</mask>
<g mask="url(#mask21_715_933)">
<mask id="mask22_715_933" style="mask-type:luminance" maskUnits="userSpaceOnUse" x="263" y="-70" width="468" height="469">
<path d="M731 -69.9961H263V398.004H731V-69.9961Z" fill="black" fill-opacity="0.0667"/>
</mask>
<g mask="url(#mask22_715_933)">
<mask id="mask23_715_933" style="mask-type:luminance" maskUnits="userSpaceOnUse" x="353" y="167" width="61" height="32">
<path d="M413.222 167.859H353.037V198.674H413.222V167.859Z" fill="white"/>
</mask>
<g mask="url(#mask23_715_933)">
<mask id="mask24_715_933" style="mask-type:luminance" maskUnits="userSpaceOnUse" x="353" y="168" width="60" height="31">
<path d="M353.076 168.344H412.742V198.196H353.076V168.344Z" fill="white"/>
</mask>
<g mask="url(#mask24_715_933)">
<path d="M406.818 192.12H358.975V174.273" stroke="black" stroke-width="11.5739" stroke-miterlimit="10" stroke-linecap="round" stroke-linejoin="round"/>
</g>
</g>
</g>
</g>
<mask id="mask25_715_933" style="mask-type:luminance" maskUnits="userSpaceOnUse" x="263" y="-70" width="468" height="468">
<path d="M731 -70H263V398H731V-70Z" fill="black" fill-opacity="0.298"/>
</mask>
<g mask="url(#mask25_715_933)">
<mask id="mask26_715_933" style="mask-type:luminance" maskUnits="userSpaceOnUse" x="406" y="103" width="11" height="10">
<path d="M416.59 103.34H406.479V112.007H416.59V103.34Z" fill="white"/>
</mask>
<g mask="url(#mask26_715_933)">
<mask id="mask27_715_933" style="mask-type:luminance" maskUnits="userSpaceOnUse" x="406" y="103" width="11" height="9">
<path d="M406.809 103.824H416.515V111.528H406.809V103.824Z" fill="white"/>
</mask>
<g mask="url(#mask27_715_933)">
<path d="M409.711 107.051C410.979 107.472 412.124 108.076 413.331 108.557" stroke="white" stroke-width="5.78697" stroke-miterlimit="10" stroke-linecap="round" stroke-linejoin="round"/>
</g>
</g>
</g>
<mask id="mask28_715_933" style="mask-type:luminance" maskUnits="userSpaceOnUse" x="263" y="-70" width="468" height="468">
<path d="M731 -70H263V398H731V-70Z" fill="black" fill-opacity="0.298"/>
</mask>
<g mask="url(#mask28_715_933)">
<mask id="mask29_715_933" style="mask-type:luminance" maskUnits="userSpaceOnUse" x="419" y="111" width="19" height="25">
<path d="M437.296 111.043H419V135.599H437.296V111.043Z" fill="white"/>
</mask>
<g mask="url(#mask29_715_933)">
<mask id="mask30_715_933" style="mask-type:luminance" maskUnits="userSpaceOnUse" x="419" y="111" width="19" height="25">
<path d="M419.48 111.527H437.083V135.12H419.48V111.527Z" fill="white"/>
</mask>
<g mask="url(#mask30_715_933)">
<path d="M422.623 114.703C427.812 119.285 431.794 125.194 434.086 131.826" stroke="white" stroke-width="5.78697" stroke-miterlimit="10" stroke-linecap="round" stroke-linejoin="round"/>
</g>
</g>
</g>
<path fill-rule="evenodd" clip-rule="evenodd" d="M557.281 212.253H603.554V212.193C604.581 212.193 605.485 212.253 606.39 212.253H623.464V212.614C651.758 212.795 646.268 208.093 623.464 170.287V144.723C623.464 123.438 607.778 105.652 587.266 102.336C585.094 103 582.861 103.361 580.509 103.361C578.156 103.361 575.803 103 573.751 102.336C553.299 105.592 537.553 123.438 537.553 144.723V170.287C518.006 202.606 511.128 210.684 527.177 212.313H554.627C555.411 212.253 556.316 212.253 557.281 212.253Z" fill="#FF88AC"/>
<mask id="mask31_715_933" style="mask-type:luminance" maskUnits="userSpaceOnUse" x="263" y="-70" width="468" height="468">
<path d="M731 -70H263V398H731V-70Z" fill="black" fill-opacity="0.298"/>
</mask>
<g mask="url(#mask31_715_933)">
<mask id="mask32_715_933" style="mask-type:luminance" maskUnits="userSpaceOnUse" x="589" y="103" width="11" height="9">
<path d="M599.557 103.34H589.928V111.044H599.557V103.34Z" fill="white"/>
</mask>
<g mask="url(#mask32_715_933)">
<mask id="mask33_715_933" style="mask-type:luminance" maskUnits="userSpaceOnUse" x="590" y="103" width="10" height="9">
<path d="M590.408 103.824H599.325V111.028H590.408V103.824Z" fill="white"/>
</mask>
<g mask="url(#mask33_715_933)">
<path d="M593.482 106.867C594.507 107.23 595.412 107.591 596.377 108.014" stroke="white" stroke-width="5.78697" stroke-miterlimit="10" stroke-linecap="round" stroke-linejoin="round"/>
</g>
</g>
</g>
<mask id="mask34_715_933" style="mask-type:luminance" maskUnits="userSpaceOnUse" x="263" y="-70" width="468" height="468">
<path d="M731 -70H263V398H731V-70Z" fill="black" fill-opacity="0.298"/>
</mask>
<g mask="url(#mask34_715_933)">
<mask id="mask35_715_933" style="mask-type:luminance" maskUnits="userSpaceOnUse" x="602" y="110" width="20" height="25">
<path d="M621.219 110.074H602.441V134.148H621.219V110.074Z" fill="white"/>
</mask>
<g mask="url(#mask35_715_933)">
<mask id="mask36_715_933" style="mask-type:luminance" maskUnits="userSpaceOnUse" x="602" y="110" width="20" height="24">
<path d="M602.787 110.559H621.046V133.901H602.787V110.559Z" fill="white"/>
</mask>
<g mask="url(#mask36_715_933)">
<path d="M605.783 113.797C611.213 118.318 615.497 124.168 617.971 130.861" stroke="white" stroke-width="5.78697" stroke-miterlimit="10" stroke-linecap="round" stroke-linejoin="round"/>
</g>
</g>
</g>
<mask id="mask37_715_933" style="mask-type:luminance" maskUnits="userSpaceOnUse" x="263" y="-70" width="468" height="468">
<path d="M731 -70H263V398H731V-70Z" fill="black" fill-opacity="0.0667"/>
</mask>
<g mask="url(#mask37_715_933)">
<mask id="mask38_715_933" style="mask-type:luminance" maskUnits="userSpaceOnUse" x="517" y="183" width="88" height="30">
<path d="M604.374 183.738H517.707V212.627H604.374V183.738Z" fill="white"/>
</mask>
<g mask="url(#mask38_715_933)">
<mask id="mask39_715_933" style="mask-type:luminance" maskUnits="userSpaceOnUse" x="518" y="183" width="86" height="30">
<path d="M518.188 183.812H603.891V212.355H518.188V183.812Z" fill="white"/>
</mask>
<g mask="url(#mask39_715_933)">
<path d="M597.764 206.461H563.075V206.28L557.162 206.34L554.325 206.4H527.359C525.61 206.22 524.583 205.979 524.041 205.799C524.522 203.145 527.962 197.115 532.245 190" stroke="black" stroke-width="11.5739" stroke-miterlimit="10" stroke-linecap="round" stroke-linejoin="round"/>
</g>
</g>
</g>
<path fill-rule="evenodd" clip-rule="evenodd" d="M464.252 147.98H498.761C501.778 147.98 504.191 150.392 504.191 153.407C504.191 156.421 501.778 158.833 498.761 158.833H464.252C461.235 158.833 458.822 156.421 458.822 153.407C458.822 150.452 461.235 147.98 464.252 147.98ZM464.252 168.722H498.761C501.778 168.722 504.191 171.133 504.191 174.148C504.191 177.163 501.778 179.574 498.761 179.574H464.252C461.235 179.574 458.822 177.163 458.822 174.148C458.822 171.253 461.235 168.722 464.252 168.722Z" fill="#AA0046"/>
<mask id="mask40_715_933" style="mask-type:luminance" maskUnits="userSpaceOnUse" x="548" y="44" width="67" height="65">
<path d="M548.037 44.8828H614.482V108.145H548.037V44.8828Z" fill="white"/>
</mask>
<g mask="url(#mask40_715_933)">
<path d="M611.964 74.56C611.804 61.3212 603.177 45.2104 581.768 44.8906H580.852C559.443 45.2104 550.816 61.3212 550.656 74.56C550.496 87.7989 546.501 87.1613 549.217 97.2104C551.935 107.259 561.519 107.101 561.519 107.101C559.763 102.794 559.283 98.0078 559.283 98.0078C561.679 109.174 571.905 107.899 571.905 107.899C560.082 97.8479 562.798 79.3448 563.118 76.3148C563.438 73.2849 567.272 72.6454 568.709 72.3971C570.148 72.1489 573.317 66.9918 573.317 66.9918V72.3257C573.317 72.3257 577.337 72.4855 579.255 72.3257C580.148 72.2523 580.833 69.6832 581.311 66.9598C581.787 69.6832 582.473 72.2523 583.366 72.3257C585.283 72.4855 589.302 72.3257 589.302 72.3257V66.9918C589.302 66.9918 592.473 72.1489 593.91 72.3971C595.349 72.6454 599.184 73.2849 599.502 76.3148C599.821 79.3448 602.537 97.8479 590.715 107.899C590.715 107.899 600.94 109.174 603.337 98.0078C603.337 98.0078 602.857 102.794 601.1 107.101C601.1 107.101 610.687 107.259 613.403 97.2104C616.118 87.1613 612.124 87.7989 611.964 74.56Z" fill="#BD4089"/>
</g>
<mask id="mask41_715_933" style="mask-type:luminance" maskUnits="userSpaceOnUse" x="367" y="44" width="59" height="47">
<path d="M367.057 44.8828H425.196V90.0217H367.057V44.8828Z" fill="white"/>
</mask>
<g mask="url(#mask41_715_933)">
<path d="M416.251 89.922L416.373 89.1848C416.891 86.625 416.941 83.106 416.522 78.626C415.19 76.1641 414.353 73.6043 414.007 70.9712C413.885 70.6026 413.712 70.4051 413.466 70.3562C413.417 70.3073 413.195 70.4051 412.824 70.627C411.592 71.5862 410.853 72.079 410.607 72.1523C409.99 72.4232 409.546 72.5473 409.251 72.5473C408.388 72.7674 406.588 72.3009 403.877 71.1442C401.782 72.0545 400.204 72.521 399.17 72.4965C398.011 72.5473 396.482 72.1768 394.584 71.3906C392.538 71.906 390.813 72.252 389.408 72.4721L383.074 73.0871C382.113 73.309 381.545 73.4821 381.398 73.6043C378.564 74.8607 377.355 80.3244 377.798 90.0217L372.82 87.9792V80.7663C371.661 78.9213 370.996 77.4938 370.849 76.4838C370.627 75.4757 370.676 73.8996 371.069 71.7104C369.147 69.7901 367.866 66.4667 367.225 61.7422C368.507 62.5547 370.552 63.0945 373.362 63.4161C371.144 60.9052 369.444 59.2313 368.259 58.4188C369.715 57.3844 370.823 56.8446 371.612 56.7938C372.327 56.6471 373.559 56.9424 375.259 57.6552C374.274 56.8935 373.584 55.1952 373.215 52.5621C374.447 52.9796 375.284 53.226 375.679 53.2749C375.974 53.3727 376.615 53.3727 377.627 53.2993C377.823 53.2993 378.045 53.3482 378.291 53.4235C378.859 53.6191 379.647 54.0385 380.657 54.678C379.279 53.5702 378.759 51.4298 379.057 48.2551C379.845 49.3365 380.633 50.0023 381.423 50.2731C381.694 50.3465 381.989 50.3954 382.335 50.3954L384.947 50.2224C385.316 50.2224 385.662 50.322 386.006 50.4688C386.525 50.6662 387.215 51.3546 388.052 52.5621C387.387 51.7251 387.091 50.9126 387.165 50.1246C387.165 49.3854 387.609 47.909 388.472 45.6953C389.235 47.0476 389.901 47.8112 390.494 48.0087C390.911 48.1798 391.282 48.2551 391.626 48.2551L394.709 47.9842C395.324 47.9579 395.841 48.0087 396.211 48.1309C397.321 48.4751 398.528 49.3121 399.809 50.6907C400.377 50.0512 400.624 49.4362 400.55 48.7948C400.524 48.2287 400.131 47.0476 399.365 45.2514C401.363 46.679 402.743 47.5893 403.556 47.9334L404.739 48.4262C407.278 49.0168 408.485 49.3854 408.412 49.4851C409.127 49.8293 409.892 50.8393 410.68 52.4624C410.802 49.9779 412.234 47.467 414.993 44.8828C414.673 47.7378 414.746 49.6073 415.215 50.4688L415.807 51.3791C417.41 52.7821 418.198 53.5946 418.198 53.8166C418.642 54.6535 418.864 55.8835 418.864 57.5085C421.008 57.9769 422.537 58.985 423.473 60.5855C424.261 61.8644 424.754 64.253 424.903 67.772C425.025 71.7837 424.137 75.5246 422.24 78.9457L422.586 86.8714L416.251 89.922Z" fill="#7DA7D9"/>
</g>
</g>
<mask id="mask42_715_933" style="mask-type:luminance" maskUnits="userSpaceOnUse" x="20" y="171" width="343" height="149">
<path d="M20 171H363V319.637H20V171Z" fill="white"/>
</mask>
<g mask="url(#mask42_715_933)">
<path d="M360.612 319.599H20.5967C20.7974 311.249 25.9378 302.235 33.8153 299.279C30.8801 293.931 32.2382 286.723 36.9224 282.719C41.6171 278.713 49.1844 278.293 54.3169 281.752C53.5766 275.363 54.489 268.312 59.0742 263.649C63.6594 258.996 72.6942 258.302 76.5312 263.557C77.0682 259.069 77.6339 254.46 79.2292 250.255V250.245C79.7662 248.85 80.4152 247.5 81.2077 246.204C84.4061 241.041 90.7325 237.151 96.7853 238.593C101.454 239.706 106.532 243.639 110.369 240.84C112.337 239.388 112.793 236.779 113.604 234.516C117.787 222.802 136.603 219.517 144.762 229.068C145.064 223.696 145.901 217.901 149.832 214.087C153.75 210.274 161.726 210.209 163.96 215.127C165.519 202.355 167.469 188.685 176.365 179.113C188.572 165.986 215.554 171.278 223.904 186.323C224.98 188.258 225.838 190.557 227.879 191.532C230.368 192.718 233.249 191.36 235.892 190.557C241.919 188.722 248.863 190.046 253.714 193.958C258.562 197.874 261.151 204.234 260.358 210.292C262.874 211.121 267.532 221.433 268.846 226.779C273.887 222.564 280.86 221.013 287.259 223.941C292.893 226.524 296.529 231.714 297.613 237.509C302.41 236.961 307.414 238.384 310.988 241.888C313.522 244.369 315.07 247.709 315.573 251.204C324.361 250.519 331.232 257.197 331.907 265.429C336.065 270.236 337.696 277.18 334.834 288.923C338.843 287.755 342.957 286.577 347.13 286.77C357.56 287.234 367.569 311.888 360.612 319.599Z" fill="url(#paint1_linear_715_933)" fill-opacity="0.82"/>
</g>
<mask id="mask43_715_933" style="mask-type:luminance" maskUnits="userSpaceOnUse" x="320" y="191" width="296" height="129">
<path d="M320 191H616V319.27H320V191Z" fill="white"/>
</mask>
<g mask="url(#mask43_715_933)">
<path d="M613.94 319.239H320.516C320.689 312.034 325.125 304.255 331.923 301.704C329.39 297.088 330.562 290.868 334.605 287.413C338.656 283.956 345.187 283.593 349.616 286.578C348.977 281.065 349.764 274.98 353.721 270.956C357.678 266.94 365.475 266.342 368.786 270.877C369.25 267.003 369.738 263.026 371.114 259.398V259.389C371.578 258.185 372.138 257.02 372.822 255.902C375.582 251.446 381.042 248.089 386.265 249.333C390.294 250.294 394.676 253.688 397.987 251.272C399.685 250.019 400.079 247.768 400.779 245.815C404.389 235.706 420.626 232.871 427.667 241.114C427.928 236.477 428.65 231.477 432.042 228.186C435.424 224.895 442.307 224.838 444.235 229.083C445.58 218.061 447.263 206.264 454.94 198.004C465.475 186.675 488.759 191.242 495.965 204.226C496.894 205.895 497.634 207.879 499.395 208.721C501.543 209.744 504.029 208.572 506.31 207.879C511.511 206.296 517.504 207.438 521.69 210.815C525.874 214.194 528.108 219.682 527.424 224.91C529.595 225.626 533.615 234.525 534.749 239.139C539.099 235.501 545.117 234.163 550.639 236.689C555.5 238.918 558.638 243.397 559.574 248.398C563.713 247.925 568.032 249.153 571.116 252.177C573.303 254.318 574.639 257.2 575.073 260.216C582.656 259.625 588.586 265.388 589.169 272.492C592.757 276.64 594.165 282.633 591.695 292.767C595.155 291.759 598.704 290.742 602.306 290.909C611.306 291.309 619.944 312.585 613.94 319.239Z" fill="url(#paint2_linear_715_933)"/>
</g>
<mask id="mask44_715_933" style="mask-type:luminance" maskUnits="userSpaceOnUse" x="153" y="184" width="630" height="143">
<path d="M153 184H783V326.556H153V184Z" fill="white"/>
</mask>
<g mask="url(#mask44_715_933)">
<path d="M764.445 328.988H138.448C135.374 318.531 132.849 299.846 146.205 295.363C151.548 293.57 157.403 294.402 162.984 295.267C167.242 282.345 158.57 268.096 174.566 259.707C181.862 255.878 191.504 256.679 198.018 261.678C198.832 262.287 199.683 262.991 200.703 262.991C202.862 263.023 203.617 260.237 203.694 258.138C204.353 242.736 206.526 226.983 214.028 213.37C221.516 199.748 235.193 188.523 251.106 187.146C258.164 186.537 265.346 187.864 271.855 190.572C285.742 196.303 296.583 208.489 300.394 222.61C302.681 214.715 313.59 207.03 321.7 209.463C331.041 212.267 335.538 222.29 338.863 231.191C349.837 218.447 364.076 204.423 381.047 206.934C381.701 207.03 382.327 207.144 382.949 207.286V207.304C405.057 212.153 404.32 241.437 409.695 257.804C429.497 246.592 465.089 256.39 464.577 282.971C469.695 269.747 482.636 254.373 498.664 257.035C502.57 257.676 525.542 269.011 524.403 273.347C526.754 264.336 529.586 252.612 540.353 250.115C543.665 249.346 565.868 255.48 564.633 258.348C569.674 246.592 576.266 235.161 586.004 226.58C595.734 217.999 609.008 212.537 622.095 214.138C641.179 216.494 644.01 229.878 651.352 243.967C655.363 235.532 665.267 230.102 674.818 231.113C684.369 232.106 692.845 239.452 694.894 248.514C696.778 256.825 693.659 265.393 689.917 273.091C695.69 268.64 704.875 270.932 709.609 276.407C714.344 281.883 715.496 289.471 715.318 296.598C722.069 293.972 730.148 294.869 736.112 298.885C742.082 302.906 745.727 309.918 745.521 316.944C753.549 316.802 761.179 321.99 764.445 328.988Z" fill="url(#paint3_linear_715_933)"/>
</g>
</g>
<defs>
<linearGradient id="paint0_linear_715_933" x1="772.53" y1="116.277" x2="772.53" y2="332.946" gradientUnits="userSpaceOnUse">
<stop offset="0.583333" stop-color="#9BDBFF"/>
<stop offset="1" stop-color="#9BDBFF" stop-opacity="0"/>
</linearGradient>
<linearGradient id="paint1_linear_715_933" x1="191.759" y1="171.645" x2="191.759" y2="319.599" gradientUnits="userSpaceOnUse">
<stop offset="0.526042" stop-color="#A7DFFF" stop-opacity="0.921875"/>
<stop offset="1" stop-color="#9BDBFF" stop-opacity="0"/>
</linearGradient>
<linearGradient id="paint2_linear_715_933" x1="468.225" y1="191.559" x2="468.225" y2="319.239" gradientUnits="userSpaceOnUse">
<stop offset="0.4375" stop-color="#9BDBFF" stop-opacity="0.863636"/>
<stop offset="1" stop-color="#9BDBFF" stop-opacity="0"/>
</linearGradient>
<linearGradient id="paint3_linear_715_933" x1="450.223" y1="187" x2="450.223" y2="328.988" gradientUnits="userSpaceOnUse">
<stop offset="0.65625" stop-color="#FFE7FB"/>
<stop offset="1" stop-color="#FFF3FD" stop-opacity="0"/>
</linearGradient>
<clipPath id="clip0_715_933">
<rect width="1040" height="323" fill="white"/>
</clipPath>
<clipPath id="clip1_715_933">
<rect width="390" height="293" fill="white" transform="translate(302 -31)"/>
</clipPath>
</defs>
</svg>
