<svg width="1052" height="278" viewBox="0 0 1052 278" fill="none" xmlns="http://www.w3.org/2000/svg">
<g clip-path="url(#clip0_716_1384)">
<mask id="mask0_716_1384" style="mask-type:luminance" maskUnits="userSpaceOnUse" x="550" y="60" width="503" height="218">
<path d="M550 60.332H1052.3V278H550V60.332Z" fill="white"/>
</mask>
<g mask="url(#mask0_716_1384)">
<path d="M1048.8 287.946H550.875C551.169 275.719 558.697 262.519 570.233 258.19C565.934 250.357 567.923 239.802 574.783 233.938C581.658 228.071 592.74 227.457 600.256 232.522C599.172 223.166 600.508 212.84 607.223 206.011C613.937 199.197 627.168 198.181 632.787 205.877C633.574 199.304 634.402 192.555 636.738 186.397V186.382C637.525 184.34 638.475 182.362 639.636 180.465C644.319 172.903 653.584 167.208 662.448 169.319C669.285 170.949 676.721 176.709 682.34 172.609C685.222 170.483 685.89 166.662 687.077 163.348C693.204 146.193 720.758 141.383 732.706 155.37C733.149 147.503 734.374 139.017 740.131 133.432C745.868 127.847 757.549 127.752 760.821 134.955C763.103 116.25 765.959 96.232 778.987 82.2148C796.864 62.9907 836.377 70.7399 848.604 92.7735C850.18 95.6059 851.436 98.9728 854.425 100.401C858.071 102.137 862.289 100.149 866.16 98.9728C874.985 96.2854 885.155 98.2246 892.259 103.954C899.359 109.688 903.15 119.002 901.989 127.874C905.673 129.088 912.494 144.189 914.418 152.018C921.801 145.846 932.013 143.575 941.384 147.861C949.633 151.644 954.958 159.245 956.546 167.731C963.57 166.929 970.9 169.013 976.133 174.144C979.844 177.778 982.111 182.668 982.848 187.787C995.716 186.783 1005.78 196.563 1006.77 208.618C1012.86 215.657 1015.25 225.827 1011.05 243.024C1016.93 241.313 1022.95 239.588 1029.06 239.87C1044.33 240.55 1058.99 276.654 1048.8 287.946Z" fill="url(#paint0_linear_716_1384)" fill-opacity="0.33"/>
</g>
<g clip-path="url(#clip1_716_1384)">
<mask id="mask1_716_1384" style="mask-type:luminance" maskUnits="userSpaceOnUse" x="382" y="11" width="87" height="208">
<path d="M382.064 11.6445H468.223V218.189H382.064V11.6445Z" fill="white"/>
</mask>
<g mask="url(#mask1_716_1384)">
<path fill-rule="evenodd" clip-rule="evenodd" d="M468.094 99.7256C468.094 78.4407 452.408 60.6541 431.897 57.3383C441.428 54.4437 448.427 45.5815 448.427 35.0302C448.487 22.1262 437.988 11.6953 425.139 11.6953C412.289 11.6953 401.851 22.1262 401.851 34.9701C401.851 45.4611 408.789 54.3234 418.381 57.2781C397.93 60.5337 382.184 78.3805 382.184 99.6654V149.709C382.184 151.398 383.632 152.784 385.261 152.784H402.032V195.051C402.032 207.049 411.323 216.938 423.027 218.083V152.724H427.371V218.083C439.076 216.998 448.367 207.049 448.367 195.051V152.905H465.077C466.827 152.905 468.154 151.458 468.154 149.83V99.7256H468.094Z" fill="#FFC2A3"/>
</g>
<mask id="mask2_716_1384" style="mask-type:luminance" maskUnits="userSpaceOnUse" x="421" y="11" width="12" height="8">
<path d="M421.52 11.6445H432.594V18.8555H421.52V11.6445Z" fill="white"/>
</mask>
<g mask="url(#mask2_716_1384)">
<mask id="mask3_716_1384" style="mask-type:luminance" maskUnits="userSpaceOnUse" x="292" y="-115" width="468" height="469">
<path d="M760 -114.996H292V353.004H760V-114.996Z" fill="black" fill-opacity="0.298"/>
</mask>
<g mask="url(#mask3_716_1384)">
<mask id="mask4_716_1384" style="mask-type:luminance" maskUnits="userSpaceOnUse" x="421" y="11" width="12" height="8">
<path d="M432.596 11.6406H421.521V18.8628H432.596V11.6406Z" fill="white"/>
</mask>
<g mask="url(#mask4_716_1384)">
<mask id="mask5_716_1384" style="mask-type:luminance" maskUnits="userSpaceOnUse" x="422" y="11" width="11" height="8">
<path d="M422.002 11.6523H432.228V18.3818H422.002V11.6523Z" fill="white"/>
</mask>
<g mask="url(#mask5_716_1384)">
<path d="M425.143 14.5977C426.591 14.5977 427.919 14.7782 429.245 15.019" stroke="white" stroke-width="5.78697" stroke-miterlimit="10" stroke-linecap="round" stroke-linejoin="round"/>
</g>
</g>
</g>
</g>
<mask id="mask6_716_1384" style="mask-type:luminance" maskUnits="userSpaceOnUse" x="292" y="-115" width="468" height="468">
<path d="M760 -115H292V353H760V-115Z" fill="black" fill-opacity="0.298"/>
</mask>
<g mask="url(#mask6_716_1384)">
<mask id="mask7_716_1384" style="mask-type:luminance" maskUnits="userSpaceOnUse" x="435" y="17" width="14" height="22">
<path d="M448.963 17.4141H435.963V38.5992H448.963V17.4141Z" fill="white"/>
</mask>
<g mask="url(#mask7_716_1384)">
<mask id="mask8_716_1384" style="mask-type:luminance" maskUnits="userSpaceOnUse" x="436" y="17" width="13" height="22">
<path d="M436.441 17.7148H448.478V38.1101H436.441V17.7148Z" fill="white"/>
</mask>
<g mask="url(#mask8_716_1384)">
<path d="M439.617 20.6211C443.296 24.298 445.529 29.363 445.529 34.9715" stroke="white" stroke-width="5.78697" stroke-miterlimit="10" stroke-linecap="round" stroke-linejoin="round"/>
</g>
</g>
</g>
<mask id="mask9_716_1384" style="mask-type:luminance" maskUnits="userSpaceOnUse" x="292" y="-115" width="468" height="468">
<path d="M760 -115H292V353H760V-115Z" fill="black" fill-opacity="0.0667"/>
</mask>
<g mask="url(#mask9_716_1384)">
<mask id="mask10_716_1384" style="mask-type:luminance" maskUnits="userSpaceOnUse" x="426" y="180" width="21" height="37">
<path d="M446.559 180.145H426.818V216.737H446.559V180.145Z" fill="white"/>
</mask>
<g mask="url(#mask10_716_1384)">
<path d="M440.044 203.968C438.355 206.743 436.062 208.973 433.166 210.42V186.543" stroke="black" stroke-width="11.5739" stroke-miterlimit="10" stroke-linecap="round" stroke-linejoin="round"/>
</g>
</g>
<mask id="mask11_716_1384" style="mask-type:luminance" maskUnits="userSpaceOnUse" x="292" y="-115" width="468" height="468">
<path d="M760 -115H292V353H760V-115Z" fill="black" fill-opacity="0.0667"/>
</mask>
<g mask="url(#mask11_716_1384)">
<mask id="mask12_716_1384" style="mask-type:luminance" maskUnits="userSpaceOnUse" x="401" y="188" width="23" height="29">
<path d="M423.446 188.82H401.779V216.746H423.446V188.82Z" fill="white"/>
</mask>
<g mask="url(#mask12_716_1384)">
<mask id="mask13_716_1384" style="mask-type:luminance" maskUnits="userSpaceOnUse" x="401" y="188" width="23" height="29">
<path d="M401.949 188.859H423.212V216.266H401.949V188.859Z" fill="white"/>
</mask>
<g mask="url(#mask13_716_1384)">
<path d="M417.234 210.428C411.624 207.536 407.883 201.686 407.883 195.055" stroke="black" stroke-width="11.5739" stroke-miterlimit="10" stroke-linecap="round" stroke-linejoin="round"/>
</g>
</g>
</g>
<mask id="mask14_716_1384" style="mask-type:luminance" maskUnits="userSpaceOnUse" x="547" y="11" width="125" height="208">
<path d="M547.184 11.6445H671.887V218.189H547.184V11.6445Z" fill="white"/>
</mask>
<g mask="url(#mask14_716_1384)">
<path fill-rule="evenodd" clip-rule="evenodd" d="M652.403 125.231V99.7279C652.403 78.443 636.718 60.6564 616.206 57.3406C625.738 54.446 632.736 45.5838 632.736 35.0326C632.736 22.1887 622.298 11.7578 609.448 11.7578C596.597 11.7578 586.16 22.1887 586.16 35.0326C586.16 45.5236 593.098 54.3859 602.69 57.3406C582.239 60.5962 566.493 78.443 566.493 99.7279V125.292C539.283 170.272 536.69 168.403 586.28 167.197V195.114C586.28 207.111 595.572 217.001 607.276 218.146V159.842H611.62V218.146C623.324 217.061 632.616 207.111 632.616 195.114V167.197C682.146 168.343 679.552 170.272 652.403 125.231Z" fill="#FFC2A3"/>
</g>
<mask id="mask15_716_1384" style="mask-type:luminance" maskUnits="userSpaceOnUse" x="292" y="-115" width="468" height="468">
<path d="M760 -115H292V353H760V-115Z" fill="black" fill-opacity="0.298"/>
</mask>
<g mask="url(#mask15_716_1384)">
<mask id="mask16_716_1384" style="mask-type:luminance" maskUnits="userSpaceOnUse" x="615" y="13" width="16" height="16">
<path d="M630.961 13.0742H615.072V28.9631H630.961V13.0742Z" fill="white"/>
</mask>
<g mask="url(#mask16_716_1384)">
<path d="M618.559 16.7578C622.418 18.6875 625.495 21.7626 627.487 25.4997" stroke="white" stroke-width="5.78697" stroke-miterlimit="10" stroke-linecap="round" stroke-linejoin="round"/>
</g>
</g>
<mask id="mask17_716_1384" style="mask-type:luminance" maskUnits="userSpaceOnUse" x="292" y="-115" width="468" height="468">
<path d="M760 -115H292V353H760V-115Z" fill="black" fill-opacity="0.0667"/>
</mask>
<g mask="url(#mask17_716_1384)">
<mask id="mask18_716_1384" style="mask-type:luminance" maskUnits="userSpaceOnUse" x="585" y="180" width="20" height="34">
<path d="M604.004 180.145H585.707V213.848H604.004V180.145Z" fill="white"/>
</mask>
<g mask="url(#mask18_716_1384)">
<mask id="mask19_716_1384" style="mask-type:luminance" maskUnits="userSpaceOnUse" x="586" y="180" width="18" height="34">
<path d="M586.033 180.625H603.521V213.693H586.033V180.625Z" fill="white"/>
</mask>
<g mask="url(#mask19_716_1384)">
<path d="M597.566 207.768C594.126 204.572 591.955 199.989 591.955 195.106V186.543" stroke="black" stroke-width="11.5739" stroke-miterlimit="10" stroke-linecap="round" stroke-linejoin="round"/>
</g>
</g>
</g>
<mask id="mask20_716_1384" style="mask-type:luminance" maskUnits="userSpaceOnUse" x="382" y="57" width="87" height="97">
<path d="M382.064 57.3672H468.223V153.182H382.064V57.3672Z" fill="white"/>
</mask>
<g mask="url(#mask20_716_1384)">
<path fill-rule="evenodd" clip-rule="evenodd" d="M402.033 152.901H465.018C466.768 152.901 468.095 151.455 468.095 149.826V99.7818C468.095 78.497 452.41 60.7104 431.898 57.3945C429.725 58.0584 427.493 58.4196 425.02 58.4196C422.667 58.4196 420.314 58.0584 418.262 57.3945C397.871 60.6502 382.064 78.497 382.064 99.7818V149.766C382.064 151.455 383.513 152.841 385.141 152.841H402.033V152.901Z" fill="#9BDBFF"/>
</g>
<mask id="mask21_716_1384" style="mask-type:luminance" maskUnits="userSpaceOnUse" x="382" y="122" width="61" height="32">
<path d="M382.064 122.855H442.223V153.67H382.064V122.855Z" fill="white"/>
</mask>
<g mask="url(#mask21_716_1384)">
<mask id="mask22_716_1384" style="mask-type:luminance" maskUnits="userSpaceOnUse" x="292" y="-115" width="468" height="469">
<path d="M760 -114.996H292V353.004H760V-114.996Z" fill="black" fill-opacity="0.0667"/>
</mask>
<g mask="url(#mask22_716_1384)">
<mask id="mask23_716_1384" style="mask-type:luminance" maskUnits="userSpaceOnUse" x="382" y="122" width="61" height="32">
<path d="M442.222 122.859H382.037V153.674H442.222V122.859Z" fill="white"/>
</mask>
<g mask="url(#mask23_716_1384)">
<mask id="mask24_716_1384" style="mask-type:luminance" maskUnits="userSpaceOnUse" x="382" y="123" width="60" height="31">
<path d="M382.076 123.344H441.742V153.196H382.076V123.344Z" fill="white"/>
</mask>
<g mask="url(#mask24_716_1384)">
<path d="M435.818 147.12H387.975V129.273" stroke="black" stroke-width="11.5739" stroke-miterlimit="10" stroke-linecap="round" stroke-linejoin="round"/>
</g>
</g>
</g>
</g>
<mask id="mask25_716_1384" style="mask-type:luminance" maskUnits="userSpaceOnUse" x="292" y="-115" width="468" height="468">
<path d="M760 -115H292V353H760V-115Z" fill="black" fill-opacity="0.298"/>
</mask>
<g mask="url(#mask25_716_1384)">
<mask id="mask26_716_1384" style="mask-type:luminance" maskUnits="userSpaceOnUse" x="435" y="58" width="11" height="10">
<path d="M445.59 58.3398H435.479V67.0065H445.59V58.3398Z" fill="white"/>
</mask>
<g mask="url(#mask26_716_1384)">
<mask id="mask27_716_1384" style="mask-type:luminance" maskUnits="userSpaceOnUse" x="435" y="58" width="11" height="9">
<path d="M435.809 58.8242H445.515V66.5279H435.809V58.8242Z" fill="white"/>
</mask>
<g mask="url(#mask27_716_1384)">
<path d="M438.711 62.0508C439.979 62.4721 441.124 63.0758 442.331 63.5573" stroke="white" stroke-width="5.78697" stroke-miterlimit="10" stroke-linecap="round" stroke-linejoin="round"/>
</g>
</g>
</g>
<mask id="mask28_716_1384" style="mask-type:luminance" maskUnits="userSpaceOnUse" x="292" y="-115" width="468" height="468">
<path d="M760 -115H292V353H760V-115Z" fill="black" fill-opacity="0.298"/>
</mask>
<g mask="url(#mask28_716_1384)">
<mask id="mask29_716_1384" style="mask-type:luminance" maskUnits="userSpaceOnUse" x="448" y="66" width="19" height="25">
<path d="M466.296 66.043H448V90.5985H466.296V66.043Z" fill="white"/>
</mask>
<g mask="url(#mask29_716_1384)">
<mask id="mask30_716_1384" style="mask-type:luminance" maskUnits="userSpaceOnUse" x="448" y="66" width="19" height="25">
<path d="M448.48 66.5273H466.083V90.1199H448.48V66.5273Z" fill="white"/>
</mask>
<g mask="url(#mask30_716_1384)">
<path d="M451.623 69.7031C456.812 74.2847 460.794 80.1942 463.086 86.8258" stroke="white" stroke-width="5.78697" stroke-miterlimit="10" stroke-linecap="round" stroke-linejoin="round"/>
</g>
</g>
</g>
<path fill-rule="evenodd" clip-rule="evenodd" d="M586.281 167.253H632.554V167.193C633.581 167.193 634.485 167.253 635.39 167.253H652.464V167.614C680.758 167.795 675.268 163.093 652.464 125.287V99.7232C652.464 78.4384 636.778 60.6518 616.266 57.3359C614.094 57.9999 611.861 58.361 609.509 58.361C607.156 58.361 604.803 57.9999 602.751 57.3359C582.299 60.5916 566.553 78.4384 566.553 99.7232V125.287C547.006 157.606 540.128 165.684 556.177 167.313H583.627C584.411 167.253 585.316 167.253 586.281 167.253Z" fill="#FF88AC"/>
<mask id="mask31_716_1384" style="mask-type:luminance" maskUnits="userSpaceOnUse" x="292" y="-115" width="468" height="468">
<path d="M760 -115H292V353H760V-115Z" fill="black" fill-opacity="0.298"/>
</mask>
<g mask="url(#mask31_716_1384)">
<mask id="mask32_716_1384" style="mask-type:luminance" maskUnits="userSpaceOnUse" x="618" y="58" width="11" height="9">
<path d="M628.557 58.3398H618.928V66.0435H628.557V58.3398Z" fill="white"/>
</mask>
<g mask="url(#mask32_716_1384)">
<mask id="mask33_716_1384" style="mask-type:luminance" maskUnits="userSpaceOnUse" x="619" y="58" width="10" height="9">
<path d="M619.408 58.8242H628.325V66.0276H619.408V58.8242Z" fill="white"/>
</mask>
<g mask="url(#mask33_716_1384)">
<path d="M622.482 61.8672C623.507 62.2302 624.412 62.5913 625.377 63.0145" stroke="white" stroke-width="5.78697" stroke-miterlimit="10" stroke-linecap="round" stroke-linejoin="round"/>
</g>
</g>
</g>
<mask id="mask34_716_1384" style="mask-type:luminance" maskUnits="userSpaceOnUse" x="292" y="-115" width="468" height="468">
<path d="M760 -115H292V353H760V-115Z" fill="black" fill-opacity="0.298"/>
</mask>
<g mask="url(#mask34_716_1384)">
<mask id="mask35_716_1384" style="mask-type:luminance" maskUnits="userSpaceOnUse" x="631" y="65" width="20" height="25">
<path d="M650.219 65.0742H631.441V89.1483H650.219V65.0742Z" fill="white"/>
</mask>
<g mask="url(#mask35_716_1384)">
<mask id="mask36_716_1384" style="mask-type:luminance" maskUnits="userSpaceOnUse" x="631" y="65" width="20" height="24">
<path d="M631.787 65.5586H650.046V88.901H631.787V65.5586Z" fill="white"/>
</mask>
<g mask="url(#mask36_716_1384)">
<path d="M634.783 68.7969C640.213 73.3183 644.497 79.1675 646.971 85.8613" stroke="white" stroke-width="5.78697" stroke-miterlimit="10" stroke-linecap="round" stroke-linejoin="round"/>
</g>
</g>
</g>
<mask id="mask37_716_1384" style="mask-type:luminance" maskUnits="userSpaceOnUse" x="292" y="-115" width="468" height="468">
<path d="M760 -115H292V353H760V-115Z" fill="black" fill-opacity="0.0667"/>
</mask>
<g mask="url(#mask37_716_1384)">
<mask id="mask38_716_1384" style="mask-type:luminance" maskUnits="userSpaceOnUse" x="546" y="138" width="88" height="30">
<path d="M633.374 138.738H546.707V167.627H633.374V138.738Z" fill="white"/>
</mask>
<g mask="url(#mask38_716_1384)">
<mask id="mask39_716_1384" style="mask-type:luminance" maskUnits="userSpaceOnUse" x="547" y="138" width="86" height="30">
<path d="M547.188 138.812H632.891V167.355H547.188V138.812Z" fill="white"/>
</mask>
<g mask="url(#mask39_716_1384)">
<path d="M626.764 161.461H592.075V161.28L586.162 161.34L583.325 161.4H556.359C554.61 161.22 553.583 160.979 553.041 160.799C553.522 158.145 556.962 152.115 561.245 145" stroke="black" stroke-width="11.5739" stroke-miterlimit="10" stroke-linecap="round" stroke-linejoin="round"/>
</g>
</g>
</g>
<path fill-rule="evenodd" clip-rule="evenodd" d="M493.252 102.98H527.761C530.778 102.98 533.191 105.392 533.191 108.407C533.191 111.421 530.778 113.833 527.761 113.833H493.252C490.235 113.833 487.822 111.421 487.822 108.407C487.822 105.452 490.235 102.98 493.252 102.98ZM493.252 123.722H527.761C530.778 123.722 533.191 126.133 533.191 129.148C533.191 132.163 530.778 134.574 527.761 134.574H493.252C490.235 134.574 487.822 132.163 487.822 129.148C487.822 126.253 490.235 123.722 493.252 123.722Z" fill="#AA0046"/>
<mask id="mask40_716_1384" style="mask-type:luminance" maskUnits="userSpaceOnUse" x="577" y="-1" width="67" height="65">
<path d="M577.037 -0.117188H643.482V63.145H577.037V-0.117188Z" fill="white"/>
</mask>
<g mask="url(#mask40_716_1384)">
<path d="M640.964 29.56C640.804 16.3212 632.177 0.210359 610.768 -0.109375H609.852C588.443 0.210359 579.816 16.3212 579.656 29.56C579.496 42.7989 575.501 42.1613 578.217 52.2104C580.935 62.2594 590.519 62.1014 590.519 62.1014C588.763 57.7944 588.283 53.0078 588.283 53.0078C590.679 64.174 600.905 62.8989 600.905 62.8989C589.082 52.8479 591.798 34.3448 592.118 31.3148C592.438 28.2849 596.272 27.6454 597.709 27.3971C599.148 27.1489 602.317 21.9918 602.317 21.9918V27.3257C602.317 27.3257 606.337 27.4855 608.255 27.3257C609.148 27.2523 609.833 24.6832 610.311 21.9598C610.787 24.6832 611.473 27.2523 612.366 27.3257C614.283 27.4855 618.302 27.3257 618.302 27.3257V21.9918C618.302 21.9918 621.473 27.1489 622.91 27.3971C624.349 27.6454 628.184 28.2849 628.502 31.3148C628.821 34.3448 631.537 52.8479 619.715 62.8989C619.715 62.8989 629.94 64.174 632.337 53.0078C632.337 53.0078 631.857 57.7944 630.1 62.1014C630.1 62.1014 639.687 62.2594 642.403 52.2104C645.118 42.1613 641.124 42.7989 640.964 29.56Z" fill="#BD4089"/>
</g>
<mask id="mask41_716_1384" style="mask-type:luminance" maskUnits="userSpaceOnUse" x="396" y="-1" width="59" height="47">
<path d="M396.057 -0.117188H454.196V45.0217H396.057V-0.117188Z" fill="white"/>
</mask>
<g mask="url(#mask41_716_1384)">
<path d="M445.251 44.922L445.373 44.1848C445.891 41.625 445.941 38.106 445.522 33.626C444.19 31.1641 443.353 28.6043 443.007 25.9712C442.885 25.6026 442.712 25.4051 442.466 25.3562C442.417 25.3073 442.195 25.4051 441.824 25.627C440.592 26.5862 439.853 27.079 439.607 27.1523C438.99 27.4232 438.546 27.5473 438.251 27.5473C437.388 27.7674 435.588 27.3009 432.877 26.1442C430.782 27.0545 429.204 27.521 428.17 27.4965C427.011 27.5473 425.482 27.1768 423.584 26.3906C421.538 26.906 419.813 27.252 418.408 27.4721L412.074 28.0871C411.113 28.309 410.545 28.4821 410.398 28.6043C407.564 29.8607 406.355 35.3244 406.798 45.0217L401.82 42.9792V35.7663C400.661 33.9213 399.996 32.4938 399.849 31.4838C399.627 30.4757 399.676 28.8996 400.069 26.7104C398.147 24.7901 396.866 21.4667 396.225 16.7422C397.507 17.5547 399.552 18.0945 402.362 18.4161C400.144 15.9052 398.444 14.2313 397.259 13.4188C398.715 12.3844 399.823 11.8446 400.612 11.7938C401.327 11.6471 402.559 11.9424 404.259 12.6552C403.274 11.8935 402.584 10.1952 402.215 7.56207C403.447 7.9796 404.284 8.22598 404.679 8.27488C404.974 8.37269 405.615 8.37269 406.627 8.29933C406.823 8.29933 407.045 8.34824 407.291 8.42347C407.859 8.61907 408.647 9.03848 409.657 9.67795C408.279 8.57017 407.759 6.42983 408.057 3.25506C408.845 4.33652 409.633 5.00231 410.423 5.27315C410.694 5.3465 410.989 5.3954 411.335 5.3954L413.947 5.22237C414.316 5.22237 414.662 5.32205 415.006 5.46875C415.525 5.66623 416.215 6.3546 417.052 7.56207C416.387 6.72512 416.091 5.91262 416.165 5.12457C416.165 4.38542 416.609 2.909 417.472 0.695313C418.235 2.0476 418.901 2.8112 419.494 3.00868C419.911 3.17983 420.282 3.25506 420.626 3.25506L423.709 2.98423C424.324 2.9579 424.841 3.00868 425.211 3.13093C426.321 3.47512 427.528 4.31207 428.809 5.69068C429.377 5.05122 429.624 4.4362 429.55 3.79485C429.524 3.22873 429.131 2.0476 428.365 0.251447C430.363 1.67896 431.743 2.58927 432.556 2.93345L433.739 3.42622C436.278 4.01678 437.485 4.38542 437.412 4.4851C438.127 4.82928 438.892 5.83927 439.68 7.46238C439.802 4.97786 441.234 2.46701 443.993 -0.117188C443.673 2.73785 443.746 4.60735 444.215 5.46875L444.807 6.37905C446.41 7.78212 447.198 8.59462 447.198 8.81655C447.642 9.6535 447.864 10.8835 447.864 12.5085C450.008 12.9769 451.537 13.985 452.473 15.5855C453.261 16.8644 453.754 19.253 453.903 22.772C454.025 26.7837 453.137 30.5246 451.24 33.9457L451.586 41.8714L445.251 44.922Z" fill="#7DA7D9"/>
</g>
</g>
<mask id="mask42_716_1384" style="mask-type:luminance" maskUnits="userSpaceOnUse" x="49" y="126" width="343" height="149">
<path d="M49 126H392V274.637H49V126Z" fill="white"/>
</mask>
<g mask="url(#mask42_716_1384)">
<path d="M389.612 274.599H49.5967C49.7974 266.249 54.9378 257.235 62.8153 254.279C59.8801 248.931 61.2382 241.723 65.9224 237.719C70.6171 233.713 78.1844 233.293 83.3169 236.752C82.5766 230.363 83.489 223.312 88.0742 218.649C92.6594 213.996 101.694 213.302 105.531 218.557C106.068 214.069 106.634 209.46 108.229 205.255V205.245C108.766 203.85 109.415 202.5 110.208 201.204C113.406 196.041 119.733 192.151 125.785 193.593C130.454 194.706 135.532 198.639 139.369 195.84C141.337 194.388 141.793 191.779 142.604 189.516C146.787 177.802 165.603 174.517 173.762 184.068C174.064 178.696 174.901 172.901 178.832 169.087C182.75 165.274 190.726 165.209 192.96 170.127C194.519 157.355 196.469 143.685 205.365 134.113C217.572 120.986 244.554 126.278 252.904 141.323C253.98 143.258 254.838 145.557 256.879 146.532C259.368 147.718 262.249 146.36 264.892 145.557C270.919 143.722 277.863 145.046 282.714 148.958C287.562 152.874 290.151 159.234 289.358 165.292C291.874 166.121 296.532 176.433 297.846 181.779C302.887 177.564 309.86 176.013 316.259 178.941C321.893 181.524 325.529 186.714 326.613 192.509C331.41 191.961 336.414 193.384 339.988 196.888C342.522 199.369 344.07 202.709 344.573 206.204C353.361 205.519 360.232 212.197 360.907 220.429C365.065 225.236 366.696 232.18 363.834 243.923C367.843 242.755 371.957 241.577 376.13 241.77C386.56 242.234 396.569 266.888 389.612 274.599Z" fill="url(#paint1_linear_716_1384)" fill-opacity="0.82"/>
</g>
<mask id="mask43_716_1384" style="mask-type:luminance" maskUnits="userSpaceOnUse" x="349" y="146" width="296" height="129">
<path d="M349 146H645V274.27H349V146Z" fill="white"/>
</mask>
<g mask="url(#mask43_716_1384)">
<path d="M642.94 274.239H349.516C349.689 267.034 354.125 259.255 360.923 256.704C358.39 252.088 359.562 245.868 363.605 242.413C367.656 238.956 374.187 238.593 378.616 241.578C377.977 236.065 378.764 229.98 382.721 225.956C386.678 221.94 394.475 221.342 397.786 225.877C398.25 222.003 398.738 218.026 400.114 214.398V214.389C400.578 213.185 401.138 212.02 401.822 210.902C404.582 206.446 410.042 203.089 415.265 204.333C419.294 205.294 423.676 208.688 426.987 206.272C428.685 205.019 429.079 202.768 429.779 200.815C433.389 190.706 449.626 187.871 456.667 196.114C456.928 191.477 457.65 186.477 461.042 183.186C464.424 179.895 471.307 179.838 473.235 184.083C474.58 173.061 476.263 161.264 483.94 153.004C494.475 141.675 517.759 146.242 524.965 159.226C525.894 160.895 526.634 162.879 528.395 163.721C530.543 164.744 533.029 163.572 535.31 162.879C540.511 161.296 546.504 162.438 550.69 165.815C554.874 169.194 557.108 174.682 556.424 179.91C558.595 180.626 562.615 189.525 563.749 194.139C568.099 190.501 574.117 189.163 579.639 191.689C584.5 193.918 587.638 198.397 588.574 203.398C592.713 202.925 597.032 204.153 600.116 207.177C602.303 209.318 603.639 212.2 604.073 215.216C611.656 214.625 617.586 220.388 618.169 227.492C621.757 231.64 623.165 237.633 620.695 247.767C624.155 246.759 627.704 245.742 631.306 245.909C640.306 246.309 648.944 267.585 642.94 274.239Z" fill="url(#paint2_linear_716_1384)"/>
</g>
<mask id="mask44_716_1384" style="mask-type:luminance" maskUnits="userSpaceOnUse" x="149" y="139" width="663" height="143">
<path d="M149 139H812V281.556H149V139Z" fill="white"/>
</mask>
<g mask="url(#mask44_716_1384)">
<path d="M793.445 283.988H167.448C164.374 273.531 161.849 254.846 175.205 250.363C180.548 248.57 186.403 249.402 191.984 250.267C196.242 237.345 187.57 223.096 203.566 214.707C210.862 210.878 220.504 211.679 227.018 216.678C227.832 217.287 228.683 217.991 229.703 217.991C231.862 218.023 232.617 215.237 232.694 213.138C233.353 197.736 235.526 181.983 243.028 168.37C250.516 154.748 264.193 143.523 280.106 142.146C287.164 141.537 294.346 142.864 300.855 145.572C314.742 151.303 325.583 163.489 329.394 177.61C331.681 169.715 342.59 162.03 350.7 164.463C360.041 167.267 364.538 177.29 367.863 186.191C378.837 173.447 393.076 159.423 410.047 161.934C410.701 162.03 411.327 162.144 411.949 162.286V162.304C434.057 167.153 433.32 196.437 438.695 212.804C458.497 201.592 494.089 211.39 493.577 237.971C498.695 224.747 511.636 209.373 527.664 212.035C531.57 212.676 554.542 224.011 553.403 228.347C555.754 219.336 558.586 207.612 569.353 205.115C572.665 204.346 594.868 210.48 593.633 213.348C598.674 201.592 605.266 190.161 615.004 181.58C624.734 172.999 638.008 167.537 651.095 169.138C670.179 171.494 673.01 184.878 680.352 198.967C684.363 190.532 694.267 185.102 703.818 186.113C713.369 187.106 721.845 194.452 723.894 203.514C725.778 211.825 722.659 220.393 718.917 228.091C724.69 223.64 733.875 225.932 738.609 231.407C743.344 236.883 744.496 244.471 744.318 251.598C751.069 248.972 759.148 249.869 765.112 253.885C771.082 257.906 774.727 264.918 774.521 271.944C782.549 271.802 790.179 276.99 793.445 283.988Z" fill="url(#paint3_linear_716_1384)"/>
</g>
</g>
<defs>
<linearGradient id="paint0_linear_716_1384" x1="801.53" y1="71.2773" x2="801.53" y2="287.946" gradientUnits="userSpaceOnUse">
<stop offset="0.583333" stop-color="#9BDBFF"/>
<stop offset="1" stop-color="#9BDBFF" stop-opacity="0"/>
</linearGradient>
<linearGradient id="paint1_linear_716_1384" x1="220.759" y1="126.645" x2="220.759" y2="274.599" gradientUnits="userSpaceOnUse">
<stop offset="0.526042" stop-color="#A7DFFF" stop-opacity="0.921875"/>
<stop offset="1" stop-color="#9BDBFF" stop-opacity="0"/>
</linearGradient>
<linearGradient id="paint2_linear_716_1384" x1="497.225" y1="146.559" x2="497.225" y2="274.239" gradientUnits="userSpaceOnUse">
<stop offset="0.4375" stop-color="#9BDBFF" stop-opacity="0.863636"/>
<stop offset="1" stop-color="#9BDBFF" stop-opacity="0"/>
</linearGradient>
<linearGradient id="paint3_linear_716_1384" x1="479.223" y1="142" x2="479.223" y2="283.988" gradientUnits="userSpaceOnUse">
<stop offset="0.65625" stop-color="#FFE7FB"/>
<stop offset="1" stop-color="#FFF3FD" stop-opacity="0"/>
</linearGradient>
<clipPath id="clip0_716_1384">
<rect width="1052" height="278" fill="white"/>
</clipPath>
<clipPath id="clip1_716_1384">
<rect width="390" height="293" fill="white" transform="translate(331 -76)"/>
</clipPath>
</defs>
</svg>
